<svg xmlns="http://www.w3.org/2000/svg" width="79.451263mm" height="78.009392mm" viewBox="0 0 79.451263 78.009392">
  <g transform="translate(-182.72563,-88.751258)">
    <g transform="translate(48.525566,32.934147)">
      <path style="fill:#14b7b8;fill-opacity:1;stroke-width:0.282222"
        d="m 156.48846,128.16253 c 0.0383,-3.20609 0.14765,-8.404 0.24295,-11.55092 l 0.17327,-5.72166 1.74221,1.78561 c 0.95822,0.98209 2.34373,2.19947 3.07893,2.7053 1.72366,1.18591 4.89723,2.67113 5.24643,2.45532 0.33926,-0.20968 2.75304,-6.31526 4.25667,-10.76708 l 1.13569,-3.36249 -0.61799,-0.42334 c -1.60455,-1.09914 -3.31577,-3.11971 -3.6306,-4.286927 -0.44368,-1.64492 -0.15756,-3.69461 0.72627,-5.202737 2.03545,-3.47324 6.85998,-3.937 9.58448,-0.9213 1.29696,1.43558 1.55757,2.146397 1.55757,4.248357 0,2.5096 -0.6281,3.578257 -3.4979,5.951357 l -0.81678,0.67542 0.63111,1.95514 c 0.99638,3.08671 3.28663,9.21457 4.01097,10.73185 0.55796,1.16876 0.7698,1.37097 1.36593,1.30384 1.35671,-0.15276 4.8881,-2.45737 7.22999,-4.71833 l 2.3386,-2.25778 0.16529,2.82223 c 0.29639,5.06053 0.70292,15.18559 0.70566,17.5752 l 0.003,2.3352 -4.86833,-4.03228 c -4.09967,-3.39563 -11.68597,-9.572 -12.81084,-10.42991 -0.34549,-0.2635 -2.35944,1.38687 -11.95416,9.79614 -3.02683,2.65285 -5.63033,4.8998 -5.78555,4.99321 -0.1854,0.11157 -0.25832,-1.83008 -0.21255,-5.65942 z m -10.65301,-19.53827 c -5.82083,-1.06616 -10.8761,-2.00972 -11.23392,-2.0968 -0.61825,-0.15045 -0.59019,-0.20904 0.56445,-1.17888 0.66826,-0.56131 4.56421,-3.63688 8.65766,-6.834597 4.09346,-3.19772 7.63581,-5.968277 7.8719,-6.156787 0.37581,-0.30008 0.2957,-0.59872 -0.64349,-2.39889 -1.19973,-2.299537 -6.38656,-12.011231 -8.45362,-15.828371 -0.73964,-1.365837 -1.29146,-2.536687 -1.22627,-2.601867 0.0652,-0.0652 5.16411,1.12895 11.33093,2.653647 6.16682,1.52469 11.26226,2.69151 11.32318,2.59293 0.0609,-0.0986 2.10062,-4.810717 4.53264,-10.471404 2.43202,-5.660687 4.50541,-10.378255 4.60753,-10.483485 0.10212,-0.10523 1.63703,2.942768 3.4109,6.773328 1.77387,3.830567 3.98889,8.525164 4.92226,10.432454 l 1.69704,3.467797 0.86329,-0.18832 c 0.47481,-0.10358 5.49081,-1.43924 11.14666,-2.968147 5.65584,-1.5289 10.33038,-2.73279 10.38785,-2.67532 0.0575,0.0575 -2.18879,4.689687 -4.99169,10.293814 -2.8029,5.604127 -5.09048,10.285244 -5.08351,10.402504 0.007,0.11726 4.18757,3.26119 9.29022,6.986527 6.92083,5.052737 9.15795,6.824427 8.80676,6.974507 -0.79363,0.33916 -21.24835,4.51532 -21.39544,4.36823 -0.0758,-0.0758 0.25052,-0.9072 0.72519,-1.84751 0.47467,-0.94032 1.20849,-2.69942 1.6307,-3.90912 0.70924,-2.03203 0.76848,-2.54315 0.77823,-6.714997 0.009,-4.027177 -0.0619,-4.729217 -0.65972,-6.491107 -2.1384,-6.302807 -5.96736,-10.833604 -11.46529,-13.566881 -3.43041,-1.70541 -5.85997,-2.18725 -10.16,-2.01496 -5.55614,0.22262 -9.43985,1.81895 -13.45724,5.531367 -4.62766,4.276357 -7.28609,10.185564 -7.28609,16.195621 0,4.450897 1.43195,9.265687 3.77505,12.693177 0.39792,0.58208 0.63207,1.04521 0.52033,1.02918 -0.11173,-0.016 -4.96566,-0.90148 -10.78649,-1.96764 z"
        id="path185" />
    </g>
  </g>
</svg>
