<?xml version="1.0" encoding="UTF-8" standalone="no"?>
<!-- Created with Inkscape (http://www.inkscape.org/) -->
<svg xmlns:dc="http://purl.org/dc/elements/1.1/" xmlns:cc="http://creativecommons.org/ns#" xmlns:rdf="http://www.w3.org/1999/02/22-rdf-syntax-ns#" xmlns:svg="http://www.w3.org/2000/svg" xmlns="http://www.w3.org/2000/svg" xmlns:sodipodi="http://sodipodi.sourceforge.net/DTD/sodipodi-0.dtd" xmlns:inkscape="http://www.inkscape.org/namespaces/inkscape" width="73.533096mm" height="24.402737mm" viewBox="0 0 73.533096 24.402737" version="1.1" id="svg894" inkscape:version="0.92.2 (unknown)" sodipodi:docname="logo.svg">
  <defs id="defs888"/>
  <sodipodi:namedview id="base" pagecolor="#ffffff" bordercolor="#666666" borderopacity="1.0" inkscape:pageopacity="0.0" inkscape:pageshadow="2" inkscape:zoom="1.4574219" inkscape:cx="120.18811" inkscape:cy="-43.661948" inkscape:document-units="mm" inkscape:current-layer="layer1" showgrid="false" fit-margin-top="0" fit-margin-left="0" fit-margin-right="0" fit-margin-bottom="0" inkscape:window-width="2560" inkscape:window-height="1392" inkscape:window-x="0" inkscape:window-y="48" inkscape:window-maximized="1"/>
  <metadata id="metadata891">
    <rdf:RDF>
      <cc:Work rdf:about="">
        <dc:format>image/svg+xml</dc:format>
        <dc:type rdf:resource="http://purl.org/dc/dcmitype/StillImage"/>
        <dc:title/>
      </cc:Work>
    </rdf:RDF>
  </metadata>
  <g inkscape:label="Layer 1" inkscape:groupmode="layer" id="layer1" transform="translate(-2.8096134,-112.87837)">
    <path style="fill:#ffffff;stroke-width:0.02075248" d="m 9.8186614,136.74275 c 0.013351,-0.5474 0.05068,-2.62562 0.09667,-5.38122 0.012591,-0.75708 0.019381,-1.38011 0.01493,-1.38451 -0.0045,-0.004 -0.904059,-0.16743 -1.9992371,-0.36229 -1.757799,-0.31276 -3.8987309,-0.69752 -4.8118489,-0.86478 l -0.309562,-0.0567 0.122789,-0.11226 c 0.270818,-0.24759 1.285617,-1.04952 2.696103,-2.13055 1.7110242,-1.31137 2.8262972,-2.19044 2.846801,-2.24387 0.01704,-0.0444 -0.4391771,-0.90948 -1.908648,-3.61912 -1.26512,-2.33283 -1.509146,-2.79098 -1.489991,-2.79743 0.02662,-0.009 0.7033659,0.1563 4.0676261,0.9934 1.6483355,0.41015 2.9985175,0.74337 3.0004095,0.7405 0.09114,-0.1382 0.234154,-0.46466 1.265949,-2.88982 1.15635,-2.71792 1.588264,-3.71291 1.629951,-3.75486 0.02949,-0.0296 0.371202,0.69172 1.597026,3.37093 0.563059,1.23066 1.134346,2.44328 1.334528,2.83272 l 0.149348,0.29054 0.07812,-0.005 c 0.153768,-0.009 1.273891,-0.30211 3.366787,-0.88083 2.315894,-0.64037 3.537624,-0.97192 3.581534,-0.97192 0.011,0 -0.70932,1.45223 -1.600682,3.22718 -0.89136,1.77494 -1.617635,3.24289 -1.613933,3.2621 0.01014,0.053 0.659425,0.5349 2.909395,2.15951 2.56392,1.8513 2.95813,2.14526 2.90578,2.1668 -0.0747,0.0307 -3.84893,0.82323 -6.005697,1.26106 -1.03138,0.20937 -0.933861,0.19321 -0.933861,0.15481 0,-0.0177 0.125013,-0.27663 0.277808,-0.57536 0.322405,-0.63034 0.417104,-0.8458 0.553361,-1.2591 0.239613,-0.72676 0.320121,-1.46007 0.287075,-2.61481 -0.01425,-0.49681 -0.04253,-0.69854 -0.164647,-1.17252 -0.328937,-1.27686 -0.913095,-2.31689 -1.795407,-3.19649 -1.162065,-1.15849 -2.492581,-1.80101 -4.020494,-1.94153 -0.388721,-0.0357 -1.292811,-0.0134 -1.658645,0.041 -1.3378,0.19893 -2.422667,0.71963 -3.450626,1.65619 -1.2021076,1.09523 -1.9330285,2.47406 -2.1925266,4.13605 -0.0411,0.26301 -0.04705,0.38063 -0.04759,0.93386 -4.498e-4,0.49628 0.0075,0.68896 0.03612,0.89236 0.111929,0.79088 0.3159119,1.46872 0.6481209,2.1537 0.3728389,0.76877 0.7586247,1.31374 1.3480407,1.90428 0.554891,0.55595 1.14457,0.97496 1.823707,1.29588 0.428257,0.20237 0.614027,0.2491 0.681745,0.17149 0.08988,-0.10301 0.532541,-1.22126 1.016623,-2.56812 0.325852,-0.90664 0.576822,-1.67424 0.576822,-1.76426 0,-0.0475 -0.12429,-0.15464 -0.256845,-0.22149 -0.0699,-0.0353 -0.17844,-0.10378 -0.241218,-0.15229 -0.255133,-0.19713 -0.597325,-0.60583 -0.725846,-0.86689 -0.137162,-0.27862 -0.189444,-0.82163 -0.114184,-1.18599 0.158292,-0.76637 0.700591,-1.35221 1.435032,-1.55028 0.22135,-0.0597 0.656891,-0.0639 0.868053,-0.008 0.568805,0.14959 1.04423,0.52911 1.317454,1.05172 0.230987,0.44183 0.245616,1.15619 0.03439,1.67916 -0.07567,0.18733 -0.235534,0.40842 -0.459273,0.63517 -0.188138,0.19066 -0.301728,0.27671 -0.611525,0.46329 -0.131205,0.079 -0.154604,0.12729 -0.124433,0.25664 0.115533,0.49526 1.112673,3.24297 1.446902,3.98709 0.109232,0.24317 0.139206,0.28096 0.222888,0.28096 0.09589,0 0.325391,-0.0846 0.622398,-0.22951 0.835928,-0.40777 1.630939,-1.03999 2.313906,-1.84009 l 0.197143,-0.23096 0.01486,0.41876 c 0.0081,0.23031 0.05701,1.30125 0.108587,2.37986 0.0515,1.07861 0.107622,2.32065 0.124615,2.76008 0.01697,0.43943 0.03514,0.90637 0.04042,1.03762 0.01014,0.25445 -0.0053,0.58107 -0.02775,0.58107 -0.0075,0 -0.35861,-0.28611 -0.780442,-0.6358 -3.078658,-2.55212 -4.320847,-3.571 -4.72544,-3.87591 l -0.07774,-0.0586 -0.150532,0.1214 c -0.43846,0.35361 -3.705027,3.18985 -5.027376,4.36509 -0.148374,0.13187 -0.2872855,0.25349 -0.3086805,0.27026 -0.03793,0.0297 -0.03853,0.016 -0.025191,-0.52932 z M 59.089047,135.5381 c -0.399529,-0.0897 -0.655979,-0.35264 -0.71699,-0.7352 -0.0131,-0.0822 -0.02159,-0.62689 -0.0217,-1.39561 l -1.51e-4,-1.26071 h -0.28112 c -0.272058,0 -0.28275,-0.002 -0.332909,-0.0518 -0.0476,-0.0477 -0.0513,-0.0647 -0.0457,-0.21271 l 0.006,-0.1609 0.325932,-0.0415 c 0.179258,-0.0228 0.33423,-0.0508 0.344379,-0.0623 0.01,-0.0114 0.0545,-0.29534 0.0988,-0.63095 0.0592,-0.44987 0.0895,-0.62152 0.115149,-0.6533 0.0308,-0.0379 0.0625,-0.0441 0.26534,-0.051 l 0.230439,-0.008 v 0.68713 0.68713 h 0.601821 0.601819 v 0.24903 0.24903 h -0.601819 -0.601821 v 1.231 c 0,1.39031 -5.29e-4,1.3845 0.14328,1.51443 0.164301,0.14845 0.43701,0.14893 0.703,10e-4 0.0717,-0.0398 0.150821,-0.0694 0.175861,-0.0658 0.031,0.004 0.0846,0.0657 0.168259,0.19236 l 0.12273,0.1858 -0.0703,0.0594 c -0.0957,0.0809 -0.373039,0.21122 -0.537229,0.25247 -0.198921,0.05 -0.51971,0.0595 -0.69311,0.0206 z m -22.118889,-0.0276 c -0.134022,-0.0208 -0.346472,-0.0641 -0.472123,-0.0963 l -0.22846,-0.0585 v -0.51505 -0.51505 h 0.174922 c 0.2442,0 0.23432,-0.0154 0.277339,0.43311 l 0.01471,0.15294 0.0959,0.0376 c 0.28266,0.11087 0.84218,0.14925 1.08634,0.0745 0.170971,-0.0523 0.258069,-0.0999 0.35502,-0.19403 0.155099,-0.15052 0.204359,-0.32958 0.145929,-0.53056 -0.02641,-0.0905 -0.0549,-0.1345 -0.132059,-0.20317 -0.13366,-0.119 -0.274021,-0.17881 -0.772941,-0.32942 -0.613968,-0.18533 -0.864629,-0.31739 -1.06463,-0.56087 -0.110498,-0.13454 -0.16269,-0.28694 -0.175318,-0.51213 -0.01749,-0.31303 0.0642,-0.52173 0.297209,-0.75812 0.220699,-0.22396 0.478049,-0.34473 0.85608,-0.40171 0.425871,-0.0642 0.7913,-0.0257 1.378511,0.14522 l 0.119319,0.0347 v 0.50696 0.50697 h -0.197141 c -0.265729,0 -0.26521,5.8e-4 -0.29859,-0.34349 -0.01429,-0.14743 -0.036,-0.27424 -0.0483,-0.2818 -0.0433,-0.0267 -0.45176,-0.0803 -0.612489,-0.0803 -0.48623,0 -0.858001,0.2819 -0.803619,0.60934 0.0415,0.25011 0.228328,0.38165 0.756608,0.53282 0.425011,0.12161 0.799312,0.26213 0.947491,0.35571 0.178941,0.11302 0.34547,0.2984 0.4015,0.44695 0.0952,0.25254 0.0692,0.60062 -0.0656,0.87752 -0.0996,0.20472 -0.30973,0.40202 -0.557541,0.5237 -0.299969,0.14729 -0.385858,0.16499 -0.840139,0.17316 -0.306441,0.006 -0.448591,-0.001 -0.637961,-0.0307 z m 3.387669,2.3e-4 c -0.13126,-0.0207 -0.343731,-0.0638 -0.47212,-0.0958 l -0.233471,-0.0582 v -0.51563 -0.51563 h 0.18423 c 0.129489,0 0.191151,0.008 0.207531,0.0281 0.01281,0.0154 0.0331,0.12983 0.0452,0.25422 0.0321,0.3321 0.0199,0.30786 0.180181,0.35857 0.558109,0.17662 1.134229,0.11886 1.39273,-0.13964 0.130241,-0.13023 0.158361,-0.19758 0.15736,-0.3767 -7.93e-4,-0.18084 -0.0295,-0.24804 -0.152122,-0.35881 -0.123968,-0.11201 -0.243128,-0.16453 -0.666848,-0.29392 -0.692041,-0.21133 -0.841761,-0.28005 -1.06481,-0.48871 -0.19318,-0.1807 -0.283422,-0.39766 -0.283422,-0.68144 0,-0.44673 0.328711,-0.843 0.848961,-1.02344 0.15649,-0.0543 0.471511,-0.10029 0.686721,-0.10029 0.270769,0 0.710898,0.0789 1.0532,0.18884 l 0.0674,0.0217 v 0.50683 0.50683 h -0.19318 c -0.12736,0 -0.20596,-0.009 -0.23068,-0.0274 -0.0298,-0.0218 -0.0438,-0.0844 -0.0678,-0.30584 -0.01669,-0.15313 -0.0402,-0.28458 -0.0524,-0.2921 -0.0122,-0.008 -0.11825,-0.0286 -0.23577,-0.0469 -0.50764,-0.0791 -0.816451,-0.0162 -1.04562,0.21303 -0.122161,0.12215 -0.157411,0.23726 -0.122841,0.4011 0.01839,0.0871 0.0421,0.12838 0.114321,0.19802 0.12777,0.12344 0.279681,0.19375 0.65641,0.30386 0.66733,0.19504 0.935138,0.31695 1.145569,0.52147 0.278742,0.2709 0.316849,0.75472 0.094,1.19409 -0.120361,0.23739 -0.48189,0.4996 -0.83046,0.6023 -0.22006,0.0648 -0.83601,0.0761 -1.18231,0.0216 z m 4.34939,0.0177 c -0.732311,-0.11515 -1.2686,-0.54005 -1.50314,-1.19093 -0.09,-0.24962 -0.11634,-0.43699 -0.115991,-0.82124 5.29e-4,-0.498 0.073,-0.79503 0.27989,-1.14728 0.118009,-0.20092 0.398542,-0.4749 0.607639,-0.59342 0.70517,-0.3997 1.768232,-0.35161 2.369302,0.10718 0.423979,0.32363 0.65564,0.7768 0.719939,1.40833 0.0451,0.44314 -0.0314,0.88384 -0.221308,1.27462 -0.22665,0.4664 -0.617802,0.77186 -1.172843,0.91592 -0.158078,0.041 -0.261458,0.0527 -0.519049,0.0587 -0.176929,0.004 -0.376909,-0.001 -0.444439,-0.0118 z m 0.74617,-0.54975 c 0.376119,-0.0966 0.62076,-0.34244 0.75311,-0.75684 0.0885,-0.2773 0.12011,-0.60714 0.0884,-0.9242 -0.0674,-0.67455 -0.343881,-1.07398 -0.833472,-1.20424 -0.178498,-0.0475 -0.582977,-0.0487 -0.760849,-0.002 -0.360399,0.094 -0.62226,0.35069 -0.751588,0.73671 -0.1006,0.3001 -0.130173,0.74874 -0.0728,1.10267 0.0978,0.60307 0.3828,0.94095 0.89148,1.0569 0.139131,0.0317 0.54856,0.0265 0.685649,-0.009 z m 3.589348,0.53845 c -0.597289,-0.13135 -1.093189,-0.59609 -1.293587,-1.21228 -0.144942,-0.44568 -0.143481,-1.13636 0.004,-1.56681 0.278061,-0.8154 0.9941,-1.27232 1.923251,-1.22725 0.2834,0.0137 0.54112,0.0653 0.899099,0.1797 l 0.263041,0.0841 v 0.51804 0.51805 h -0.19394 c -0.25546,0 -0.2594,-0.004 -0.2956,-0.32634 -0.01521,-0.1344 -0.0279,-0.26423 -0.0284,-0.28852 -7.93e-4,-0.0369 -0.0235,-0.0498 -0.139199,-0.0789 -0.218501,-0.0549 -0.581991,-0.0814 -0.752621,-0.055 -0.277019,0.043 -0.541539,0.17888 -0.693449,0.35626 -0.10894,0.12728 -0.231561,0.38132 -0.27659,0.57328 -0.0577,0.24624 -0.0517,0.86674 0.01069,1.09425 0.0711,0.25953 0.179821,0.45853 0.335801,0.61492 0.223589,0.22415 0.446389,0.30932 0.808919,0.30922 0.348649,0 0.572701,-0.0705 0.857692,-0.26947 0.129788,-0.0906 0.164338,-0.10545 0.232579,-0.0998 0.0714,0.006 0.0938,0.0233 0.20407,0.15778 l 0.123929,0.15114 -0.0814,0.0843 c -0.199052,0.20618 -0.47752,0.35891 -0.817851,0.44857 -0.167421,0.0441 -0.254101,0.0531 -0.570929,0.0593 -0.282051,0.006 -0.40913,-4.8e-4 -0.518811,-0.0246 z m 5.561672,0.003 c -0.297741,-0.085 -0.42064,-0.15219 -0.56274,-0.30779 -0.18592,-0.20358 -0.272031,-0.45878 -0.251931,-0.74667 0.01519,-0.21803 0.0794,-0.36678 0.225491,-0.52301 0.0675,-0.0722 0.18233,-0.17005 0.255159,-0.21749 0.409221,-0.26662 1.14523,-0.43702 1.887882,-0.43708 l 0.204948,-2e-5 -0.01,-0.29572 c -0.008,-0.23277 -0.01971,-0.32407 -0.0558,-0.42889 -0.0846,-0.24513 -0.214731,-0.38183 -0.447871,-0.47064 -0.0833,-0.0317 -0.15484,-0.0391 -0.363181,-0.0376 -0.2379,0.002 -0.274018,0.007 -0.4358,0.0678 -0.097,0.0362 -0.27912,0.12387 -0.40468,0.19475 -0.188,0.10614 -0.245269,0.12895 -0.32466,0.12931 -0.0653,3e-4 -0.110138,-0.012 -0.13898,-0.0381 -0.0428,-0.0387 -0.1909,-0.27388 -0.189079,-0.30018 0.0021,-0.0261 0.223001,-0.19186 0.390001,-0.29224 0.40296,-0.24218 0.881599,-0.3566 1.358638,-0.32479 0.627912,0.0419 1.067432,0.36216 1.25458,0.91424 l 0.0563,0.16602 0.01069,1.18257 0.01069,1.18256 0.23786,0.0455 c 0.1646,0.0315 0.2461,0.0568 0.264592,0.0821 0.0173,0.0237 0.0267,0.10514 0.0267,0.23109 v 0.19452 l -0.507889,-0.007 c -0.608002,-0.008 -0.568542,0.0106 -0.635281,-0.29706 -0.02479,-0.11414 -0.0476,-0.21055 -0.0508,-0.21425 -0.004,-0.004 -0.0974,0.0649 -0.209431,0.15245 -0.23278,0.18198 -0.36817,0.25551 -0.63727,0.34611 -0.175069,0.059 -0.216609,0.0646 -0.52225,0.0713 -0.24383,0.005 -0.359598,-6.3e-4 -0.43579,-0.0224 z m 0.972349,-0.50883 c 0.209632,-0.0536 0.40183,-0.15647 0.59446,-0.31813 l 0.155641,-0.13063 0.006,-0.42118 0.006,-0.42118 -0.25464,0.0133 c -0.68335,0.0356 -1.151369,0.15254 -1.414809,0.35348 -0.22765,0.17364 -0.238339,0.59866 -0.02019,0.80316 0.0692,0.0648 0.21943,0.13537 0.345451,0.16216 0.123949,0.0264 0.3938,0.007 0.582819,-0.0409 z m 9.198131,0.51723 c -1.11587,-0.17546 -1.733791,-1.05064 -1.61121,-2.28196 0.0399,-0.39989 0.12191,-0.63974 0.3233,-0.94467 0.401331,-0.60762 1.17969,-0.8988 2.051421,-0.7674 0.66226,0.0998 1.184669,0.48198 1.422339,1.04049 0.18566,0.4363 0.23282,0.98395 0.12845,1.49175 -0.15003,0.73 -0.620631,1.22572 -1.340869,1.41245 -0.168952,0.0438 -0.266912,0.0551 -0.529011,0.0612 -0.176921,0.004 -0.376909,-0.001 -0.44442,-0.0118 z m 0.746159,-0.54976 c 0.315122,-0.0809 0.528341,-0.25611 0.66951,-0.55013 0.10465,-0.21807 0.142182,-0.35998 0.173791,-0.65807 0.0434,-0.40985 -0.028,-0.85447 -0.185451,-1.15411 -0.184849,-0.35177 -0.45448,-0.51982 -0.90079,-0.56144 -0.179509,-0.0167 -0.48423,0.0183 -0.62864,0.0724 -0.258508,0.0967 -0.495509,0.34479 -0.60348,0.63164 -0.0974,0.25875 -0.120258,0.40876 -0.120211,0.78845 0,0.31437 0.006,0.3748 0.054,0.55489 0.0672,0.25114 0.175681,0.46092 0.307991,0.59533 0.11049,0.11231 0.329348,0.231 0.516408,0.28012 0.156152,0.041 0.558692,0.0415 0.716791,9.8e-4 z m -35.76774,0.35573 c 0,-0.2248 0.0163,-0.24445 0.2569,-0.30866 l 0.184271,-0.0492 1.07219,-2.52005 1.0722,-2.52005 0.40517,-0.006 0.40517,-0.006 1.065918,2.51667 c 0.58628,1.38416 1.074881,2.52269 1.0858,2.53006 0.01069,0.007 0.0984,0.0345 0.194432,0.0603 0.219689,0.059 0.234659,0.0785 0.234659,0.30445 v 0.17178 h -0.85086 -0.85085 v -0.18356 c 0,-0.2244 0.006,-0.23124 0.254219,-0.29613 0.0999,-0.0261 0.181542,-0.0573 0.181481,-0.0692 0,-0.012 -0.100589,-0.26458 -0.223309,-0.56134 l -0.22321,-0.53957 h -1.275792 -1.275768 l -0.222742,0.53957 c -0.122499,0.29676 -0.22302,0.5491 -0.223369,0.56075 -2.65e-4,0.0117 0.0838,0.0432 0.186841,0.0701 0.23449,0.0612 0.248348,0.0783 0.248348,0.30763 v 0.17177 h -0.850849 -0.85085 z m 4.025979,-2.04326 c 0,-0.01 -0.219188,-0.55548 -0.487108,-1.21289 -0.267901,-0.65741 -0.49784,-1.23798 -0.510979,-1.29017 -0.0131,-0.0522 -0.0302,-0.0988 -0.0381,-0.10358 -0.007,-0.005 -0.0409,0.0818 -0.0737,0.19231 -0.0328,0.11057 -0.259979,0.68664 -0.504798,1.28016 -0.24483,0.59352 -0.449691,1.09547 -0.455271,1.11545 -0.01,0.0342 0.0493,0.0363 1.029901,0.0363 0.572018,0 1.04005,-0.008 1.04005,-0.0176 z m 17.68112,2.02271 c 0,-0.26752 0.004,-0.2707 0.332042,-0.32995 l 0.2594,-0.0467 0.005,-1.40338 0.006,-1.40337 -0.0469,-0.0107 c -0.0258,-0.006 -0.140218,-0.0268 -0.254367,-0.0464 -0.286891,-0.0493 -0.300911,-0.0639 -0.300911,-0.31417 v -0.19353 h 0.663959 0.663961 l 0.005,1.68579 0.005,1.68578 0.248111,0.0467 c 0.32536,0.0613 0.332951,0.0686 0.332951,0.32287 v 0.19144 l -0.959802,0.005 -0.9598,0.006 z m 9.380122,-2e-4 c 0,-0.26729 0.004,-0.27051 0.332039,-0.32975 l 0.259411,-0.0467 0.005,-1.40338 0.006,-1.40337 -0.0469,-0.0107 c -0.0258,-0.006 -0.138071,-0.0268 -0.249579,-0.0463 -0.125122,-0.0219 -0.222459,-0.0511 -0.25422,-0.076 -0.0483,-0.038 -0.0514,-0.0526 -0.0514,-0.23613 v -0.19564 h 0.66395 0.663959 l 0.005,1.68588 0.005,1.68588 0.248298,0.0449 c 0.325562,0.0588 0.343152,0.0763 0.343152,0.34075 v 0.18561 h -0.964991 -0.964999 z m 6.765309,-0.009 c 0,-0.16883 0.006,-0.21007 0.0363,-0.23632 0.0199,-0.0175 0.150709,-0.0526 0.290539,-0.078 l 0.254211,-0.0463 v -1.40564 -1.40565 l -0.15046,-0.0258 c -0.244451,-0.042 -0.3766,-0.0809 -0.404461,-0.11898 -0.01659,-0.0227 -0.02609,-0.10632 -0.02609,-0.22895 v -0.19318 h 0.55154 0.551529 l 0.0569,0.0571 c 0.0483,0.0485 0.0611,0.0868 0.0842,0.25422 0.015,0.10843 0.0331,0.20374 0.0401,0.21181 0.007,0.008 0.0735,-0.0368 0.147619,-0.0997 0.401421,-0.34074 0.77089,-0.48564 1.23839,-0.48564 0.14097,0 0.297641,0.0134 0.386451,0.0331 0.542221,0.12032 0.904171,0.54387 0.988301,1.15644 0.01339,0.0977 0.0223,0.57456 0.0223,1.19846 0,0.56987 0.004,1.03612 0.007,1.03612 0.0354,0 0.451641,0.0903 0.49656,0.10774 0.0834,0.0324 0.0977,0.0744 0.0977,0.28548 v 0.18843 l -0.669269,-0.006 -0.669282,-0.005 -0.01069,-1.41117 c -0.01191,-1.56598 -0.007,-1.51613 -0.152638,-1.72026 -0.14913,-0.20976 -0.377881,-0.31016 -0.708192,-0.31081 -0.373279,-7.4e-4 -0.69822,0.13513 -1.014518,0.42421 l -0.11647,0.10646 v 1.17601 1.176 l 0.212709,0.0382 c 0.3698,0.0665 0.395169,0.0905 0.384739,0.36396 l -0.006,0.15735 -0.959811,0.006 -0.959789,0.005 z m -15.387968,-4.53507 c -0.200562,-0.0941 -0.311452,-0.25091 -0.310222,-0.43858 0.0021,-0.3652 0.394589,-0.6137 0.725422,-0.45964 0.250108,0.11647 0.377028,0.39026 0.281328,0.6069 -0.126359,0.28606 -0.433771,0.41464 -0.696528,0.29132 z m 9.379339,1e-5 c -0.33818,-0.15748 -0.412182,-0.54597 -0.15148,-0.7954 0.268539,-0.25695 0.68861,-0.16735 0.845849,0.18041 0.02331,0.0514 0.0425,0.12032 0.0427,0.15324 0.0021,0.2547 -0.262962,0.51044 -0.528741,0.51044 -0.0653,0 -0.142492,-0.018 -0.208309,-0.0487 z m -25.70116,-1.71439 c 0,-0.19593 0.004,-0.20881 0.0501,-0.23984 0.0276,-0.018 0.158261,-0.0526 0.290521,-0.0769 l 0.24049,-0.0441 v -2.07004 -2.07004 l -0.119322,-0.0239 c -0.282358,-0.0565 -0.389678,-0.0863 -0.424569,-0.11788 -0.0307,-0.0278 -0.0371,-0.0675 -0.0371,-0.22757 v -0.19393 h 0.55915 c 0.692001,0 0.653071,-0.0174 0.697042,0.31136 0.01601,0.11981 0.0295,0.2355 0.0298,0.2571 5.29e-4,0.0285 0.0507,-0.009 0.183041,-0.13655 0.39033,-0.37628 0.797111,-0.53302 1.32161,-0.50925 0.40916,0.0185 0.67251,0.12407 0.93975,0.37658 0.319611,0.30199 0.495681,0.74883 0.543711,1.37987 0.0595,0.78192 -0.162981,1.45397 -0.620091,1.87312 -0.344379,0.31578 -0.738159,0.45138 -1.23635,0.42573 -0.40132,-0.0207 -0.740641,-0.14242 -0.972299,-0.34889 L 37.22435,127.5157 v 0.58133 c 0,0.53566 0.004,0.58219 0.0364,0.59224 0.02,0.006 0.134379,0.0302 0.254219,0.0539 0.291741,0.0576 0.311291,0.0785 0.311291,0.33344 v 0.18562 H 36.861269 35.89628 Z m 2.722579,-1.6798 c 0.392181,-0.12446 0.653089,-0.44715 0.75638,-0.93549 0.0464,-0.21912 0.0518,-0.76503 0.01,-0.99612 -0.122229,-0.67513 -0.49358,-1.00165 -1.102421,-0.96931 -0.35012,0.0186 -0.628441,0.15129 -0.907931,0.43289 l -0.150458,0.1516 v 0.95859 0.95859 l 0.122608,0.1226 c 0.137592,0.1376 0.349861,0.2591 0.534112,0.30575 0.17404,0.0441 0.554479,0.0291 0.737719,-0.0291 z m -6.33352,0.60686 c -0.171561,-0.0176 -0.51885,-0.0983 -0.711861,-0.16549 -0.835049,-0.29066 -1.407938,-0.86606 -1.684128,-1.69147 -0.11288,-0.33729 -0.14463,-0.55319 -0.14463,-0.98242 0,-0.42797 0.0319,-0.64522 0.143288,-0.97836 0.281011,-0.83991 0.880131,-1.43784 1.720713,-1.71732 0.353909,-0.11766 0.545798,-0.14491 1.029409,-0.14614 0.504859,-10e-4 0.680079,0.0226 1.055658,0.14403 0.964462,0.31179 1.61812,1.05188 1.823723,2.06484 0.0555,0.27354 0.0495,0.95123 -0.01069,1.25661 -0.240188,1.20905 -1.114049,2.01631 -2.380527,2.19909 -0.186283,0.0269 -0.650661,0.0361 -0.840481,0.0166 z m 0.821201,-0.68228 c 1.138248,-0.20331 1.76883,-1.19307 1.606018,-2.52082 -0.0669,-0.54613 -0.32485,-1.0817 -0.652618,-1.35527 -0.42558,-0.35522 -1.070711,-0.52533 -1.7101,-0.45094 -1.090369,0.12687 -1.743671,0.86458 -1.801231,2.03395 -0.0469,0.95297 0.33025,1.7137 1.033431,2.08455 0.440521,0.23234 0.9789,0.30598 1.5245,0.20853 z m 28.78958,0.66536 c -0.37057,-0.0704 -0.650441,-0.2519 -0.840941,-0.54535 -0.0932,-0.14356 -0.14578,-0.26893 -0.19784,-0.47165 -0.0397,-0.15461 -0.0433,-0.24264 -0.0525,-1.28146 -0.006,-0.6135 -0.01069,-1.11555 -0.01291,-1.11567 -0.0011,-1.2e-4 -0.11503,-0.023 -0.252021,-0.051 -0.31468,-0.0641 -0.32167,-0.0712 -0.32167,-0.32467 v -0.18447 h 0.662871 0.662869 l 0.007,1.37485 c 0.008,1.49886 0.006,1.46577 0.13117,1.69587 0.107752,0.19795 0.289991,0.31165 0.56904,0.35502 0.40976,0.0637 0.831511,-0.08 1.173151,-0.39956 l 0.134261,-0.12559 v -1.1681 -1.16811 l -0.253731,-0.0473 c -0.335811,-0.0626 -0.348091,-0.0742 -0.348091,-0.32937 v -0.18772 h 0.663951 0.663959 l 0.005,1.68492 0.005,1.68492 0.145269,0.0268 c 0.456362,0.0842 0.44617,0.0762 0.44617,0.3492 v 0.19715 h -0.527839 c -0.2903,0 -0.551301,-0.009 -0.579979,-0.0198 -0.0813,-0.0309 -0.1167,-0.10619 -0.148612,-0.31571 -0.01619,-0.10651 -0.0296,-0.2016 -0.0298,-0.2113 -1.98e-4,-0.01 -0.0532,0.0306 -0.117779,0.0896 -0.246322,0.22512 -0.574011,0.40343 -0.858009,0.46685 -0.21903,0.0489 -0.536192,0.0583 -0.729361,0.0216 z m -19.504322,-0.004 c -0.877448,-0.13804 -1.457438,-0.7208 -1.610389,-1.6181 -0.0521,-0.30618 -0.0325,-0.80681 0.0418,-1.05554 0.161041,-0.54054 0.473602,-0.92592 0.935763,-1.15376 0.331247,-0.1633 0.4694,-0.1923 0.923488,-0.19385 0.34063,-0.001 0.402651,0.004 0.549939,0.0463 0.742043,0.21276 1.17602,0.80776 1.181251,1.61952 0.0011,0.24488 -5.29e-4,0.25766 -0.0474,0.29572 -0.0473,0.0383 -0.100359,0.0398 -1.46825,0.0398 h -1.419249 v 0.13577 c 0,0.28894 0.0977,0.60375 0.25654,0.82629 0.159639,0.22371 0.31273,0.34116 0.57422,0.44057 0.147939,0.0562 0.17103,0.0589 0.50777,0.0594 0.346038,4.5e-4 0.356579,-8.2e-4 0.54991,-0.068 0.108469,-0.0377 0.28584,-0.11373 0.39429,-0.16903 0.108469,-0.0553 0.213619,-0.10581 0.233688,-0.11223 0.0437,-0.014 0.138012,0.0189 0.169341,0.059 0.01241,0.0158 0.0636,0.0812 0.11384,0.14534 l 0.0914,0.11663 -0.0706,0.0731 c -0.220991,0.22852 -0.634852,0.41383 -1.105821,0.49516 -0.1684,0.0291 -0.66072,0.0401 -0.801431,0.018 z m 1.369661,-2.54694 c 0,-0.19173 -0.116221,-0.50665 -0.242379,-0.65653 -0.0832,-0.0988 -0.28271,-0.22141 -0.44096,-0.27091 -0.18863,-0.059 -0.581711,-0.0649 -0.75896,-0.0113 -0.279972,0.0845 -0.491271,0.25065 -0.634572,0.49889 -0.0591,0.10238 -0.145468,0.34647 -0.171418,0.48445 l -0.0127,0.0674 h 1.130491 1.130487 z m 9.328251,2.5459 c -0.27663,-0.0262 -0.831149,-0.14239 -1.110261,-0.23257 l -0.11408,-0.0369 -0.006,-0.69833 -0.006,-0.69833 0.24412,3.2e-4 c 0.134268,1.7e-4 0.254389,0.007 0.266949,0.0156 0.0599,0.04 0.0789,0.14418 0.122941,0.67379 l 0.01339,0.16047 0.159102,0.0499 c 0.425238,0.13343 0.512098,0.14794 0.885428,0.14792 0.272,-1e-5 0.383691,-0.008 0.48768,-0.0366 0.211262,-0.0573 0.38063,-0.15283 0.508532,-0.28691 0.19209,-0.2014 0.271608,-0.43041 0.25486,-0.73402 -0.0231,-0.42056 -0.285832,-0.63785 -1.05433,-0.87234 -0.8523,-0.26006 -0.976191,-0.30886 -1.216063,-0.47895 -0.330599,-0.23444 -0.497969,-0.54686 -0.538358,-1.00495 -0.0518,-0.58791 0.284081,-1.15399 0.850461,-1.43314 0.34934,-0.17219 0.462788,-0.19415 0.99776,-0.19314 0.376618,7.2e-4 0.499948,0.009 0.70444,0.0461 0.237479,0.0433 0.535768,0.12225 0.779359,0.20627 l 0.11408,0.0394 v 0.64134 0.64135 l -0.186769,0.006 c -0.23491,0.008 -0.314233,-0.007 -0.351491,-0.0643 -0.0186,-0.0289 -0.0403,-0.17436 -0.0591,-0.39541 -0.02,-0.23675 -0.0382,-0.35505 -0.0564,-0.3663 -0.0382,-0.0236 -0.412168,-0.0985 -0.6329,-0.1268 -0.22956,-0.0294 -0.60308,-0.0124 -0.75747,0.0345 -0.34386,0.10444 -0.557509,0.31027 -0.63468,0.61146 -0.0963,0.37565 0.0721,0.67833 0.49258,0.88568 0.0971,0.0479 0.43534,0.17225 0.751642,0.27635 0.34576,0.1138 0.655428,0.22971 0.77656,0.29066 0.526769,0.26507 0.772178,0.65133 0.771078,1.21365 -0.0011,0.89485 -0.5724,1.5416 -1.501008,1.70117 -0.171532,0.0295 -0.72168,0.0391 -0.957072,0.0168 z m 4.553209,-0.007 c -0.66992,-0.0711 -1.203799,-0.41774 -1.484979,-0.9642 -0.17316,-0.33654 -0.222729,-0.57345 -0.22129,-1.05768 0.0011,-0.49404 0.0724,-0.79045 0.270719,-1.13013 0.0878,-0.15048 0.315582,-0.40173 0.46079,-0.50832 0.14958,-0.10981 0.41724,-0.23491 0.62851,-0.29378 0.257591,-0.0718 0.77806,-0.0922 1.067282,-0.0419 0.474739,0.0826 0.878528,0.31051 1.141518,0.64434 0.562981,0.71464 0.556421,1.99991 -0.01381,2.7041 -0.14827,0.18311 -0.330579,0.32451 -0.5705,0.44249 -0.382979,0.18834 -0.80214,0.25558 -1.278229,0.20506 z m 0.614161,-0.54868 c 0.37337,-0.0787 0.62534,-0.30402 0.770059,-0.68851 0.0934,-0.2481 0.118021,-0.40749 0.118021,-0.76393 0,-0.22959 -0.01069,-0.37761 -0.0333,-0.47971 -0.0995,-0.44122 -0.297579,-0.73948 -0.584988,-0.88086 -0.32208,-0.15843 -0.849702,-0.16431 -1.179862,-0.0132 -0.144579,0.0662 -0.3384,0.24985 -0.4342,0.41144 -0.290679,0.4903 -0.29269,1.43597 -0.004,1.9169 0.165171,0.27521 0.37914,0.42217 0.725752,0.49848 0.167939,0.037 0.445579,0.0367 0.622578,-6.4e-4 z m 11.9775,0.55065 c -0.152681,-0.0279 -0.38444,-0.10219 -0.500851,-0.16062 -0.46087,-0.23133 -0.806368,-0.68348 -0.94801,-1.24065 -0.0597,-0.23479 -0.0761,-0.79921 -0.0309,-1.05838 0.120499,-0.68968 0.500369,-1.18992 1.079749,-1.42191 0.28376,-0.11362 0.40256,-0.13296 0.8221,-0.13378 0.365379,-7.1e-4 0.396441,0.003 0.643321,0.0657 0.142679,0.0366 0.338788,0.0934 0.435808,0.1264 l 0.176401,0.0599 0.006,0.52413 0.006,0.52414 -0.1968,-0.007 c -0.144629,-0.005 -0.205518,-0.0159 -0.229658,-0.0401 -0.02291,-0.0229 -0.042,-0.11713 -0.0633,-0.31128 -0.01669,-0.15312 -0.034,-0.28853 -0.0385,-0.30091 -0.01781,-0.0492 -0.34766,-0.10001 -0.6554,-0.10103 -0.32163,-10e-4 -0.40776,0.0165 -0.63282,0.12932 -0.152791,0.0765 -0.36396,0.29811 -0.44356,0.46538 -0.125611,0.26393 -0.154721,0.41937 -0.15666,0.83624 -0.0021,0.44595 0.0282,0.60986 0.16465,0.89406 0.0978,0.20362 0.252841,0.38186 0.414499,0.47659 0.41397,0.24261 1.065292,0.18796 1.47012,-0.12335 0.21222,-0.16318 0.280771,-0.15321 0.44481,0.0647 l 0.11789,0.15659 -0.113599,0.10462 c -0.229491,0.21143 -0.511611,0.35514 -0.846611,0.43126 -0.204099,0.0464 -0.757798,0.0704 -0.92384,0.0401 z m 3.98376,-0.012 c -0.825299,-0.16398 -1.369571,-0.73329 -1.5152,-1.58491 -0.0436,-0.25501 -0.0439,-0.69961 -7.94e-4,-0.90906 0.15345,-0.74294 0.634518,-1.26487 1.347258,-1.46168 0.142471,-0.0393 0.220491,-0.046 0.549942,-0.0472 0.34063,-0.001 0.40264,0.004 0.549939,0.0463 0.259199,0.0743 0.48736,0.19696 0.65482,0.35201 0.34068,0.31541 0.50586,0.70131 0.532101,1.24303 0.0122,0.25112 0.01191,0.25246 -0.0416,0.3061 l -0.0539,0.0539 h -1.42249 -1.42248 l 2.01e-4,0.11933 c 2.65e-4,0.27542 0.0882,0.59234 0.21848,0.7886 0.16718,0.25182 0.34063,0.39213 0.61146,0.49468 0.148519,0.0562 0.17181,0.059 0.50845,0.0594 0.346019,4.5e-4 0.35656,-8.2e-4 0.549878,-0.068 0.108471,-0.0377 0.285851,-0.11373 0.394311,-0.16903 0.244819,-0.12483 0.255522,-0.12817 0.326311,-0.10202 0.0536,0.0198 0.239818,0.22505 0.26589,0.293 0.02379,0.0619 -0.212611,0.24414 -0.504542,0.38905 -0.181099,0.0899 -0.406889,0.15746 -0.667628,0.19979 -0.22175,0.036 -0.69156,0.0343 -0.88043,-0.003 z m 1.460449,-2.52849 c 0,-0.19174 -0.11622,-0.50665 -0.242379,-0.65654 -0.0832,-0.0988 -0.282721,-0.22141 -0.440949,-0.2709 -0.18864,-0.059 -0.581732,-0.0649 -0.758971,-0.0113 -0.434681,0.13124 -0.68589,0.4402 -0.807932,0.99371 l -0.01249,0.0571 h 1.131401 1.131408 z m -30.75519,2.30284 c 0,-0.25054 0.008,-0.25803 0.33946,-0.31186 l 0.241621,-0.0393 v -1.40757 c 0,-0.77417 -0.0021,-1.40781 -0.005,-1.4081 -0.0021,-2.9e-4 -0.1148,-0.0221 -0.24883,-0.0485 -0.321641,-0.0633 -0.32706,-0.0686 -0.32706,-0.31738 v -0.19394 l 0.555131,6.6e-4 c 0.40363,4.8e-4 0.56411,0.007 0.588049,0.0259 0.0529,0.0406 0.0748,0.0982 0.100471,0.26394 0.0434,0.28044 0.0313,0.26515 0.135188,0.16935 0.247661,-0.22828 0.556671,-0.40328 0.853192,-0.48319 0.220728,-0.0595 0.65991,-0.0646 0.86011,-0.0101 0.242779,0.0661 0.391689,0.15137 0.56257,0.32195 0.124518,0.12431 0.175609,0.1949 0.24179,0.33402 0.160189,0.33678 0.15717,0.30786 0.165809,1.58871 l 0.007,1.14254 0.242589,0.046 c 0.137832,0.0261 0.26498,0.0624 0.29446,0.084 0.0482,0.0354 0.0523,0.052 0.0579,0.23821 l 0.006,0.20016 h -0.664831 -0.66483 l -2.64e-4,-1.22958 c -2.12e-4,-0.67627 -0.01,-1.3152 -0.0204,-1.41985 -0.0541,-0.51349 -0.296637,-0.75916 -0.780049,-0.79015 -0.39954,-0.0256 -0.785839,0.12737 -1.103239,0.43693 l -0.108939,0.10626 v 1.16804 c 0,0.64242 0.004,1.16804 0.007,1.16804 0.0336,0 0.45059,0.0899 0.493069,0.10629 0.0768,0.0297 0.101312,0.0994 0.101312,0.28898 v 0.16504 h -0.964991 -0.964999 v -0.19564 z m 20.46196,0.002 c 0,-0.16271 0.006,-0.19955 0.0385,-0.22886 0.02281,-0.0206 0.139768,-0.054 0.285348,-0.0814 l 0.246742,-0.0464 0.005,-1.40563 c 0.0021,-0.77309 0.0021,-1.40586 0,-1.40615 -0.0021,-2.9e-4 -0.115031,-0.0221 -0.248971,-0.0485 -0.32163,-0.0633 -0.327059,-0.0686 -0.327059,-0.31738 v -0.19394 h 0.567481 c 0.641509,0 0.616519,-0.006 0.65401,0.16636 0.01069,0.0512 0.0267,0.19577 0.0347,0.32133 0.008,0.12555 0.02109,0.24059 0.0292,0.25564 0.01,0.0181 0.0425,-0.0205 0.0962,-0.11348 0.10823,-0.18723 0.396689,-0.4766 0.558699,-0.56038 0.23005,-0.11898 0.328271,-0.14175 0.612201,-0.14194 0.26017,-1.6e-4 0.411689,0.0297 0.531839,0.10476 l 0.0442,0.0276 -0.0488,0.27616 c -0.0268,0.15188 -0.049,0.27827 -0.0493,0.28086 -2.65e-4,0.002 -0.0227,0.0192 -0.0498,0.037 -0.045,0.0295 -0.0656,0.0286 -0.23844,-0.01 -0.328618,-0.0732 -0.60597,-0.0477 -0.841809,0.0773 -0.164269,0.0871 -0.381629,0.31897 -0.484349,0.51666 l -0.0879,0.16919 v 0.9829 0.98289 l 0.25087,0.0448 c 0.327207,0.0585 0.3302,0.0613 0.3302,0.31055 v 0.19393 h -0.954622 -0.95462 v -0.19393 z m -35.20661,-7.34834 c -0.25237,-0.0344 -0.404659,-0.073 -0.404659,-0.10244 0,-0.0602 0.0453,-0.38345 0.0634,-0.45148 0.0316,-0.11936 0.104169,-0.13883 0.339259,-0.091 0.225549,0.0459 0.539541,0.0517 0.697259,0.0129 0.288301,-0.0709 0.522031,-0.25586 0.641631,-0.50776 0.141099,-0.29717 0.134231,-0.19363 0.14161,-2.13468 l 0.007,-1.7582 -0.0474,-0.0104 c -0.02601,-0.006 -0.158731,-0.029 -0.294859,-0.0517 -0.14963,-0.025 -0.26039,-0.0542 -0.280152,-0.0739 -0.02529,-0.0252 -0.0327,-0.0784 -0.0327,-0.23427 v -0.20164 h 1.02725 1.02725 l 0.006,0.17952 c 0.008,0.25656 -0.01,0.27389 -0.343202,0.33424 l -0.25422,0.0459 v 1.65068 c 0,0.99976 -0.008,1.71736 -0.02119,1.81978 -0.097,0.77384 -0.482722,1.27556 -1.15131,1.49769 -0.32017,0.10637 -0.707811,0.13286 -1.12064,0.0766 z m 16.74726,0.009 c -0.53826,-0.081 -0.873879,-0.38212 -0.94551,-0.84846 -0.126539,-0.82374 0.68987,-1.33906 2.22698,-1.40571 l 0.326861,-0.0142 -2.65e-4,-0.25103 c -2.64e-4,-0.25727 -0.033,-0.45567 -0.0957,-0.57892 -0.166261,-0.32754 -0.557371,-0.47321 -1.01428,-0.37777 -0.18416,0.0385 -0.362889,0.11344 -0.61114,0.25637 -0.20628,0.11876 -0.332531,0.15159 -0.41443,0.10776 -0.0582,-0.0312 -0.23681,-0.30506 -0.21835,-0.33495 0.007,-0.0123 0.0894,-0.0784 0.181631,-0.1468 0.209309,-0.15519 0.574048,-0.33417 0.792538,-0.38891 0.387372,-0.097 0.887842,-0.0972 1.17765,-5e-4 0.343091,0.11454 0.62094,0.3495 0.762572,0.64487 0.148849,0.31042 0.15041,0.32594 0.16048,1.59772 l 0.008,1.1337 0.169539,0.0337 c 0.0932,0.0185 0.19054,0.0336 0.21622,0.0336 0.02561,-1e-5 0.0654,0.0187 0.0882,0.0415 0.0357,0.0357 0.0415,0.0692 0.0415,0.23968 v 0.19818 l -0.510291,-0.006 c -0.597139,-0.007 -0.56246,0.007 -0.619869,-0.26006 -0.0611,-0.28467 -0.0366,-0.27407 -0.24987,-0.10802 -0.2442,0.19014 -0.393562,0.27326 -0.629732,0.35043 -0.27954,0.0914 -0.589679,0.12224 -0.843698,0.084 z m 0.667771,-0.49839 c 0.31908,-0.0518 0.544748,-0.16245 0.79638,-0.39052 l 0.14418,-0.13069 v -0.39289 -0.39292 l -0.2646,4e-4 c -0.599201,7.4e-4 -1.188701,0.14719 -1.422471,0.35297 -0.238509,0.20994 -0.240041,0.59896 -0.004,0.80693 0.16311,0.1432 0.438862,0.19718 0.749702,0.14673 z m -12.675272,0.46738 c -0.480478,-0.0908 -0.921938,-0.35651 -1.170048,-0.7042 -0.121002,-0.16957 -0.2482,-0.43854 -0.304922,-0.6448 -0.0404,-0.14738 -0.0458,-0.21842 -0.0469,-0.63295 -0.0011,-0.42387 0.0021,-0.48288 0.0461,-0.63994 0.152551,-0.55793 0.490821,-0.96784 0.98842,-1.19774 0.495192,-0.2288 1.18758,-0.25383 1.734391,-0.0627 0.417719,0.146 0.781461,0.45977 0.975649,0.84163 0.13073,0.25704 0.206801,0.57789 0.22267,0.93924 0.0465,1.05989 -0.462269,1.82288 -1.37546,2.06247 -0.174479,0.0458 -0.26104,0.0553 -0.559228,0.0615 -0.247661,0.005 -0.399823,-0.002 -0.51063,-0.0225 z m 0.848482,-0.54204 c 0.503111,-0.13104 0.793239,-0.59205 0.82781,-1.31539 0.035,-0.72962 -0.209899,-1.29843 -0.642641,-1.49341 -0.1806,-0.0814 -0.311841,-0.10453 -0.59232,-0.10453 -0.40045,0 -0.596239,0.0713 -0.82341,0.29973 -0.170148,0.17112 -0.236771,0.28684 -0.309391,0.53745 -0.11122,0.38369 -0.115628,0.83717 -0.0122,1.23807 0.129212,0.50068 0.448482,0.78934 0.965271,0.8727 0.13439,0.0217 0.439931,0.004 0.586881,-0.0346 z m 6.73875,0.54237 c -0.598311,-0.13171 -0.999019,-0.58738 -1.151372,-1.30924 -0.0609,-0.28841 -0.0772,-0.78205 -0.035,-1.05695 0.0807,-0.5246 0.264681,-0.8905 0.61246,-1.21768 0.410671,-0.38633 1.014,-0.53216 1.612199,-0.3897 0.15871,0.0378 0.421182,0.17167 0.564761,0.28805 l 0.12971,0.10514 v -0.79849 -0.7985 l -0.0467,-0.0105 c -0.0258,-0.006 -0.15766,-0.029 -0.29328,-0.0515 -0.154149,-0.0256 -0.261102,-0.0541 -0.28534,-0.0761 -0.0329,-0.0297 -0.0388,-0.0663 -0.0388,-0.23939 v -0.20431 h 0.6952 0.695211 v 2.58329 2.58329 l 0.0467,0.01 c 0.0258,0.005 0.1441,0.0291 0.26315,0.0525 0.119091,0.0233 0.233449,0.0578 0.254219,0.0766 0.0316,0.0286 0.0378,0.0673 0.0378,0.23848 v 0.20431 h -0.551529 -0.55154 l -0.057,-0.0571 c -0.0487,-0.0488 -0.0609,-0.0857 -0.0832,-0.25422 -0.0431,-0.32489 -0.0316,-0.31071 -0.155051,-0.19193 -0.4011,0.3859 -0.791721,0.54699 -1.3169,0.54307 -0.1217,-9e-4 -0.277299,-0.014 -0.345771,-0.0291 z m 0.913108,-0.55422 c 0.24293,-0.0517 0.543661,-0.23881 0.737291,-0.4588 l 0.0824,-0.0937 v -0.96461 -0.96462 l -0.13356,-0.12494 c -0.148389,-0.1388 -0.32699,-0.23533 -0.530518,-0.28672 -0.199322,-0.0503 -0.56279,-0.0312 -0.754963,0.0397 -0.359978,0.13287 -0.58107,0.39569 -0.701619,0.83411 -0.0407,0.14772 -0.0456,0.21636 -0.0456,0.62258 0,0.40766 0.005,0.47433 0.0461,0.62257 0.118851,0.42885 0.32693,0.67263 0.646869,0.75778 0.208431,0.0555 0.442921,0.0614 0.653722,0.0166 z m -5.592799,0.35571 c 0,-0.24989 0.01871,-0.26974 0.301961,-0.31941 0.113599,-0.0199 0.22756,-0.0411 0.253309,-0.047 l 0.0468,-0.0107 -0.005,-1.40277 -0.005,-1.40277 -0.0831,-0.0158 c -0.338431,-0.0644 -0.4362,-0.0902 -0.47027,-0.1243 -0.0316,-0.0317 -0.0382,-0.0716 -0.0382,-0.23531 v -0.19715 h 0.538221 c 0.296011,0 0.561589,0.009 0.59018,0.0198 0.0285,0.0109 0.0636,0.0412 0.0778,0.0674 0.02339,0.0434 0.0767,0.48519 0.0794,0.65867 l 7.94e-4,0.0714 0.0722,-0.12002 c 0.240991,-0.40021 0.530011,-0.63901 0.884921,-0.73113 0.189489,-0.0492 0.50877,-0.0442 0.68254,0.0106 0.228309,0.072 0.220998,0.0565 0.167338,0.35723 -0.0667,0.37381 -0.0753,0.38165 -0.347929,0.31771 -0.101309,-0.0238 -0.209349,-0.0309 -0.38122,-0.025 -0.225679,0.008 -0.249489,0.0127 -0.402669,0.0855 -0.203822,0.0968 -0.396362,0.28678 -0.52999,0.52298 l -0.0934,0.16507 -0.006,0.98959 -0.006,0.98958 0.109551,0.0218 c 0.0603,0.012 0.174242,0.0326 0.253331,0.0459 0.213331,0.0358 0.240109,0.0701 0.240109,0.30813 v 0.18772 h -0.965006 -0.964991 v -0.18772 z m 12.472249,-0.0193 c 0,-0.2435 0.007,-0.25255 0.228272,-0.29024 0.0742,-0.0126 0.183989,-0.0327 0.243988,-0.0445 l 0.109062,-0.0215 -0.006,-1.40362 -0.005,-1.4036 -0.248698,-0.0487 c -0.136781,-0.0268 -0.265181,-0.0636 -0.28535,-0.0819 -0.0303,-0.0275 -0.0366,-0.0686 -0.0366,-0.23748 v -0.20431 h 0.53022 c 0.58072,0 0.626808,0.008 0.66912,0.11835 0.0123,0.0319 0.0338,0.13976 0.0477,0.23963 0.014,0.0999 0.0303,0.18159 0.036,0.18159 0.006,0 0.0627,-0.0452 0.12637,-0.10034 0.377481,-0.32723 0.72908,-0.47545 1.17548,-0.49553 0.76635,-0.0345 1.26346,0.32991 1.435769,1.05242 0.02601,0.10924 0.0345,0.34759 0.0446,1.25365 l 0.01241,1.11876 0.249039,0.048 c 0.32615,0.0628 0.342411,0.079 0.342411,0.34085 v 0.18562 h -0.67445 -0.674462 l -2.73e-4,-1.3541 c -2.51e-4,-1.13501 -0.005,-1.37564 -0.0317,-1.48719 -0.0617,-0.26157 -0.19716,-0.43412 -0.422069,-0.53746 -0.0983,-0.0452 -0.154109,-0.055 -0.355819,-0.0623 -0.425461,-0.0155 -0.73438,0.10618 -1.07818,0.42447 l -0.124931,0.11567 v 1.16509 1.16509 l 0.26325,0.0506 c 0.17368,0.0334 0.276029,0.0634 0.300831,0.0882 0.031,0.031 0.0376,0.0721 0.0376,0.23473 v 0.19715 h -0.954613 -0.954609 v -0.20705 z" id="path10007" inkscape:connector-curvature="0"/>
  </g>
</svg>