<?xml version="1.0" encoding="UTF-8" standalone="no"?>
<!-- Created with Inkscape (http://www.inkscape.org/) -->

<svg
   xmlns:dc="http://purl.org/dc/elements/1.1/"
   xmlns:cc="http://creativecommons.org/ns#"
   xmlns:rdf="http://www.w3.org/1999/02/22-rdf-syntax-ns#"
   xmlns:svg="http://www.w3.org/2000/svg"
   xmlns="http://www.w3.org/2000/svg"
   xmlns:sodipodi="http://sodipodi.sourceforge.net/DTD/sodipodi-0.dtd"
   xmlns:inkscape="http://www.inkscape.org/namespaces/inkscape"
   version="1.1"
   id="svg8897"
   width="1133.76"
   height="377.28"
   viewBox="0 0 1133.76 377.28"
   sodipodi:docname="josa-logo.svg"
   inkscape:version="0.92.2 (unknown)">
  <metadata
     id="metadata8903">
    <rdf:RDF>
      <cc:Work
         rdf:about="">
        <dc:format>image/svg+xml</dc:format>
        <dc:type
           rdf:resource="http://purl.org/dc/dcmitype/StillImage" />
        <dc:title></dc:title>
      </cc:Work>
    </rdf:RDF>
  </metadata>
  <defs
     id="defs8901" />
  <sodipodi:namedview
     pagecolor="#ffffff"
     bordercolor="#666666"
     borderopacity="1"
     objecttolerance="10"
     gridtolerance="10"
     guidetolerance="10"
     inkscape:pageopacity="0"
     inkscape:pageshadow="2"
     inkscape:window-width="2560"
     inkscape:window-height="1392"
     id="namedview8899"
     showgrid="false"
     inkscape:zoom="0.64815213"
     inkscape:cx="512.13803"
     inkscape:cy="219.05433"
     inkscape:window-x="0"
     inkscape:window-y="48"
     inkscape:window-maximized="1"
     inkscape:current-layer="svg8897" />
  <path
     style="fill:#019ec3;stroke-width:0.31999999;fill-opacity:1"
     d="M 188.50195 1.0039062 C 188.47836 0.99582162 188.45958 0.99931504 188.44531 1.0136719 C 187.79818 1.6649209 181.09346 17.108871 162.8457 59.992188 C 147.02204 97.178697 145.20185 101.3353 143.79102 103.47266 C 143.76174 103.51702 122.0765 98.163212 95.603516 91.576172 C 43.632927 78.644782 35.223948 76.593641 34.798828 76.738281 C 34.481881 76.846121 35.232224 78.254307 54.921875 114.5918 C 80.636099 162.04771 87.474922 174.9859 87.210938 175.67383 C 86.891803 176.50548 71.978965 188.2712 45.392578 208.66602 C 17.090269 230.37716 -0.46624203 244.36825 0.009765625 244.83398 C 0.18403873 245.00449 45.284414 253.13562 92.251953 261.46484 C 101.74536 263.1484 109.56977 264.58344 109.63867 264.65234 C 109.70757 264.72123 109.60587 274.25671 109.41211 285.84375 C 108.72381 327.00346 108.13312 359.83597 107.92383 368.66406 C 107.71749 377.36784 107.72897 377.60367 108.30859 377.14453 C 108.63649 376.88482 112.0011 373.93359 115.78711 370.58594 C 125.12938 362.3253 135.84627 352.93652 149.23242 341.28516 C 176.96985 317.14236 192.47087 303.87109 192.93555 303.87109 C 193.58779 303.87109 217.34427 323.31526 267.15234 364.61523 L 279.15234 374.56445 L 279.36133 372.25781 C 279.7027 368.51042 279.22202 355.74209 276.89453 306.75195 C 276.10436 290.11995 275.35288 273.61107 275.22461 270.06445 L 274.99219 263.61523 L 271.79102 267.32422 C 261.02395 279.80435 249.83964 288.72511 236.75195 295.26953 C 231.84822 297.72161 227.88498 299.15369 226.40234 299.00977 C 225.53122 298.92521 225.25016 298.64838 224.36328 296.99219 C 220.56731 289.90338 202.97602 242.06805 200.92578 233.25977 C 200.81066 232.76519 200.74696 232.34761 200.74609 231.98047 A 31.757063 31.757063 0 0 0 224.60938 201.24609 A 31.757063 31.757063 0 0 0 192.85156 169.48828 A 31.757063 31.757063 0 0 0 190.06055 169.63477 C 189.22566 169.69849 188.39247 169.80038 187.56445 169.9375 A 31.757063 31.757063 0 0 0 187.28906 169.98828 C 186.30917 170.16033 185.33561 170.37017 184.375 170.64258 A 31.757063 31.757063 0 0 0 184.25977 170.67969 C 183.56795 170.87895 182.88439 171.11116 182.20703 171.36133 A 31.757063 31.757063 0 0 0 161.0957 201.24609 A 31.757063 31.757063 0 0 0 183.60742 231.61914 C 183.61201 231.64684 183.63086 231.68151 183.63086 231.70703 C 183.63086 234.89534 166.71007 281.99718 160.98633 294.74023 C 159.31537 298.46037 158.83436 299.07227 157.58594 299.07227 C 155.3144 299.07227 147.72529 295.82106 141.50391 292.18359 C 133.45112 287.47533 126.97007 282.45478 120.26758 275.73047 C 111.30202 266.73571 105.27012 258.16699 99.490234 246.21875 C 94.546247 235.99848 91.354927 225.36019 89.693359 213.55273 C 88.998114 208.61218 88.727867 195.85346 89.208984 190.73633 C 90.429857 177.7512 93.867382 165.37527 99.621094 153.26367 C 104.49433 143.00549 111.10575 133.80287 119.9375 124.98633 C 138.00522 106.94969 158.17772 97.370057 182.63281 95.210938 C 188.87571 94.659757 202.4436 94.986346 207.80078 95.816406 C 228.2271 98.981336 244.70553 107.0412 260.91602 121.79688 C 276.46282 135.9484 286.7542 153.40408 292.23047 174.91211 C 294.43747 183.58027 294.50281 184.25753 294.50781 198.75195 C 294.51072 207.63164 294.37617 212.95835 294.09375 215.23242 C 293.01191 223.9435 290.47442 233.36611 287.14453 241.03516 C 286.31401 242.94791 283.78057 248.13676 281.51367 252.56641 C 279.24677 256.99606 277.39258 260.84324 277.39258 261.11719 C 277.39258 261.71083 275.88987 261.96119 291.79102 258.73047 C 328.05841 251.36186 383.16078 239.79149 384.39844 239.28516 C 385.19927 238.95754 378.99471 234.32747 340.5918 206.5918 C 304.00299 180.16633 294.67187 173.23087 294.67188 172.4668 C 294.67188 172.18564 305.9078 149.58151 319.64062 122.23438 C 333.37343 94.887213 344.43386 72.511719 344.21875 72.511719 C 343.60582 72.511719 327.09492 76.983723 295.79102 85.626953 C 253.73317 97.239433 237.2168 101.55956 236.26758 101.19531 C 235.37319 100.8521 227.04103 83.503402 212.27344 51.232422 C 194.57257 12.551474 189.23347 1.2545315 188.50195 1.0039062 z "
     id="path8907" />
  <path
     style="fill:#333333;stroke-width:0.31999999"
     d="m 628.43165,27.392579 v 3.15039 c 0,3.90042 0.12366,4.04569 4.0332,4.70703 1.56528,0.26478 3.60334,0.63117 4.52734,0.81446 l 1.67969,0.33203 v 12.29687 12.29688 l -2,-1.6211 c -2.21387,-1.79451 -6.26182,-3.86054 -8.70899,-4.44335 -8.32595,-1.98292 -17.45594,-0.17763 -23.33789,4.61328 -5.65379,4.60506 -8.94703,10.20295 -10.65039,18.10742 -0.88698,4.11598 -0.79494,13.67567 0.17578,18.20117 2.43338,11.344571 8.5253,18.309631 17.80079,20.351561 1.056,0.23247 3.45552,0.43327 5.33203,0.44727 8.0983,0.0604 14.12165,-2.42438 20.30664,-8.375 1.90372,-1.83158 1.72678,-2.04881 2.39062,2.96094 0.34432,2.59831 0.53163,3.16778 1.28321,3.91992 l 0.8789,0.8789 h 8.50391 8.50586 v -3.15039 c 0,-2.63979 -0.0942,-3.23428 -0.58203,-3.67578 -0.32022,-0.28979 -2.08414,-0.82156 -3.91993,-1.18164 -1.83577,-0.36008 -3.66259,-0.72379 -4.05859,-0.80859 l -0.7207,-0.1543 V 67.226569 27.392579 h -10.71875 z m -193.75977,2.71875 v 3.10938 c -10e-6,2.40259 0.11473,3.22471 0.50391,3.61328 0.30458,0.30406 2.01282,0.75363 4.32031,1.13867 2.09898,0.35025 4.14326,0.70909 4.54492,0.79687 l 0.73047,0.16016 -0.10156,27.11133 c -0.095,24.95968 -0.14952,27.26363 -0.67774,29.03125 -2.96772,9.931101 -10.55535,13.875811 -22.15234,11.515621 -3.62506,-0.73776 -4.74365,-0.43815 -5.23047,1.40235 -0.279,1.05487 -0.97852,6.03428 -0.97852,6.9707 0,0.43422 3.53428,1.29902 6.91602,1.69141 3.69269,0.42848 9.16976,0.36638 12.05469,-0.13672 12.82659,-2.23677 20.60187,-10.6952 22.30273,-24.259771 0.19805,-1.5794 0.32813,-12.64437 0.32813,-28.06054 v -25.45313 l 3.91992,-0.70703 c 5.14902,-0.93053 5.42247,-1.19818 5.29101,-5.1543 l -0.0918,-2.76953 h -15.83985 z m 258.60351,24.02539 c -3.23453,10e-4 -6.65601,0.3749 -9.64257,1.12305 -3.36912,0.84399 -8.99322,3.60502 -12.22071,5.99805 -1.42288,1.055 -2.67786,2.06146 -2.78711,2.23828 -0.10928,0.17682 0.32711,1.20409 0.96875,2.28125 2.34457,3.93584 3.69669,4.14974 8.56446,1.36133 3.40442,-1.95016 6.43292,-3.3051 8.83398,-3.95313 1.8568,-0.50111 7.78471,-0.51918 9.43946,-0.0293 2.49682,0.7392 4.71962,2.35576 6.13085,4.46094 1.73943,2.59484 2.34961,5.26023 2.34961,10.26953 v 3.80664 l -5.04101,0.21875 c -23.70211,1.0278 -36.29089,8.97391 -34.33985,21.675781 1.10333,7.18297 6.32843,11.87608 14.57227,13.0879 h 0.002 c 3.95606,0.58153 8.71342,0.10575 13.01758,-1.30079 3.63315,-1.18725 5.93363,-2.46387 9.70899,-5.38867 3.28755,-2.54688 2.91786,-2.70686 3.85351,1.65039 0.88666,4.12903 0.3271,3.89789 9.71875,4.00977 l 8.0293,0.0957 -0.004,-2.17578 c -0.002,-2.83761 -0.47983,-4.52931 -1.37695,-4.87695 -0.38534,-0.14931 -2.09313,-0.51645 -3.79492,-0.81446 l -3.09375,-0.54101 -0.13868,-17.492191 c -0.15539,-19.62148 -0.17921,-19.85963 -2.4746,-24.64648 -2.184,-4.55453 -6.46934,-8.17712 -11.75977,-9.94336 -2.2344,-0.74576 -5.28109,-1.11664 -8.51563,-1.11524 z m -113.53124,0.05274 c -1.93101,-0.03 -3.89252,0.1403 -5.35352,0.51953 -5.4725,1.42047 -9.92846,5.10429 -13.64453,11.27539 l -1.11524,1.84961 -0.0156,-1.10156 c -0.0418,-2.67493 -0.86337,-9.48778 -1.22461,-10.15625 -0.2186,-0.40442 -0.75845,-0.87149 -1.19922,-1.03907 -0.44077,-0.16757 -4.53702,-0.30468 -9.10156,-0.30468 h -8.29883 v 3.03906 c 0,4.21105 -0.13174,4.10875 6.88086,5.36719 l 2.24023,0.40234 0.082,21.64062 0.082,21.640631 -0.72266,0.16602 c -0.39725,0.0913 -2.15515,0.41744 -3.90625,0.7246 -4.36678,0.76599 -4.65625,1.07054 -4.65625,4.92383 v 2.89453 h 14.88086 14.88086 v -2.89453 c 0,-3.85329 -0.28947,-4.15784 -4.65625,-4.92383 -1.75111,-0.30716 -3.51316,-0.63436 -3.91406,-0.72656 l -0.72852,-0.16797 0.0898,-15.246091 0.0879,-15.24805 1.43945,-2.54492 c 2.0606,-3.64225 5.03089,-6.57188 8.17383,-8.06445 2.36214,-1.12178 2.72911,-1.19935 6.20898,-1.31836 2.65033,-0.0906 4.31487,0.0184 5.87695,0.38476 4.20445,0.98601 4.33692,0.86566 5.36524,-4.89843 0.82739,-4.63789 0.94034,-4.39891 -2.58008,-5.50977 -1.33971,-0.42274 -3.24086,-0.65359 -5.17187,-0.68359 z m 194.18945,0.15039 c -2.85084,-0.0263 -5.92117,0.23415 -7.74219,0.73828 -4.10202,1.1356 -8.55421,3.64032 -12.40234,6.97656 -1.01357,0.87873 -1.89519,1.54055 -1.95899,1.46875 -0.0638,-0.0718 -0.28447,-1.35556 -0.49023,-2.85156 -0.20573,-1.496 -0.53289,-3.12294 -0.72656,-3.61524 -0.66896,-1.70044 -1.37334,-1.82421 -10.32618,-1.82421 h -8.17578 v 3.15039 c 0,2.6204 0.0959,3.23695 0.57227,3.66797 0.31721,0.2871 2.27988,0.8545 4.40039,1.27148 l 3.82812,0.75195 0.082,21.63672 0.082,21.634771 -1.68164,0.33203 c -0.92525,0.1825 -2.61968,0.49058 -3.76368,0.68555 -3.41018,0.58118 -3.51953,0.72181 -3.51953,4.47656 v 3.1914 h 14.72071 14.71875 v -2.97851 c 0,-1.96021 -0.14431,-3.17507 -0.42188,-3.55469 -0.29497,-0.40341 -1.66483,-0.83965 -4.55859,-1.44726 l -4.13867,-0.86719 -0.082,-17.939461 -0.084,-17.9375 1.92969,-1.78711 c 5.30425,-4.91079 10.06522,-6.78509 16.62695,-6.54687 3.1103,0.11292 3.9717,0.26222 5.48828,0.95898 3.46809,1.59334 5.55709,4.25572 6.50781,8.28907 0.40548,1.72022 0.48429,5.43009 0.48829,22.93164 l 0.006,20.878901 h 10.39844 10.40039 v -2.86132 c 0,-4.03756 -0.24988,-4.28695 -5.27929,-5.25586 l -3.83985,-0.74024 -0.1914,-17.250001 c -0.20662,-18.58624 -0.25564,-19.13451 -2.02735,-23.5 -2.55357,-6.29191 -7.64335,-10.47406 -14.26172,-11.7168 -1.23653,-0.23218 -2.86761,-0.35143 -4.57812,-0.36718 z m -273.13867,0.0059 c -6.38016,0.19916 -12.64985,1.97486 -17.52735,5.28711 -5.38842,3.6592 -9.47024,9.69874 -11.22851,16.61328 -0.44794,1.76171 -0.55388,3.58222 -0.54688,9.38672 0.008,6.43441 0.083,7.47198 0.7168,9.75976 0.88329,3.18873 2.84646,7.334031 4.70703,9.941411 3.82576,5.3613 10.63202,9.45891 18.04102,10.85937 1.7086,0.32301 4.05599,0.42706 7.875,0.34766 6.37926,-0.13267 10.07052,-0.91995 14.38281,-3.06641 5.6081,-2.79143 9.30889,-6.47948 12.04492,-12.00195 2.17885,-4.397881 3.16676,-8.445761 3.39648,-13.919921 0.32954,-7.85302 -1.12665,-14.45331 -4.4375,-20.10156 -1.58208,-2.69895 -6.34746,-7.31035 -9.23242,-8.9336 -5.32096,-2.99389 -11.81124,-4.37103 -18.1914,-4.17187 z m 123.38476,8.25586 c 1.59166,0.004 3.09941,0.14452 4.25196,0.43554 3.13837,0.79245 5.89162,2.28152 8.17968,4.42188 l 2.06055,1.92578 v 14.94531 14.94336 l -2.16016,2.132811 c -1.188,1.17282 -2.66329,2.51207 -3.27929,2.97657 -1.54675,1.16636 -5.27712,2.86023 -7.20118,3.26953 -3.25043,0.69146 -6.86625,0.59947 -10.08007,-0.25586 -4.93574,-1.31361 -8.15323,-5.08442 -9.96875,-11.683601 -0.62558,-2.27369 -0.70494,-3.3489 -0.71094,-9.60156 -0.006,-6.28315 0.0696,-7.31483 0.69922,-9.59961 1.86435,-6.76495 5.27013,-10.81286 10.82031,-12.86133 1.85207,-0.68357 4.7359,-1.05576 7.38867,-1.04882 z m -122.01172,0.31054 c 9.18086,0 14.31155,3.63265 17.15235,12.14453 1.25475,3.75965 1.71791,7.65165 1.48633,12.4961 -0.53312,11.15381 -5.0078,18.262551 -12.76563,20.283201 -2.26588,0.59018 -6.97645,0.8675 -9.04883,0.5332 -9.77424,-1.57673 -14.6181,-7.46448 -15.87304,-19.296871 -0.62602,-5.90245 0.59809,-13.48414 2.85156,-17.66016 1.43645,-2.66191 4.31456,-5.47505 6.89844,-6.74218 2.84484,-1.39509 4.76621,-1.75782 9.29882,-1.75782 z m 202.74414,25.91992 v 6.05079 6.052731 l -2.16015,1.98047 c -2.83274,2.59747 -5.94749,4.41608 -9.15821,5.34961 v 0.002 c -1.596,0.46404 -3.77796,0.80903 -5.64257,0.89453 -7.19923,0.3301 -11.36237,-2.56447 -11.76563,-8.18164 -0.38528,-5.366791 3.25126,-8.569671 12.14844,-10.701171 4.19146,-1.00415 8.06396,-1.44036 12.81836,-1.44336 z M 459.79102,146.29102 c -7.45718,0.0191 -10.41577,0.4395 -15.87305,2.25391 -14.75962,4.90723 -24.63466,16.15065 -28.02343,31.90625 -1.01741,4.73032 -1.01741,14.58999 0,19.32031 3.35443,15.59594 12.81656,26.4681 27.48046,31.57226 2.97619,1.03595 8.33119,2.2798 10.97657,2.55078 2.56086,0.26233 9.72893,0.19378 12.05664,-0.11523 20.10064,-2.66839 33.85913,-15.1247 37.60937,-34.05078 0.93876,-4.73756 1.03444,-15.18738 0.17774,-19.37695 -3.20023,-15.65055 -13.25323,-27.03213 -28.125,-31.83985 -5.79149,-1.87227 -8.49431,-2.2406 -16.2793,-2.2207 z m 326.88086,0.0234 c -8.25654,-0.0156 -9.99691,0.32296 -15.41211,2.99218 -8.72983,4.30304 -13.88846,13.00778 -13.08789,22.08594 0.62292,7.0637 3.205,11.88117 8.30273,15.4961 3.76128,2.66721 5.3084,3.27658 18.75,7.38281 11.89814,3.63472 15.94522,7.02577 16.27149,13.63672 0.37117,7.52131 -3.82535,13.26652 -11.2168,15.35937 -2.29959,0.65112 -3.36357,0.75181 -8.08789,0.75781 -4.70669,0.006 -5.82853,-0.0962 -8.32031,-0.75 -4.53578,-1.19018 -7.83985,-2.28512 -7.83985,-2.5996 0,-1.17449 -0.72783,-8.8282 -0.9746,-10.24415 -0.1712,-0.9823 -0.54634,-1.9369 -0.84766,-2.16015 -0.36032,-0.267 -1.79705,-0.40039 -4.32227,-0.40039 h -3.7832 l 0.084,10.76953 0.084,10.76758 1.75976,0.56836 c 4.32602,1.39764 12.99524,3.21656 17.1211,3.59179 3.80774,0.34629 12.43263,0.18897 14.92383,-0.27148 14.42538,-2.66626 23.01933,-12.55044 22.99023,-26.44531 -0.0134,-6.43734 -2.30788,-11.51558 -6.95508,-15.39454 -2.96771,-2.47708 -7.26741,-4.40508 -16.91992,-7.58203 -4.87728,-1.60527 -10.09452,-3.52137 -11.5918,-4.25976 -6.48358,-3.19741 -9.07768,-7.8658 -7.59375,-13.65821 1.18983,-4.64427 4.48282,-7.81728 9.78516,-9.42773 2.38061,-0.72305 8.13988,-0.98636 11.67969,-0.5332 3.40362,0.43572 9.17038,1.59083 9.75976,1.95508 0.2807,0.1735 0.56262,1.99775 0.8711,5.64843 0.28803,3.40852 0.62254,5.65197 0.91015,6.09766 0.57447,0.8902 1.79769,1.11425 5.41993,0.99219 l 2.88085,-0.0977 v -9.88867 -9.89063 l -1.76171,-0.60547 c -3.75613,-1.29552 -8.35572,-2.51392 -12.01758,-3.18164 -3.15325,-0.57498 -5.05382,-0.69993 -10.86133,-0.71093 z m -326.90039,10.20312 c 2.90924,0.001 5.8522,0.19645 7.80469,0.58399 9.87488,1.96001 16.6068,6.95937 20.70507,15.3789 2.65024,5.44469 3.83008,11.18326 3.83008,18.6211 0,17.22099 -9.56306,29.51693 -25.09765,32.26953 -15.68925,2.78001 -29.77806,-3.49559 -35.87305,-15.97852 -3.40899,-6.98186 -4.53359,-17.01211 -2.87695,-25.64453 2.55859,-13.33241 10.84557,-21.87923 23.90429,-24.65234 1.81819,-0.38603 4.69429,-0.57926 7.60352,-0.57813 z m 91.77539,14.60742 c -7.49311,0.002 -13.64107,2.64259 -19.2793,8.25 -1.78899,1.7792 -2.39825,2.2246 -2.40625,1.75977 -0.006,-0.34232 -0.21187,-2.13509 -0.45898,-3.98242 -0.67801,-5.06926 -0.0777,-4.80078 -10.74805,-4.80078 h -8.62305 v 2.99023 c 0,2.46776 0.10123,3.08172 0.57422,3.50977 0.53815,0.487 2.19312,0.94716 6.54688,1.81836 l 1.83984,0.36718 v 31.91407 31.91211 l -3.9707,0.7246 c -2.67846,0.48954 -4.13401,0.91033 -4.47852,1.29102 -0.39334,0.43463 -0.51172,1.27398 -0.51172,3.6582 v 3.09571 h 14.88086 14.87891 v -2.86329 c 0,-3.93089 -0.30088,-4.25547 -4.79883,-5.15039 -1.848,-0.36768 -3.61192,-0.73942 -3.91992,-0.82812 -0.5162,-0.14866 -0.56055,-0.86455 -0.56055,-9.12695 v -8.96289 l 1.80664,1.61132 c 3.57203,3.18372 8.80598,5.06034 14.99414,5.37891 7.68211,0.39548 13.75415,-1.69512 19.06446,-6.56445 7.06188,-6.47546 10.53664,-17.02101 9.5625,-29.01758 -0.78861,-9.71155 -3.48631,-16.51424 -8.38477,-21.14258 -4.12093,-3.89371 -8.18298,-5.52071 -14.49219,-5.80664 -0.51175,-0.0232 -1.01608,-0.0353 -1.51562,-0.0352 z m 452.56442,0.10938 c -4.378,0.003 -5.892,0.35478 -9.43942,2.18945 -2.49527,1.29051 -6.94666,5.75406 -8.61133,8.63477 -0.7728,1.33737 -1.3406,2.02169 -1.48437,1.78906 -0.12804,-0.20718 -0.33067,-2.05022 -0.45118,-4.0957 -0.24256,-4.11637 -0.62088,-5.99712 -1.37304,-6.83985 -0.45296,-0.5075 -1.32002,-0.56054 -9.25,-0.56054 h -8.75 v 3.01757 c 0,2.80839 0.0521,3.05909 0.77148,3.625 0.46102,0.36264 2.04421,0.83578 3.92188,1.17383 1.73097,0.31164 3.39973,0.6337 3.70898,0.7168 0.5303,0.14246 0.55797,1.38159 0.48047,21.80469 l -0.084,21.65234 -3.80469,0.71484 c -2.24487,0.4227 -4.04727,0.93806 -4.39844,1.25586 -0.49937,0.45191 -0.5957,1.02036 -0.5957,3.5293 v 2.99023 h 14.71875 14.7207 v -2.99023 c 0,-3.84381 -0.0463,-3.88765 -5.0918,-4.78906 l -3.86718,-0.69141 v -15.15625 -15.15625 l 1.35546,-2.60742 c 1.58375,-3.04839 4.93377,-6.62383 7.4668,-7.9668 3.63657,-1.92807 7.91343,-2.32206 12.98053,-1.19336 2.6643,0.59345 2.9846,0.60643 3.6777,0.15235 0.4174,-0.2735 0.7637,-0.52846 0.7637,-0.56836 0,-0.0399 0.3452,-1.94442 0.7636,-4.23242 0.5004,-2.7378 0.6568,-4.29159 0.4532,-4.54297 -0.1702,-0.21009 -1.2707,-0.71323 -2.4453,-1.11914 -1.7893,-0.61826 -2.786,-0.73834 -6.1368,-0.73633 z m -313.71286,0.0215 c -2.50437,0.0294 -5.04819,0.27773 -6.75,0.73633 -4.57226,1.2321 -9.33746,3.93115 -13.15625,7.45117 -1.60253,1.47716 -1.41377,1.71296 -2.08398,-2.61133 -0.396,-2.55528 -0.73421,-3.44486 -1.54883,-4.07031 -0.36918,-0.28344 -2.84436,-0.39339 -9.06836,-0.40039 l -8.55859,-0.01 v 2.99023 c 0,3.83675 0.0834,3.91845 5.04296,4.89453 2.06622,0.40665 3.79194,0.74405 3.83594,0.74805 0.044,0.004 0.0801,9.77141 0.0801,21.70508 v 21.69726 l -3.71484,0.60352 c -5.10938,0.83018 -5.24414,0.95504 -5.24414,4.82422 v 3.01757 h 14.8789 14.88086 v -2.54492 c 0,-2.92264 -0.37783,-3.99708 -1.5625,-4.45508 -0.65507,-0.25324 -7.08193,-1.64062 -7.60156,-1.64062 -0.0635,0 -0.11719,-8.10376 -0.11719,-18.00977 v -18.01171 l 1.68164,-1.63868 c 4.89414,-4.77335 10.8507,-7.13134 17.01172,-6.73632 7.51728,0.48197 11.24815,4.31667 12.03125,12.36328 0.16455,1.69096 0.3046,11.53304 0.3086,21.87304 l 0.008,18.80078 h 10.25195 10.25 l -0.0898,-3.08593 c -0.0852,-2.87097 -0.14845,-3.12812 -0.89258,-3.67383 -0.45456,-0.33335 -2.41567,-0.89202 -4.54102,-1.29492 l -3.74023,-0.70899 -0.11914,-17.61914 c -0.13325,-19.75056 -0.0865,-19.30491 -2.55664,-24.49804 -1.02035,-2.14519 -1.80836,-3.23349 -3.72852,-5.15039 -2.63472,-2.63023 -4.93002,-3.94284 -8.67383,-4.9629 -1.54343,-0.42052 -4.0093,-0.61141 -6.51367,-0.58203 z m 160.15039,0.16602 c -3.76251,-0.0179 -7.85938,0.30067 -10.0625,0.88867 -5.45661,1.45634 -9.37578,3.69668 -13.17773,7.5332 -4.09981,4.13707 -6.55625,8.75621 -7.7461,14.56641 -0.61565,3.00628 -0.69646,12.39857 -0.13281,15.38281 0.93331,4.94153 3.29461,10.16824 6.20508,13.73633 4.28819,5.25713 11.64987,8.99308 19.52734,9.91016 7.1857,0.83656 13.98725,-0.23965 19.91016,-3.15235 5.67501,-2.7908 9.24413,-6.36382 12.00391,-12.01562 1.87731,-3.84458 2.74168,-7.05309 3.25781,-12.08008 0.92934,-9.05088 -1.44873,-18.32679 -6.26758,-24.44336 -4.03913,-5.12684 -10.27694,-8.64455 -17.58594,-9.91602 -1.53642,-0.26728 -3.67414,-0.39939 -5.93164,-0.41015 z m 195.48247,0.14258 c -6.4691,0.0126 -8.3003,0.31044 -12.6758,2.0625 -8.9231,3.57297 -14.8028,11.28598 -16.6348,21.82422 -0.7812,4.49359 -0.4859,12.80102 0.6016,16.90039 1.422,5.36041 3.6641,9.45427 7.25,13.23828 3.8411,4.05332 8.5405,6.60524 14.2597,7.74414 3.1393,0.62514 11.2324,0.36911 14.9375,-0.47266 5.1657,-1.17366 9.5161,-3.3902 13.0547,-6.65039 l 1.75,-1.61328 -1.8164,-2.41406 c -2.5295,-3.3607 -3.587,-3.51439 -6.8594,-0.99805 -6.2352,4.79466 -16.2851,5.64159 -22.6523,1.91016 -2.4569,-1.43983 -4.9201,-4.27154 -6.418,-7.38282 -2.0947,-4.35086 -2.5613,-6.89043 -2.5293,-13.76171 0.03,-6.42811 0.4792,-8.82486 2.416,-12.89454 1.2276,-2.57931 4.4839,-5.99533 6.8399,-7.17578 3.4704,-1.73883 4.7983,-2.01034 9.7578,-1.99414 4.7452,0.0155 9.8315,0.80047 10.1055,1.5586 0.069,0.19094 0.3361,2.2776 0.5937,4.63867 0.3267,2.99378 0.6233,4.4471 0.9766,4.80078 0.3723,0.37269 1.3109,0.53754 3.541,0.61914 l 3.0352,0.10938 -0.086,-8.08204 -0.088,-8.08203 -2.7187,-0.92383 c -1.496,-0.50838 -4.5207,-1.38568 -6.7207,-1.94921 -3.8068,-0.97515 -4.2858,-1.02272 -9.9199,-1.01172 z m -431.35942,0.008 c -7.00198,0.0238 -9.13258,0.47021 -14.24023,2.98828 -7.12704,3.51363 -11.94886,9.4599 -14.42774,17.79102 -0.72035,2.42101 -0.88299,3.68228 -1.01367,7.91211 -0.0944,3.05575 -0.006,6.0714 0.22461,7.67968 0.44483,3.10217 2.18697,8.54971 3.54883,11.09766 4.18681,7.83327 11.8468,13.02991 21.42773,14.53711 0.44,0.0692 2.74509,0.14662 5.12109,0.16992 8.48115,0.0832 15.45486,-1.8082 21.50977,-5.83203 2.2264,-1.47956 3.83736,-3.08413 3.63281,-3.61719 -0.39468,-1.02854 -3.30343,-4.24366 -4.11328,-4.54687 -1.09066,-0.40834 -1.25333,-0.35793 -5.03125,1.56836 -1.67236,0.85272 -4.40844,2.02661 -6.08008,2.60742 -2.98103,1.03577 -3.1428,1.05583 -8.47851,1.04883 -5.19261,-0.007 -5.54887,-0.0488 -7.83008,-0.91602 -4.03219,-1.53282 -6.39199,-3.34341 -8.85352,-6.79297 -2.44867,-3.4315 -3.95703,-8.28675 -3.95703,-12.74219 v -2.09375 h 21.88477 c 21.09191,0 21.91253,-0.0221 22.64062,-0.61328 0.72308,-0.58687 0.75477,-0.7845 0.73047,-4.56054 -0.0805,-12.51715 -6.77266,-21.69199 -18.21484,-24.97266 -2.27133,-0.65127 -3.22803,-0.73079 -8.48047,-0.71289 z m 492.15822,0 c -5.0783,0.0173 -6.282,0.12001 -8.4785,0.72656 -10.9903,3.03488 -18.4072,11.08306 -20.7735,22.53906 -0.6685,3.23516 -0.663,10.08761 0.012,14.01758 2.3473,13.67547 11.2877,22.60261 24.7598,24.72266 2.0072,0.31512 9.7022,0.16882 12.1738,-0.23242 3.2518,-0.52788 7.0671,-1.56524 9.1583,-2.49024 4.3501,-1.92428 9.3035,-5.58309 8.9179,-6.58789 -0.4024,-1.04868 -3.2753,-4.21424 -4.1015,-4.51953 -1.0915,-0.40336 -1.2561,-0.35264 -5.0313,1.57227 -1.6724,0.85272 -4.4085,2.02428 -6.0801,2.60351 -2.9543,1.02368 -3.186,1.05354 -8.3183,1.06055 -5.7088,0.008 -6.8199,-0.21121 -10.5742,-2.08789 -6.0448,-3.02151 -10.2137,-10.61668 -10.2247,-18.625 v -1.83985 h 21.9356 21.9336 l 0.832,-0.83007 c 0.827,-0.82704 0.8281,-0.84849 0.6406,-4.72071 -0.4045,-8.35322 -2.9518,-14.30237 -8.205,-19.16601 -2.5823,-2.3908 -6.0988,-4.28371 -10.0957,-5.42969 -2.271,-0.65117 -3.2283,-0.73076 -8.4786,-0.71289 z m -221.75783,0.7793 v 2.8457 c 0,3.90901 0.10669,4.01725 4.95898,5.00586 2.112,0.43031 3.86248,0.78315 3.88868,0.78516 0.0264,0.002 0.11536,7.74312 0.19726,17.20312 0.13888,16.05129 0.19292,17.37074 0.8086,19.75977 0.80643,3.12916 1.6174,5.06239 3.05273,7.27343 2.93721,4.52455 7.25118,7.32302 12.9668,8.41016 3.12819,0.595 8.64677,0.38283 11.82226,-0.45313 4.38861,-1.15533 8.81268,-3.60943 12.46875,-6.91796 1.09756,-0.99325 1.9961,-1.72112 1.9961,-1.61719 0,0.10392 0.22038,1.66394 0.49023,3.4668 0.4009,2.67852 0.63655,3.4244 1.28711,4.07812 l 0.79492,0.80078 8.63281,0.0937 8.63477,0.0957 v -3.05468 c 0,-4.22683 0.15952,-4.10209 -6.88086,-5.40039 l -2.24023,-0.41211 -0.082,-25.98047 -0.082,-25.98242 H 937.54883 927.3125 v 2.89453 c 0,3.93438 0.18914,4.1149 5.36719,5.08008 l 3.91211,0.72851 v 18.01172 18.01172 l -2.07031,1.9375 c -5.26809,4.92804 -11.77154,7.14204 -18.08984,6.16016 -4.30299,-0.6687 -7.11412,-2.4223 -8.7754,-5.47461 -1.93112,-3.54808 -1.89051,-3.03628 -2.02148,-26.14844 l -0.12109,-21.20117 h -10.22071 z m -270.91602,6.84765 c 0.94285,-0.008 1.91566,0.0429 2.91602,0.15039 3.6273,0.38994 6.06811,1.29871 8.58203,3.19727 3.14202,2.37291 5.18385,6.47263 5.5625,11.16601 l 0.1875,2.31836 h -17.47851 -17.47852 l 0.19531,-1.03906 c 0.40016,-2.12762 1.73321,-5.89198 2.64453,-7.4707 3.11971,-5.40421 8.26918,-8.26736 14.86914,-8.32227 z m 492.86135,0.0664 c 2.2194,0.0334 4.4634,0.28333 5.918,0.73828 2.44,0.76322 5.517,2.65441 6.7988,4.17773 1.9448,2.31124 3.7363,7.16846 3.7363,10.125 v 1.72461 h -17.3945 -17.3965 l 0.3027,-1.67968 c 0.4319,-2.39146 1.856,-5.89786 3.2422,-7.98633 2.2142,-3.33587 4.9037,-5.28532 9.0215,-6.53711 1.3574,-0.41265 3.5521,-0.59587 5.7715,-0.5625 z m -559.06642,0.45703 c 4.26358,-0.002 7.6877,1.19558 10.32226,3.61133 3.7624,3.44991 5.61318,8.60624 6.04297,16.83594 0.7186,13.76035 -4.40846,22.76927 -14.125,24.81836 -2.7807,0.5864 -7.07715,0.5758 -9.55273,-0.0234 -2.80589,-0.67924 -6.09735,-2.55436 -8.23633,-4.69336 l -1.89063,-1.89063 v -14.78711 -14.78906 l 2.32032,-2.30664 c 4.74374,-4.71895 9.32695,-6.77339 15.11914,-6.77539 z m 301.41211,0.004 c 1.89081,-0.0379 3.77931,0.11248 5.46875,0.46875 8.95082,1.88759 13.73828,9.69316 13.73828,22.39648 0,4.77498 -0.48183,7.93166 -1.73828,11.39453 -2.25082,6.20349 -6.13472,9.76505 -12,11.00196 -2.72934,0.57563 -7.01007,0.5796 -9.59961,0.01 -5.34477,-1.17661 -8.6445,-3.44179 -11.19141,-7.68555 -4.45062,-7.41584 -4.4198,-21.9982 0.0625,-29.55859 1.47718,-2.49158 4.46594,-5.32311 6.69531,-6.34375 2.25516,-1.03245 5.41312,-1.62033 8.56446,-1.68359 z m -84.17579,82.58789 c -4.24022,-0.16228 -8.2456,3.23257 -8.24804,7.79687 -0.002,3.00363 1.6149,5.29843 4.76562,6.76563 4.06816,1.89442 8.79788,-0.0835 10.7461,-4.49414 1.47559,-3.34063 -0.48129,-7.56149 -4.33789,-9.35743 -0.95726,-0.44578 -1.94728,-0.67348 -2.92579,-0.71093 z m 144.12305,0.0195 c -1.87304,0.0548 -3.75376,0.78959 -5.30664,2.27539 -4.01978,3.84609 -2.87878,9.83732 2.33594,12.26562 1.01488,0.47259 2.20374,0.75 3.21094,0.75 4.09811,0 8.18409,-3.94365 8.15429,-7.87109 -0.004,-0.50758 -0.30013,-1.57128 -0.6582,-2.36328 -1.51539,-3.35156 -4.6146,-5.1479 -7.73633,-5.05664 z m -441.62891,1.52539 -6.2539,0.0859 -6.25391,0.0859 -16.46484,38.72071 c -9.05552,21.296 -16.60403,38.81218 -16.77539,38.92578 -0.17139,0.1136 -1.52324,0.53372 -3.00391,0.93164 -3.38759,0.91032 -3.61719,1.20853 -3.61719,4.69336 v 2.64844 h 13.11914 13.11915 v -2.64844 c 0,-3.53571 -0.2121,-3.79877 -3.82813,-4.74219 -1.58976,-0.41475 -2.88586,-0.90228 -2.88086,-1.08203 0.005,-0.17971 1.55437,-4.07049 3.44336,-8.64649 l 3.43555,-8.32031 h 19.67187 19.67188 l 3.4414,8.32031 c 1.89309,4.57601 3.44336,8.47158 3.44336,8.65626 8e-4,0.18466 -1.25687,0.66397 -2.79687,1.0664 -3.8294,1.00064 -3.91992,1.10619 -3.91992,4.56641 v 2.83008 h 13.11914 13.11914 v -2.64844 c 0,-3.48483 -0.2296,-3.78304 -3.61719,-4.69336 -1.48067,-0.39793 -2.83027,-0.81804 -2.99805,-0.93164 -0.16778,-0.1136 -7.701,-17.66812 -16.74023,-39.01172 z m 399.79102,5.38281 -3.55469,0.1211 c -3.12387,0.10691 -3.6181,0.20062 -4.08984,0.7832 -0.39478,0.48754 -0.85601,3.10785 -1.74609,9.91406 -0.66541,5.08811 -1.32453,9.46649 -1.46485,9.73047 -0.18576,0.3495 -1.63693,0.65503 -5.33984,1.12109 l -5.08594,0.64063 -0.0937,2.48047 c -0.086,2.28252 -0.028,2.54428 0.70703,3.27929 0.77328,0.77323 0.93751,0.79883 5.13281,0.79883 h 4.33399 l 0.002,19.44141 c 10e-4,11.85341 0.13172,20.25127 0.33399,21.51953 0.94042,5.89725 5.06248,10.10342 11.15234,11.38086 2.59693,0.54476 7.67369,0.37179 10.5918,-0.36133 2.53219,-0.63616 6.80927,-2.64705 8.28515,-3.89453 l 1.08399,-0.91602 -1.88477,-2.86523 c -1.30093,-1.97747 -2.10335,-2.89514 -2.59375,-2.96484 -0.39075,-0.0555 -1.61545,0.40007 -2.7207,1.01367 -5.74464,3.18922 -11.63605,1.68164 -12.6875,-3.24805 -0.24548,-1.15079 -0.36133,-7.70717 -0.36133,-20.40039 v -18.70508 h 9.2793 9.27929 v -3.83984 -3.83985 h -9.27929 -9.2793 v -10.5957 z m -406.06445,6.32031 c 0.12397,0.0766 0.39113,0.79696 0.59375,1.60157 0.2026,0.8046 3.74786,9.75735 7.8789,19.89453 4.13107,10.13717 7.51172,18.55196 7.51172,18.70117 0,0.14922 -7.21855,0.27148 -16.03906,0.27148 -15.12042,0 -16.02768,-0.0306 -15.87891,-0.55859 0.0868,-0.308 3.25757,-8.06109 7.04493,-17.22852 3.78739,-9.16743 7.28467,-18.05196 7.77343,-19.74414 0.48877,-1.69217 0.99127,-3.0141 1.11524,-2.9375 z m 353.0625,12.38086 c -1.49069,-0.0246 -3.04305,0.0491 -4.65235,0.22266 -5.72605,0.61742 -10.02269,2.03501 -14.71875,4.85742 -2.85613,1.71658 -5.99091,4.12028 -6.01172,4.60938 -0.0273,0.63795 2.72407,4.47161 3.50391,4.88281 1.31626,0.69406 3.14437,0.24178 6.08203,-1.50781 5.63104,-3.35367 10.0368,-4.65929 14.87696,-4.40625 5.84579,0.30562 9.28256,2.77113 11.0664,7.9375 0.55808,1.61633 0.74309,3.02402 0.86328,6.61328 l 0.15235,4.56054 h -3.16016 c -11.45165,9.7e-4 -22.80121,2.6271 -29.11133,6.73829 -1.12281,0.73155 -2.89445,2.24055 -3.93554,3.35351 -2.25356,2.40902 -3.24194,4.70452 -3.47657,8.06641 -0.30979,4.4393 1.01799,8.37454 3.88477,11.51367 2.19213,2.40039 4.10279,3.44309 8.67773,4.74219 1.1561,0.32828 3.02119,0.42988 6.72071,0.36328 4.78874,-0.0862 5.31005,-0.15724 8.07031,-1.10547 4.20074,-1.44304 6.23589,-2.55287 9.80859,-5.3457 1.72692,-1.34992 3.17932,-2.40857 3.22852,-2.35157 0.0493,0.057 0.40343,1.54469 0.78515,3.30469 1.02909,4.74467 0.41982,4.45963 9.79493,4.58008 l 7.83203,0.10156 v -3 c 0,-1.94211 -0.14516,-3.19742 -0.41211,-3.5625 -0.28531,-0.39018 -1.54197,-0.78153 -4.08008,-1.26758 l -3.66797,-0.70117 -0.16406,-18.23633 -0.16406,-18.23437 -0.86719,-2.56055 c -3.0597,-9.0255 -10.4909,-13.99606 -20.92578,-14.16797 z m 225.33599,0.25391 c -1.8742,0.004 -3.6825,0.14449 -5.0899,0.43555 -4.6972,0.97139 -9.372,3.34349 -13.3457,6.77539 -1.3019,1.12436 -2.4568,1.9413 -2.5684,1.81445 -0.1116,-0.12685 -0.3936,-1.59948 -0.625,-3.27148 -0.3573,-2.58165 -0.5529,-3.17261 -1.2988,-3.91993 L 1016,289.15235 h -8.5039 -8.5039 v 2.97851 c 0,1.89086 0.1464,3.18117 0.4023,3.53125 0.4296,0.5875 2.4668,1.18624 6.2364,1.83399 l 2.3203,0.39843 v 21.67579 21.67382 l -3.92,0.71289 c -2.1558,0.39225 -4.1724,0.93346 -4.4804,1.20313 -0.4623,0.40473 -0.5586,1.0412 -0.5586,3.64453 v 3.1543 l 14.7988,-0.084 14.8008,-0.084 v -2.92578 c 0,-3.94608 -0.071,-4.01419 -5.1465,-4.9668 l -3.9726,-0.74609 v -18.12891 -18.12695 l 1.7968,-1.64258 c 4.8773,-4.4576 9.8887,-6.55242 15.6446,-6.54102 5.0932,0.0101 8.6202,1.55848 10.9199,4.79297 2.2378,3.14756 2.1694,2.37831 2.3535,26.52539 l 0.166,21.75977 10.3203,0.0859 10.3204,0.084 v -2.90625 c 0,-3.25478 -0.2221,-3.90112 -1.5079,-4.40039 -0.6925,-0.26889 -7.1115,-1.66211 -7.6582,-1.66211 -0.063,0 -0.1152,-7.18929 -0.1152,-15.97656 0,-9.68063 -0.1363,-16.96377 -0.3457,-18.48047 -0.9621,-6.96968 -4.4459,-12.72337 -9.5,-15.68945 -0.751,-0.44078 -2.4067,-1.16404 -3.6797,-1.60742 -1.9475,-0.67837 -5.2551,-1.04808 -8.3789,-1.04102 z m -499.53131,0.0254 c -0.60377,-0.0143 -1.20332,-0.0139 -1.80078,0.002 -1.59322,0.0424 -3.17662,0.19002 -4.81836,0.4375 -5.82909,0.87867 -9.79826,2.74185 -13.20117,6.19532 -3.59181,3.64514 -4.85447,6.86263 -4.58398,11.68945 0.1946,3.47238 1.00092,5.8219 2.70508,7.89648 3.0841,3.75447 6.94891,5.79069 16.41601,8.64844 7.69325,2.3223 9.85698,3.24526 11.91797,5.08008 1.18938,1.05888 1.63164,1.73803 2.03711,3.13281 0.90096,3.09917 0.14168,5.86061 -2.25,8.18164 -1.495,1.45085 -2.83826,2.18515 -5.47461,2.99219 -3.76471,1.15244 -12.39326,0.55925 -16.75195,-1.15039 l -1.47852,-0.58008 -0.22656,-2.35742 c -0.66342,-6.91628 -0.51183,-6.67774 -4.27734,-6.67774 h -2.69727 v 7.95118 7.95117 l 4.08008,0.99219 c 2.244,0.54532 5.16047,1.14166 6.48047,1.32617 1.32,0.18448 2.75922,0.3971 3.19922,0.4707 0.44,0.0736 3.53685,0.0939 6.88086,0.0449 5.15477,-0.0755 6.44334,-0.19754 8.4707,-0.79492 5.82039,-1.71504 10.98782,-5.64042 13.08203,-9.94141 2.07896,-4.26966 2.4802,-9.63714 1.01172,-13.53125 -0.86384,-2.29069 -3.43199,-5.14983 -6.19141,-6.89257 -2.28496,-1.44308 -8.05587,-3.60917 -14.60937,-5.48438 -8.78544,-2.51386 -11.59981,-4.73154 -11.65821,-9.18555 -0.0223,-1.7013 0.10829,-2.16132 0.94336,-3.34961 3.03917,-4.32452 8.49133,-5.83193 16.71485,-4.62304 1.98233,0.29142 3.80088,0.60516 4.04101,0.69726 0.42838,0.16439 0.54648,0.86663 1.03125,6.17383 0.30377,3.32567 0.58845,3.55469 4.44336,3.55469 h 3.04102 v -7.81836 -7.81641 l -1.83985,-0.53515 c -5.94203,-1.72961 -10.41031,-2.57931 -14.63672,-2.67969 z m 50.37891,0.0137 c -1.60874,0.0385 -3.1923,0.17967 -4.7832,0.42188 -5.5095,0.83882 -9.26969,2.52609 -12.60742,5.65429 -3.64355,3.41484 -5.3125,6.93484 -5.3125,11.21094 0,4.37582 1.39231,7.72131 4.37109,10.50781 3.39108,3.17219 6.16089,4.44373 16.42969,7.54297 6.03853,1.8225 8.45036,2.87854 10.21484,4.47266 1.67994,1.51771 2.1986,2.5081 2.45313,4.67773 0.5168,4.40557 -2.31359,7.94731 -7.70313,9.63868 -1.84435,0.57878 -2.95902,0.69882 -6.24609,0.67382 -4.26032,-0.0322 -6.93628,-0.42092 -10.15235,-1.47656 -2.27168,-0.74567 -2.11015,-0.39006 -2.6289,-5.79492 -0.16605,-1.7301 -0.4723,-3.34972 -0.67969,-3.59961 -0.27392,-0.33005 -1.15328,-0.45313 -3.2168,-0.45313 h -2.84179 v 7.94922 7.95118 l 3.59961,0.89843 c 1.98,0.49337 5.25725,1.15794 7.28125,1.47657 5.33987,0.84069 14.83686,0.66598 18.23046,-0.33399 3.82935,-1.12835 7.22348,-3.07185 9.80665,-5.61719 3.72308,-3.66854 5.07607,-7.03717 5.08007,-12.64453 0.002,-3.47517 -0.0549,-3.79987 -1.01757,-5.83203 -2.44394,-5.15905 -7.02244,-7.80176 -20.17969,-11.64648 -9.10553,-2.66074 -11.90692,-4.80651 -12.00977,-9.19922 -0.0513,-2.19041 0.80109,-3.82216 2.88867,-5.5293 3.39492,-2.77622 8.0452,-3.56664 14.89453,-2.53125 1.99844,0.30209 3.79254,0.6478 3.98633,0.76758 0.19382,0.11977 0.56146,2.15045 0.81836,4.51172 0.37152,3.41497 0.58498,4.37853 1.04492,4.71484 0.38118,0.27872 1.59492,0.42383 3.5586,0.42383 h 2.97851 v -7.82617 -7.82617 l -2.16015,-0.64063 c -6.21175,-1.84192 -11.27146,-2.65857 -16.09766,-2.54297 z m 60.97656,0 c -4.16354,0 -8.32671,0.61033 -11.87109,1.83203 -9.66291,3.33067 -16.5571,11.49935 -18.40039,21.80274 -0.55655,3.11092 -0.55655,11.9301 0,15.04101 2.24396,12.54301 11.43433,21.28712 24.53906,23.34766 1.04109,0.16368 4.12552,0.24474 6.85352,0.18164 3.9721,-0.0919 5.56643,-0.27169 8.0039,-0.9043 8.55875,-2.22138 14.58908,-6.9312 18.08399,-14.12304 2.00723,-4.13043 2.92917,-7.50285 3.41992,-12.51172 0.6784,-6.92446 -0.50256,-13.56405 -3.49805,-19.66992 -1.61961,-3.30139 -2.10479,-3.97687 -4.71679,-6.56055 -3.28428,-3.24873 -6.31005,-5.14516 -10.54102,-6.60352 -3.54439,-1.2217 -7.70951,-1.83203 -11.87305,-1.83203 z m 309.2461,0.008 c -11.21535,0.0215 -20.11967,4.31053 -25.4375,12.30274 -2.08445,3.13274 -3.70175,6.94068 -4.47071,10.52539 -0.76986,3.59044 -0.76945,13.06228 0.002,16.64062 2.65392,12.31174 11.53483,20.52919 24.36718,22.54688 1.0411,0.16368 4.12552,0.24474 6.85352,0.18164 4.04157,-0.0935 5.551,-0.26793 8.15625,-0.94336 11.10592,-2.87933 18.36429,-10.52291 20.67773,-21.7793 1.24196,-6.04284 1.09796,-12.62295 -0.39843,-18.33593 -3.34934,-12.78739 -13.27958,-20.40795 -27.47657,-21.08594 -0.76783,-0.0367 -1.52574,-0.0542 -2.27343,-0.0527 z m -239.87891,0.0195 c -15.5058,-0.16506 -26.72636,8.92034 -29.36914,23.9375 -0.61977,3.52282 -0.61345,10.63135 0.0117,14.26953 2.37054,13.7953 12.06618,23.1498 24.95117,24.07422 10.51891,0.75465 20.08302,-2.20257 25.57422,-7.90821 l 1.25391,-1.30273 -1.91016,-2.33203 c -1.70052,-2.07399 -2.04671,-2.34044 -3.14648,-2.43164 -1.05229,-0.0872 -1.5845,0.1397 -3.58594,1.53711 -4.39446,3.06823 -7.85043,4.15625 -13.22656,4.15625 -5.59021,0.002 -9.02507,-1.31123 -12.47266,-4.76758 -2.40537,-2.41152 -4.08078,-5.4805 -5.17774,-9.48242 -0.96167,-3.50826 -1.05465,-13.07608 -0.16406,-16.87305 0.69427,-2.96 2.5829,-6.87722 4.26367,-8.83984 2.3423,-2.73516 6.42187,-4.83141 10.69336,-5.49415 2.631,-0.40822 8.23639,10e-4 11.60547,0.84766 1.78452,0.44826 2.13469,0.64687 2.14649,1.2168 0.008,0.37461 0.20457,2.37691 0.4375,4.44922 0.55811,4.96497 0.61939,5.03125 4.55859,5.03125 h 2.99024 v -7.98828 -7.98829 l -4.05665,-1.29687 c -5.51993,-1.76469 -9.4932,-2.55754 -13.86328,-2.76953 -0.50896,-0.0247 -1.01349,-0.0396 -1.51367,-0.0449 z m 29.0332,0.88867 v 2.98437 c 0,3.8587 0.21678,4.08372 4.64063,4.84375 1.75999,0.30237 3.52462,0.6255 3.92187,0.7168 l 0.72266,0.16602 -0.082,21.63867 -0.082,21.64062 -4,0.72071 c -5.0706,0.91359 -5.1211,0.9627 -5.1211,5.08789 v 3.00781 l 14.80079,-0.084 14.79882,-0.082 v -2.95312 c 0,-3.92493 -0.12178,-4.04413 -5.13867,-4.99219 l -3.82031,-0.72266 -0.082,-25.98632 -0.082,-25.98633 h -10.23828 z m 144.64063,0 v 3.01758 c -10e-6,2.83034 0.0484,3.0549 0.79297,3.64062 0.48976,0.38523 1.99077,0.83364 3.91992,1.17188 1.71949,0.30146 3.45236,0.62354 3.84961,0.71484 l 0.7207,0.16602 -0.082,21.63867 -0.082,21.64062 -4,0.72071 c -5.07,0.9135 -5.11914,0.96244 -5.11914,5.08398 v 3.00391 h 14.87891 14.88086 v -2.86133 c 0,-4.07824 -0.2708,-4.34706 -5.29102,-5.25391 l -3.82813,-0.69141 -0.082,-25.99609 -0.082,-25.99609 h -10.23828 z m 67.30273,7.48633 c 0.3989,0.008 0.77519,0.028 1.12305,0.0605 6.88195,0.64165 11.04026,3.23198 13.89063,8.65625 2.4279,4.62031 3.52938,11.47708 2.85937,17.79688 -0.48733,4.59645 -1.0651,6.78382 -2.67969,10.14648 -2.1769,4.53373 -5.46509,7.23664 -10.32422,8.48438 -2.43776,0.62587 -8.64486,0.61673 -11.05273,-0.0156 -2.88435,-0.75751 -6.25822,-2.58853 -7.96289,-4.32031 -2.04179,-2.07427 -3.71454,-5.31005 -4.74609,-9.17969 -0.72819,-2.73171 -0.83267,-3.76819 -0.85157,-8.39648 -0.0227,-5.60727 0.23859,-7.47715 1.61914,-11.56055 1.63078,-4.82359 5.3573,-8.92561 9.52344,-10.48437 1.97316,-0.73824 5.80923,-1.24574 8.60156,-1.1875 z m -310.34375,0.10156 c 7.55072,0.009 12.2503,2.33571 15.36719,7.60937 4.14004,7.00477 4.72051,19.26048 1.31055,27.65235 -2.17248,5.34653 -5.59649,8.41828 -10.9043,9.78125 -2.3009,0.59084 -8.5514,0.61354 -10.9082,0.041 -2.19427,-0.53305 -5.61343,-2.16781 -7.20313,-3.44531 -1.28029,-1.02887 -3.60853,-4.27704 -4.43554,-6.1875 -2.05552,-4.74851 -2.76341,-12.03012 -1.79493,-18.45508 0.85632,-5.68065 2.50569,-9.34769 5.60938,-12.4668 3.27836,-3.29471 6.83143,-4.53629 12.95898,-4.52929 z m 173.61329,25.63476 -0.0859,6.49414 -0.0859,6.49415 -2.40039,2.01562 c -2.97035,2.49277 -5.93354,4.07758 -9.16602,4.9043 -1.36339,0.34871 -3.63914,0.69894 -5.05664,0.77734 -7.1624,0.39642 -11.6984,-3.01476 -11.6875,-8.78906 0.007,-3.80842 1.64696,-6.03713 5.91016,-8.0332 4.63632,-2.17075 9.89851,-3.20231 18.64648,-3.65821 z"
     id="path8907-1"
     inkscape:connector-curvature="0" />
</svg>
