<?xml version="1.0" encoding="UTF-8" standalone="no"?>
<svg
   width="71.864838mm"
   height="78.1119mm"
   viewBox="0 0 71.864837 78.111902"
   version="1.1"
   id="svg294"
   inkscape:version="1.1-alpha (ece1303cea, 2021-02-05)"
   sodipodi:docname="logo-arabic-minimal-bw.svg"
   inkscape:export-filename="/home/yugi/Dropbox/JOSA/Design and Branding/AmanRaqami/logo-arabic-minimal.png"
   inkscape:export-xdpi="300"
   inkscape:export-ydpi="300"
   xmlns:inkscape="http://www.inkscape.org/namespaces/inkscape"
   xmlns:sodipodi="http://sodipodi.sourceforge.net/DTD/sodipodi-0.dtd"
   xmlns="http://www.w3.org/2000/svg"
   xmlns:svg="http://www.w3.org/2000/svg">
  <sodipodi:namedview
     id="namedview296"
     pagecolor="#ffffff"
     bordercolor="#666666"
     borderopacity="1.0"
     objecttolerance="10.0"
     gridtolerance="10.0"
     guidetolerance="10.0"
     inkscape:pageshadow="2"
     inkscape:pageopacity="0.0"
     inkscape:pagecheckerboard="0"
     inkscape:document-units="mm"
     showgrid="false"
     fit-margin-top="0"
     fit-margin-left="0"
     fit-margin-right="0"
     fit-margin-bottom="0"
     inkscape:zoom="0.6289422"
     inkscape:cx="-242.47061"
     inkscape:cy="241.67563"
     inkscape:window-width="1712"
     inkscape:window-height="912"
     inkscape:window-x="0"
     inkscape:window-y="27"
     inkscape:window-maximized="1"
     inkscape:current-layer="layer1" />
  <defs
     id="defs291" />
  <g
     inkscape:label="Layer 1"
     inkscape:groupmode="layer"
     id="layer1"
     transform="translate(-103.20802,-51.1402)">
    <path
       id="rect221-3-2-9-1-7-3-7-0-7-6"
       style="fill:#000000;fill-opacity:1;fill-rule:evenodd;stroke-width:0.0232023"
       d="m 159.00196,51.1402 c -6.11282,0 -10.94229,1.3396 -12.92635,3.5936 -1.80443,2.0499 -3.02529,6.3541 -3.1936,11.2577 -0.0107,0.3509 -0.0191,0.7012 -0.0191,1.0501 -0.009,5.2349 1.24759,10.1774 3.18019,12.3289 2.11392,2.3537 6.68832,3.6355 12.95889,3.6355 3.61104,0 6.18782,-0.3404 8.6527,-1.1415 4.26029,-1.3846 5.84623,-3.5701 6.78926,-9.3555 0.20151,-1.2368 0.37081,-7.613 0.23717,-8.9323 -0.13025,-1.2852 -0.48641,-3.3206 -0.79838,-4.561 -1.08299,-4.3049 -3.3506,-6.2494 -8.50852,-7.2972 -2.06364,-0.4191 -3.80362,-0.5775 -6.37223,-0.5783 z m -0.0413,3.437 c 1.15718,2.156 2.06502,4.4344 3.15227,6.6255 2.38517,-0.6065 4.80735,-1.3318 7.22384,-1.9364 -1.10844,2.2247 -2.24533,4.4564 -3.33571,6.6725 1.9784,1.4884 4.04739,2.8569 5.96967,4.4183 -2.14771,0.4812 -4.30536,0.9204 -6.45957,1.3679 -0.55089,0.036 -1.00761,0.1473 -0.77306,0.799 0.0435,2.2474 0.35552,4.5012 0.13642,6.7453 -1.8733,-1.5465 -3.7315,-3.1099 -5.62396,-4.6328 -1.91055,1.6294 -3.80455,3.2798 -5.67147,4.9594 0.045,-2.5173 0.0916,-5.0348 0.13279,-7.552 -2.06073,-0.3629 -4.12022,-0.7334 -6.17841,-1.1106 -0.736,-0.024 -1.01571,-0.2216 -0.37569,-0.7715 1.60737,-1.443 3.41228,-2.6632 5.08701,-4.0313 -1.16207,-2.2147 -2.36796,-4.4062 -3.54808,-6.6115 2.43546,0.5992 4.87209,1.1937 7.30392,1.8077 0.8658,-1.9626 1.65889,-3.9574 2.5518,-5.9071 0.13605,-0.2808 0.27218,-0.5614 0.40823,-0.8424 z m 0.25839,7.243 v 10e-4 c -2.28703,-0.069 -4.42801,1.4278 -5.31336,3.5058 -1.33324,2.8507 0.0734,6.6063 2.97034,7.8501 0.361,-0.6671 0.60564,-1.5107 0.88419,-2.2458 0.0302,-0.4207 0.64889,-1.0353 0.12094,-1.2795 -1.02108,-0.7287 -1.28796,-2.2456 -0.54623,-3.2639 0.7798,-1.2338 2.7305,-1.3038 3.60754,-0.1406 0.94488,1.072 0.54898,2.8905 -0.68575,3.5678 0.32295,1.1212 0.78134,2.2635 1.21748,3.3682 0.42334,-0.1857 0.82061,-0.4281 1.1865,-0.71 1.42412,-1.0618 2.29642,-2.8139 2.28513,-4.5925 0.21539,-3.1349 -2.55596,-6.1536 -5.72678,-6.0606 z m 2.74453,26.4418 c -1.0925,0.019 -1.96782,0.9108 -1.96731,2.0035 v 0.081 h -0.73483 v 1.1483 h 2.95227 v -1.1483 h -1.10125 c -0.0103,-0.05 -0.0162,-0.1008 -0.017,-0.1519 -1.8e-4,-0.4655 0.38709,-0.8439 0.86662,-0.8465 z m 9.96063,0.5933 v 15.3039 h 3.14865 V 88.8553 Z m -5.74487,0.011 v 9.8836 h 0.0104 c -0.047,1.2808 -0.97981,2.3074 -2.24431,2.3363 v -0.011 h -1.49809 v -8.4124 h -3.14918 v 8.4124 h -2.12183 l -1.11828,3.1481 h 3.24011 3.14918 1.49809 v -0.013 c 2.8873,-0.075 5.21349,-2.4717 5.36298,-5.4648 h 0.0217 l -0.003,-9.8795 z m -32.88789,0.1524 v 9.7085 h 0.0181 c 0.176,2.5849 1.97924,4.7236 4.39404,5.3754 l 0.90175,-2.5518 v 0.019 l 0.14317,-0.4046 h -0.01 l 0.047,-0.1334 c -1.2709,-0.1748 -2.31667,-1.2289 -2.31667,-2.5047 0,-0.1852 -0.026,-0.3697 0.015,-0.5509 h -0.0481 v -8.956 z m -12.90156,4.4675 c -0.87866,2e-4 -1.59089,0.7124 -1.5911,1.5911 -1.1e-4,0.8788 0.71223,1.5914 1.5911,1.5916 0.87908,1e-4 1.59176,-0.7126 1.59165,-1.5916 -2.1e-4,-0.8789 -0.71279,-1.5913 -1.59165,-1.5911 z m 7.48482,1.8283 v 3.2825 h -0.0357 c 0.0159,0.067 0.0257,0.1348 0.0357,0.2025 v 0.6072 c -0.14639,1.039 -1.03817,1.7757 -2.16318,1.8842 v -0.011 H 112.6958 l -1.11828,3.1481 h 13.86221 0.0362 0.23564 v -0.011 c 2.7631,-0.1746 4.9792,-2.2632 5.27669,-4.9072 h 0.0351 v -4.1956 z m 20.71915,0.075 0.001,5e-4 c -3.02535,0.012 -5.47139,2.4685 -5.4715,5.4937 0.007,0.093 0.0159,0.1863 0.0274,0.2791 h -3.14915 l -0.85989,2.418 v -0.019 l -0.25993,0.7328 h 0.0103 l -0.0103,0.016 h 5.47407 c 1.03513,1.2968 2.60094,2.0565 4.26022,2.0666 3.03445,1e-4 5.49439,-2.4599 5.49423,-5.4943 -1.6e-4,-3.0343 -2.45999,-5.4939 -5.49423,-5.4937 -0.007,-1e-4 -0.0148,-1e-4 -0.0222,0 z m 0.10025,3.3693 h 0.001 0.002 0.008 c 1.32038,-10e-5 2.39072,1.0393 2.39056,2.3213 -1e-4,1.2818 -1.07037,2.3208 -2.39056,2.3208 -1.31998,-3e-4 -2.38993,-1.0392 -2.39003,-2.3208 -1.9e-4,-1.2777 1.0633,-2.3152 2.37918,-2.3213 z m -37.35639,2.5254 v 0.4227 l 0.13126,-0.4227 z m 35.37615,6.6167 c -0.87908,-10e-5 -1.59174,0.7125 -1.59163,1.5916 2.1e-4,0.8789 0.71276,1.5913 1.59163,1.5911 0.87865,-2e-4 1.59091,-0.7124 1.59112,-1.5911 1.1e-4,-0.8789 -0.71223,-1.5915 -1.59112,-1.5916 z m 4.1584,0 c -0.87908,-10e-5 -1.59173,0.7125 -1.59163,1.5916 2.1e-4,0.8789 0.71276,1.5913 1.59163,1.5911 0.87887,2e-4 1.59144,-0.7122 1.59163,-1.5911 1.3e-4,-0.8791 -0.71255,-1.5917 -1.59163,-1.5916 z m 20.94394,0.4113 v 15.3045 h 3.14865 v -15.3045 z m -2.46859,0.1194 -3.15071,5e-4 v 9.8842 h 0.01 c -0.047,1.2809 -0.98036,2.307 -2.24483,2.3357 v -0.01 h -1.04283 l -1.11879,3.1482 h 2.16162 v -0.013 c 2.88729,-0.075 5.21396,-2.4705 5.3635,-5.4637 h 0.0222 z m -20.49796,4.3517 v 5e-4 c -3.02535,0.012 -5.47137,2.4683 -5.4715,5.4937 0.009,0.8708 0.2246,1.7265 0.62941,2.4975 h -1.06092 l -1.07228,3.0179 h 7.03834 v -0.023 c 3.01787,-0.022 5.45277,-2.4747 5.45341,-5.4927 -1.3e-4,-3.034 -2.45967,-5.4936 -5.49373,-5.4937 z m -27.66549,0.2098 v 5e-4 c -3.0225,0.015 -5.46521,2.4704 -5.46532,5.4937 -1.8e-4,0.026 -1.8e-4,0.051 0,0.077 h -0.0103 v 2.326 h -11.38122 l -1.11931,3.1486 h 12.75323 v -0.014 h 2.94658 v -5.4611 c 0.065,-1.2291 1.10692,-2.1953 2.37453,-2.202 h 0.0103 c 1.26111,0 2.30362,0.9551 2.38178,2.1772 v 5.5077 h 1.68878 l 1.32705,-3.7569 V 118.57 h 0.0109 c 2.1e-4,-0.028 2.1e-4,-0.055 0,-0.083 -0.004,-0.045 -0.009,-0.091 -0.014,-0.1364 v -0.2491 h -0.0238 c -0.20185,-2.868 -2.58087,-5.0954 -5.456,-5.1082 z m 13.51132,0.9079 c -3.02536,0.012 -5.47138,2.4679 -5.47151,5.4932 0.008,0.5012 0.0855,0.9993 0.22892,1.4795 h -1.78697 l -1.08003,3.0391 v 0.1085 h 0.0372 l -0.0103,0.026 h 0.0811 v -0.026 h 4.92787 v -0.095 c 0.91183,0.6249 1.99101,0.9603 3.09644,0.9622 1.18269,0 2.33352,-0.3832 3.28147,-1.0904 h 2.6298 l 1.11104,-3.145 h -1.67688 c 0.0976,-0.4113 0.14732,-0.8325 0.1483,-1.2552 -1.3e-4,-3.0341 -2.45967,-5.4941 -5.49373,-5.4943 h -0.0232 z m 22.05447,1.7224 v 8.8191 c -0.2373,0.9157 -1.07624,1.5529 -2.11563,1.6532 v -0.01 h -1.14464 v 3.1481 h 0.8728 0.0362 0.23567 v -0.011 c 2.66618,-0.1685 4.81734,-2.1208 5.23274,-4.6328 h 0.032 v -0.1969 c 0,-0.026 0.01,-0.051 0.0119,-0.077 h 0.0351 v -0.5343 h 0.63614 l 1.10175,-3.1182 v -0.03 h -1.73789 v -0.5177 h -0.048 v -4.4918 z m -7.79902,0.5188 v 0.01 h 0.007 c 1.3204,-10e-5 2.39075,1.0393 2.39056,2.3213 -1.3e-4,1.2818 -1.0704,2.3204 -2.39056,2.3203 -0.0143,0 -0.0287,-0.01 -0.0429,-0.01 v -0.014 h -0.10232 c -1.25558,-0.074 -2.23697,-1.0808 -2.24483,-2.3021 -2.1e-4,-1.2791 1.06545,-2.3171 2.38281,-2.3214 z m -14.15677,1.1271 h 0.001 0.002 0.008 c 1.32038,0 2.39072,1.0393 2.39054,2.3213 -1.4e-4,1.2818 -1.07038,2.3208 -2.39054,2.3208 -1.32017,0 -2.39043,-1.039 -2.39056,-2.3208 -2.2e-4,-1.278 1.06359,-2.3155 2.37968,-2.3213 z m 6.93809,3.5062 v 0.024 l 0.01,-0.024 z m -34.01808,5.2938 c -0.87887,-1e-4 -1.59145,0.7122 -1.59163,1.5911 -1.1e-4,0.8791 0.71255,1.5917 1.59163,1.5917 0.87886,-3e-4 1.59123,-0.7128 1.59112,-1.5917 -1.8e-4,-0.8787 -0.71244,-1.5909 -1.59112,-1.5911 z m 4.1584,0 c -0.87887,-1e-4 -1.59144,0.7122 -1.59163,1.5911 -1e-4,0.8791 0.71255,1.5917 1.59163,1.5917 0.87908,0 1.59173,-0.7126 1.59165,-1.5917 -2.1e-4,-0.8789 -0.71276,-1.5912 -1.59165,-1.5911 z"
       sodipodi:nodetypes="ssccsssssssssccccccccccccccccccccccccccccccccsccccccccccccccccccccccccccccccccccccccccccsccccssssscccccccccccccccccccccccccccccsssccccssssscccccsssssssssscccccccccccccccccccccccccccscccscccccccccssccccccccccscccccccccccccccccccsccccccccccccccscccccccccccccssscccccccccssssscccccssssssssss"
       inkscape:export-xdpi="300"
       inkscape:export-ydpi="300" />
  </g>
</svg>
