<?xml version="1.0" encoding="UTF-8" standalone="no"?>
<svg
   width="110.9467mm"
   height="110.94742mm"
   viewBox="0 0 110.9467 110.94742"
   version="1.1"
   id="svg2469"
   inkscape:version="1.1-alpha (ece1303cea, 2021-02-05)"
   sodipodi:docname="logo-latin-full-white.svg"
   xmlns:inkscape="http://www.inkscape.org/namespaces/inkscape"
   xmlns:sodipodi="http://sodipodi.sourceforge.net/DTD/sodipodi-0.dtd"
   xmlns="http://www.w3.org/2000/svg"
   xmlns:svg="http://www.w3.org/2000/svg">
  <sodipodi:namedview
     id="namedview2471"
     pagecolor="#ffffff"
     bordercolor="#666666"
     borderopacity="1.0"
     objecttolerance="10.0"
     gridtolerance="10.0"
     guidetolerance="10.0"
     inkscape:pageshadow="2"
     inkscape:pageopacity="0.0"
     inkscape:pagecheckerboard="0"
     inkscape:document-units="mm"
     showgrid="false"
     inkscape:zoom="0.6289422"
     inkscape:cx="146.27735"
     inkscape:cy="275.06502"
     inkscape:window-width="1712"
     inkscape:window-height="912"
     inkscape:window-x="0"
     inkscape:window-y="27"
     inkscape:window-maximized="1"
     inkscape:current-layer="layer1"
     fit-margin-top="0"
     fit-margin-left="0"
     fit-margin-right="0"
     fit-margin-bottom="0" />
  <defs
     id="defs2466" />
  <g
     inkscape:label="Layer 1"
     inkscape:groupmode="layer"
     id="layer1"
     transform="translate(-35.238603,-75.549345)">
    <path
       id="path33376-2-3"
       style="fill:#ffffff;fill-opacity:1;stroke-width:0.467056"
       d="m 96.693743,75.549345 c -8.38338,0.003 -21.67837,0.4663 -24.90804,0.99272 -20.14296,3.2834 -27.75138,8.80462 -32.57216,23.637315 -2.78911,8.5821 -3.97494,17.55277 -3.97494,30.1253 0,21.83228 4.46426,37.75911 12.65864,45.11921 7.49149,6.7287 24.69915,11.1048 42.92502,11.0727 1.21502,0 2.43462,-0.0241 3.65612,-0.0661 17.073007,-0.58611 32.057207,-4.83725 39.194497,-11.11975 7.84741,-6.90769 12.52202,-23.72323 12.51241,-45.00602 0,-8.94292 -0.55337,-15.00042 -2.01279,-22.18524 -3.64789,-17.958265 -10.41874,-25.852985 -25.40722,-29.623485 -4.31821,-1.08622 -11.40537,-2.32722 -15.88019,-2.78071 -1.14834,-0.11637 -3.396877,-0.16672 -6.191347,-0.1659 z m -33.43154,16.07034 c 2.5686,0 4.30856,0.15968 6.37223,0.57878 5.15792,1.0478 7.42553,2.99191 8.50852,7.29671 0.31197,1.240415 0.66813,3.276195 0.79838,4.561485 0.13364,1.31929 -0.0357,7.69504 -0.23717,8.93175 -0.94303,5.78541 -2.52894,7.97142 -6.78926,9.35601 -2.46489,0.80111 -5.04166,1.14155 -8.6527,1.14155 -6.27057,0 -10.84495,-1.28175 -12.95889,-3.63546 -1.9326,-2.15159 -3.18918,-7.09395 -3.18019,-12.32894 0,-0.3488 0.008,-0.69948 0.019,-1.05059 0.1683,-4.90349 1.38917,-9.207385 3.1936,-11.257195 1.98406,-2.25419 6.81353,-3.5941 12.92635,-3.5941 z m -0.0414,3.43752 c -0.13602,0.28102 -0.27218,0.56142 -0.40823,0.84233 -0.89291,1.9495 -1.686,3.94444 -2.5518,5.907135 -2.43186,-0.6141 -4.86846,-1.20885 -7.30393,-1.808155 1.18013,2.205295 2.38602,4.397185 3.54809,6.611985 -1.6747,1.3679 -3.47964,2.58786 -5.08701,4.03077 -0.64005,0.5498 -0.36031,0.74752 0.37568,0.77152 2.0582,0.3773 4.11766,0.74806 6.17842,1.11104 -0.0412,2.51701 -0.0878,5.03449 -0.13279,7.552 1.86692,-1.67981 3.76089,-3.33031 5.67147,-4.9599 1.89246,1.52299 3.75066,3.08681 5.62396,4.6333 0.2191,-2.24398 -0.0929,-4.49792 -0.13642,-6.74531 -0.23455,-0.6517 0.22217,-0.76343 0.77306,-0.79944 2.15421,-0.44741 4.31186,-0.88667 6.45956,-1.36787 -1.92227,-1.56141 -3.99126,-2.92984 -5.96966,-4.41833 1.09038,-2.2162 2.22724,-4.44767 3.33571,-6.672465 -2.41649,0.604485 -4.83867,1.330425 -7.22384,1.936815 -1.08725,-2.190975 -1.99512,-4.469625 -3.15227,-6.625425 z m 0.25839,7.240905 c 3.17082,-0.0931 5.9422,2.92581 5.72677,6.0606 0.0114,1.7785 -0.861,3.53028 -2.28512,4.59197 -0.36589,0.2821 -0.76319,0.52486 -1.1865,0.71057 -0.43614,-1.10472 -0.89453,-2.24719 -1.21748,-3.36828 1.23473,-0.67731 1.63063,-2.49616 0.68575,-3.56825 -0.87704,-1.16311 -2.82774,-1.09294 -3.60754,0.14108 -0.74174,1.01809 -0.47485,2.53497 0.54623,3.26387 0.52795,0.24421 -0.0907,0.85839 -0.12094,1.279 -0.27856,0.7353 -0.52316,1.57916 -0.88419,2.24636 -2.89692,-1.24381 -4.3036,-4.99957 -2.97034,-7.85016 0.88535,-2.07801 3.02633,-3.57473 5.31336,-3.50573 z m -10.52753,30.13768 c 1.63658,-0.032 3.28104,0.72991 4.27262,2.04071 v -1.68929 h 3.58273 v 11.61066 h -3.53468 l 0.005,-0.8935 c 0.076,-0.24868 -0.16508,-0.53816 -0.4258,-0.48316 -0.18338,0.0901 -0.32551,0.24591 -0.47852,0.37928 -1.00997,0.94872 -2.41898,1.4082 -3.79357,1.34618 -1.75406,-0.0609 -3.4485,-1.02801 -4.40129,-2.50061 -1.34866,-2.0624 -1.4047,-4.88182 -0.16899,-7.01042 0.91932,-1.641 2.72298,-2.73029 4.59766,-2.79829 h 0.34468 v 0 z m 39.93917,0 c 1.60806,-0.006 3.21408,0.75306 4.18785,2.04227 v -1.69085 h 3.582717 v 11.61066 h -3.535167 l 0.006,-0.86299 c 0.0682,-0.22511 -0.0926,-0.49888 -0.33333,-0.51988 -0.21026,-0.003 -0.3429,0.19285 -0.49093,0.31316 -0.94705,0.9204 -2.267,1.41369 -3.58116,1.42369 -1.82192,0.0322 -3.62233,-0.91143 -4.63849,-2.42363 -1.38089,-2.0379 -1.47574,-4.85058 -0.27956,-6.99389 0.90146,-1.69429 2.74542,-2.82999 4.65862,-2.89698 h 0.42323 v 0 z m -12.83745,0.003 v 0 c 0.21143,-0.004 0.42259,0.009 0.63304,0.0279 1.00423,0.0931 2.0184,0.43757 2.759,1.14258 0.64505,0.61561 0.98115,1.4914 1.08934,2.36162 0.0648,2.8094 0.04,5.62038 0.046,8.43047 h -3.58325 c 0,-2.1394 -0.003,-4.2789 -0.006,-6.41821 0.0395,-0.74509 -0.15703,-1.53339 -0.66868,-2.09288 -0.72488,-0.7384 -1.92255,-0.91056 -2.85203,-0.48265 -0.65458,0.30199 -1.07683,0.97671 -1.19218,1.67431 -0.0476,2.43948 -0.0337,4.87965 -0.0367,7.31943 h -3.58272 c 0,-2.13958 -1.9e-4,-4.27921 -0.006,-6.41871 0.038,-0.74311 -0.15383,-1.53067 -0.66611,-2.08878 -0.63313,-0.65059 -1.63383,-0.86284 -2.49804,-0.61751 l -0.59791,-1.63195 c 0.39992,-0.32541 0.811,-0.63757 1.28366,-0.84699 0.83714,-0.38618 1.79461,-0.4277 2.69234,-0.26508 1.12374,0.17729 2.20083,0.80997 2.80551,1.79006 0.0604,0.20119 0.2612,0.38809 0.48318,0.34211 0.38428,-0.317 0.69594,-0.71533 1.07797,-1.03611 0.78867,-0.66582 1.77064,-1.16713 2.81895,-1.19012 z m 31.338117,0.0103 v 0 c 1.02592,-0.018 2.07291,0.14915 3.00136,0.59635 1.20224,0.5076 2.10624,1.67902 2.26086,2.97863 0.0572,2.7932 0.0343,5.58707 0.0403,8.38088 h -3.58273 c 0,-2.09901 -0.004,-4.19777 -0.004,-6.29679 0.0763,-0.8636 -0.22048,-1.77197 -0.8599,-2.36934 -0.66524,-0.64902 -1.71661,-0.81031 -2.57349,-0.48371 -0.0627,0.0249 -0.12235,0.0573 -0.18346,0.0853 l -0.65059,-1.77456 c 0.72935,-0.5961 1.60496,-1.04174 2.55125,-1.11673 z m -47.070507,0.34521 h 3.04686 l 1.12964,3.09798 c -0.289,0.33012 -0.47805,0.75311 -0.55036,1.1834 -0.0614,2.44279 -0.0364,4.88638 -0.0434,7.32978 h -3.58275 z m 39.854417,0 h 3.17088 l 1.18184,3.24061 c -0.36838,0.39061 -0.63791,0.87247 -0.73639,1.40457 -0.0416,2.32169 -0.0306,4.64399 -0.0336,6.96598 h -3.58273 z m -49.990237,2.59932 v 0 c -0.59782,0 -1.19803,0.15547 -1.71254,0.46199 -0.825,0.47349 -1.35451,1.3676 -1.47846,2.29959 -0.15291,1.05019 0.20563,2.18869 1.01647,2.89079 1.2051,1.03889 3.18347,0.99719 4.34547,-0.0894 0.88011,-0.84442 1.17541,-2.20446 0.81338,-3.35794 -0.36449,-1.2851 -1.65405,-2.22107 -2.98432,-2.20607 z m 39.81463,0 c -0.81613,0.0108 -1.6379,0.31308 -2.22776,0.88468 -0.84177,0.81852 -1.142,2.10974 -0.84183,3.23443 0.19146,0.7529 0.67236,1.43677 1.34568,1.83245 1.21414,0.72469 2.90134,0.58224 3.94033,-0.39068 0.88783,-0.85749 1.17292,-2.23695 0.79425,-3.39876 -0.38473,-1.27598 -1.68442,-2.18914 -3.01067,-2.16212 z m 40.150017,7.39748 c 0.56743,0.03 1.11649,0.29088 1.50429,0.70588 0.66715,0.6744 0.75602,1.79954 0.27287,2.60245 -0.48454,0.85179 -1.59319,1.25232 -2.52027,0.96324 -0.9254,-0.26861 -1.57257,-1.22039 -1.53738,-2.17559 0.0271,-1.0736 0.9685,-2.02393 2.03657,-2.09391 h 0.24392 z m -9.48264,7.21556 c 0.13391,0.005 0.26787,0.0138 0.401,0.0269 0.9688,0.0963 1.94265,0.42852 2.67116,1.09141 0.68527,0.6219 1.03664,1.53238 1.14567,2.43498 0.0596,2.80152 0.0369,5.60465 0.0419,8.40674 h -3.58273 c 0,-2.13579 0,-4.27146 -0.006,-6.40736 0.0383,-0.74581 -0.15198,-1.53678 -0.66403,-2.09807 -0.70665,-0.728 -1.87399,-0.90982 -2.79622,-0.51522 -0.67805,0.28332 -1.12503,0.96462 -1.24695,1.67431 -0.0609,2.44832 -0.0344,4.89754 -0.0434,7.34634 h -3.58169 c 0,-2.13989 -1.9e-4,-4.27998 -0.006,-6.41977 0.0384,-0.74451 -0.15639,-1.53305 -0.66921,-2.09134 -0.61785,-0.63101 -1.58086,-0.84688 -2.42776,-0.63098 l -0.61029,-1.6645 c 0.4332,-0.3498 0.8986,-0.66034 1.41438,-0.87074 0.89543,-0.36769 1.9113,-0.33533 2.84118,-0.11782 1.23177,0.26279 2.33889,1.1556 2.78172,2.34921 0.3384,-0.40651 0.68501,-0.80648 1.07487,-1.16477 0.78182,-0.72912 1.78144,-1.27625 2.86134,-1.34827 h 0.2005 z m -59.954997,0.003 c 0.12755,0 0.25516,0 0.38242,0.0108 1.48733,0.095 2.93418,0.83601 3.838,2.03142 v -1.69087 h 3.58272 v 11.61118 h -3.53518 c 0,-0.16769 0.004,-0.33551 0.004,-0.50334 -0.0185,-0.23429 0.0722,-0.4908 -0.0548,-0.70641 -0.0971,-0.19698 -0.37889,-0.21526 -0.5333,-0.0791 -0.80417,0.84209 -1.89148,1.42129 -3.04683,1.58441 -1.98702,0.3121 -4.09504,-0.57126 -5.28445,-2.19057 -1.49095,-2.04229 -1.63983,-4.94985 -0.41341,-7.15253 0.90226,-1.7041 2.7554,-2.85057 4.67826,-2.91455 h 0.3824 z m 32.59079,0 v 0 c 1.63481,-0.0294 3.278287,0.73154 4.267967,2.04226 v -1.69087 h 3.58272 v 11.61066 h -3.53468 c 0.004,-0.28459 -0.008,-0.5696 0.013,-0.85368 0.0429,-0.21572 -0.0748,-0.48448 -0.308,-0.52348 -0.22135,-0.027 -0.37063,0.16925 -0.51367,0.30435 -0.930977,0.89561 -2.209287,1.39687 -3.494877,1.42886 -1.83411,0.059 -3.66199,-0.86998 -4.70564,-2.37916 -1.42769,-2.06791 -1.51857,-4.95308 -0.26614,-7.12309 0.92239,-1.65359 2.74198,-2.75233 4.62968,-2.81533 h 0.32919 z m -41.84137,0 v 0 c 0.86228,-0.0268 1.72929,0.16777 2.49235,0.56687 -0.49072,0.9939 -0.98152,1.98784 -1.47225,2.98174 -0.343,-0.1923 -0.71435,-0.33303 -1.09865,-0.41703 -0.81399,-0.1836 -1.71646,-0.14505 -2.44997,0.28265 -0.71847,0.4495 -1.15855,1.24886 -1.30587,2.06965 -0.0632,2.1581 -0.0349,4.31739 -0.0439,6.4761 h -3.58273 v -11.61118 h 3.58273 v 0.9617 c 0.009,0.12049 -0.0106,0.23797 -0.0196,0.35708 -0.009,0.2095 0.14052,0.44649 0.36639,0.44649 0.209,-0.006 0.33772,-0.19643 0.44752,-0.34933 0.73837,-0.96372 1.86288,-1.66256 3.08353,-1.76474 z m 25.2956,0 v 0 0 c 1.38623,-0.0273 2.7904,0.49403 3.77547,1.48103 0.14621,0.25061 0.5311,0.34493 0.75499,0.14314 0.0196,-0.41799 0.004,-0.84582 0.009,-1.26762 h 3.53417 v 17.8232 h -3.58172 c 0.003,-2.1632 0.003,-4.32633 0.003,-6.48954 0.006,-0.30779 -0.0124,-0.61785 0.0109,-0.92395 0.0106,-0.11591 -0.12044,-0.25892 -0.23564,-0.1819 -0.23942,0.21079 -0.46384,0.44011 -0.71729,0.63561 -1.13017,0.87979 -2.61718,1.22409 -4.03024,1.06918 -1.65454,-0.15899 -3.20614,-1.1198 -4.09897,-2.5218 -1.38986,-2.1636 -1.38192,-5.14485 0.0481,-7.28845 0.98076,-1.5054 2.73841,-2.44393 4.52684,-2.4789 z m 27.909937,0.3488 h 3.11867 l 1.11104,3.04477 c -0.31726,0.33731 -0.52658,0.78004 -0.6036,1.23454 -0.0606,2.44332 -0.0349,4.88826 -0.0429,7.33187 h -3.58323 z m 23.53498,0 h 3.58272 v 11.61118 h -3.58272 z m -66.308607,2.59932 c -0.787,-0.003 -1.5813,0.27312 -2.17246,0.79634 -0.78881,0.69789 -1.14605,1.80327 -1.02889,2.83808 0.0976,0.97157 0.66403,1.90333 1.53064,2.37143 1.19042,0.6513 2.78948,0.50758 3.80548,-0.40722 0.91027,-0.84571 1.21899,-2.23472 0.84439,-3.40704 -0.36912,-1.2782 -1.6547,-2.20559 -2.97916,-2.19159 z m 16.31374,0 c -0.68758,0.0114 -1.38838,0.18552 -1.95493,0.58602 -0.78327,0.5498 -1.22034,1.50119 -1.25934,2.4443 -0.0755,1.12689 0.48178,2.28833 1.44796,2.88663 1.20886,0.77901 2.94288,0.60942 3.96772,-0.40359 0.97742,-0.97391 1.20782,-2.58342 0.601,-3.81371 -0.49636,-1.05 -1.65105,-1.71564 -2.80241,-1.69965 z m 16.29925,0 c -0.72786,0.006 -1.4579,0.24323 -2.02985,0.69762 -0.80931,0.64151 -1.21566,1.7027 -1.16115,2.72182 0.0338,0.8867 0.44032,1.76401 1.14048,2.31871 1.22518,0.96681 3.15323,0.88349 4.278817,-0.2036 0.86691,-0.85929 1.143,-2.22229 0.7674,-3.37188 -0.38278,-1.27211 -1.674287,-2.18268 -2.995697,-2.16267 z" />
  </g>
</svg>
