<?xml version="1.0" encoding="UTF-8" standalone="no"?>
<svg
   width="89.109718mm"
   height="76.567497mm"
   viewBox="0 0 89.109717 76.567499"
   version="1.1"
   id="svg294"
   inkscape:version="1.1-alpha (ece1303cea, 2021-02-05)"
   sodipodi:docname="logo-latin-minimal.svg"
   inkscape:export-filename="/home/yugi/Dropbox/JOSA/Design and Branding/AmanRaqami/logo-latin-minimal-bw.png"
   inkscape:export-xdpi="300"
   inkscape:export-ydpi="300"
   xmlns:inkscape="http://www.inkscape.org/namespaces/inkscape"
   xmlns:sodipodi="http://sodipodi.sourceforge.net/DTD/sodipodi-0.dtd"
   xmlns="http://www.w3.org/2000/svg"
   xmlns:svg="http://www.w3.org/2000/svg">
  <sodipodi:namedview
     id="namedview296"
     pagecolor="#ffffff"
     bordercolor="#666666"
     borderopacity="1.0"
     objecttolerance="10.0"
     gridtolerance="10.0"
     guidetolerance="10.0"
     inkscape:pageshadow="2"
     inkscape:pageopacity="0.0"
     inkscape:pagecheckerboard="0"
     inkscape:document-units="mm"
     showgrid="false"
     fit-margin-top="0"
     fit-margin-left="0"
     fit-margin-right="0"
     fit-margin-bottom="0"
     inkscape:zoom="0.6289422"
     inkscape:cx="285.39983"
     inkscape:cy="92.218331"
     inkscape:window-width="1712"
     inkscape:window-height="912"
     inkscape:window-x="0"
     inkscape:window-y="27"
     inkscape:window-maximized="1"
     inkscape:current-layer="layer1" />
  <defs
     id="defs291" />
  <g
     inkscape:label="Layer 1"
     inkscape:groupmode="layer"
     id="layer1"
     transform="translate(36.283075,-90.6168)">
    <path
       id="path12188-82-7-3-3-4-3-1"
       style="font-size:10.5833px;line-height:1.25;white-space:pre;fill:#2bb3a5;fill-opacity:1;stroke:none;stroke-width:0.119065"
       d="m -20.14381,90.6168 c -6.11283,0 -10.94229,1.3399 -12.92635,3.5941 -1.80443,2.0498 -3.0253,6.3537 -3.1936,11.2572 -0.0106,0.3511 -0.0191,0.7017 -0.0191,1.0505 -0.009,5.235 1.24756,10.1774 3.18016,12.329 2.11394,2.3537 6.68832,3.6354 12.95889,3.6354 3.61104,0 6.18781,-0.3404 8.6527,-1.1415 4.26032,-1.3846 5.84623,-3.5706 6.78926,-9.356 0.20151,-1.2367 0.37084,-7.6125 0.2372,-8.9318 -0.13026,-1.2853 -0.48644,-3.321 -0.79841,-4.5614 -1.08299,-4.3048 -3.3506,-6.249 -8.50852,-7.2968 -2.06365,-0.4191 -3.80363,-0.5779 -6.37223,-0.5787 z m -0.0413,3.4375 c 1.15716,2.1558 2.065,4.4344 3.15225,6.6254 2.38517,-0.6064 4.80737,-1.3323 7.22387,-1.9368 -1.10848,2.2248 -2.24536,4.4562 -3.33574,6.6724 1.9784,1.4885 4.04739,2.857 5.96966,4.4184 -2.1477,0.4812 -4.30532,0.9204 -6.45953,1.3678 -0.55089,0.036 -1.00764,0.1478 -0.77309,0.7995 0.0435,2.2474 0.35552,4.5013 0.13642,6.7453 -1.8733,-1.5465 -3.73147,-3.1103 -5.62393,-4.6333 -1.91058,1.6296 -3.80458,3.2801 -5.6715,4.9599 0.045,-2.5175 0.0916,-5.035 0.13282,-7.552 -2.06076,-0.363 -4.12025,-0.7337 -6.17845,-1.111 -0.73599,-0.024 -1.01571,-0.2218 -0.37568,-0.7716 1.60737,-1.4429 3.41231,-2.6628 5.08701,-4.0307 -1.16207,-2.2148 -2.36797,-4.4067 -3.54809,-6.612 2.43547,0.5993 4.87209,1.194 7.30396,1.8081 0.86579,-1.9627 1.65886,-3.9576 2.55177,-5.9071 0.13605,-0.2809 0.27221,-0.5613 0.40825,-0.8423 z m 0.25837,7.2419 v 0.001 c -2.28703,-0.069 -4.42801,1.4278 -5.31336,3.5058 -1.33324,2.8506 0.0734,6.6063 2.97034,7.8501 0.36103,-0.6672 0.60563,-1.511 0.88419,-2.2463 0.0302,-0.4206 0.64889,-1.0348 0.12094,-1.279 -1.02108,-0.7289 -1.28797,-2.2458 -0.54623,-3.2639 0.7798,-1.234 2.7305,-1.3042 3.60754,-0.1411 0.94488,1.0721 0.54898,2.891 -0.68575,3.5683 0.32295,1.1211 0.78137,2.2635 1.21751,3.3682 0.4233,-0.1857 0.82057,-0.4284 1.18647,-0.7105 1.42412,-1.0617 2.29645,-2.8135 2.28512,-4.592 0.21543,-3.1348 -2.55595,-6.1537 -5.72677,-6.0606 z m -10.527,30.1382 h -5.1e-4 -0.3447 c -1.87467,0.068 -3.67831,1.1573 -4.59763,2.7983 -1.23571,2.1286 -1.1797,4.948 0.16896,7.0104 0.95279,1.4726 2.64724,2.4397 4.40129,2.5006 1.37459,0.062 2.7836,-0.3975 3.79357,-1.3462 0.15301,-0.1334 0.29514,-0.2892 0.47852,-0.3793 0.26073,-0.055 0.50179,0.2345 0.42583,0.4832 l -0.005,0.8935 h 3.53467 v -11.6107 h -3.58275 v 1.6893 c -0.99158,-1.3108 -2.63601,-2.0727 -4.27259,-2.0407 z m 39.93917,0 H 9.4849 9.06167 c -1.9132,0.067 -3.75714,1.2027 -4.65862,2.897 -1.19618,2.1433 -1.10133,4.9559 0.27956,6.9938 1.01615,1.5122 2.81656,2.4559 4.63848,2.4237 1.31416,-0.01 2.63412,-0.5033 3.58117,-1.4237 0.14803,-0.1203 0.28067,-0.3151 0.49093,-0.3132 0.24069,0.021 0.40153,0.2948 0.33332,0.5199 l -0.006,0.863 h 3.53518 v -11.6107 h -3.58272 v 1.6909 c -0.97377,-1.2892 -2.57979,-2.0488 -4.18785,-2.0423 z m -12.83798,0 c -1.04831,0.023 -2.03028,0.5243 -2.81895,1.1901 -0.38203,0.3208 -0.69369,0.7191 -1.07797,1.0361 -0.22198,0.046 -0.42275,-0.1409 -0.48318,-0.3421 -0.60468,-0.9801 -1.68177,-1.6128 -2.80551,-1.7901 -0.89773,-0.1626 -1.8552,-0.1211 -2.69235,0.2651 -0.47265,0.2094 -0.8837,0.5216 -1.28362,0.847 l 0.59788,1.6319 c 0.8642,-0.2453 1.86491,-0.033 2.49803,0.6176 0.51229,0.5581 0.70409,1.3456 0.66612,2.0887 0.006,2.1395 0.006,4.2792 0.006,6.4188 h 3.58275 c 0.003,-2.4398 -0.0109,-4.88 0.0367,-7.3195 0.11536,-0.6976 0.53761,-1.3723 1.19219,-1.6743 0.92948,-0.4279 2.12714,-0.2557 2.85202,0.4827 0.51165,0.5595 0.70816,1.3478 0.66868,2.0929 0.004,2.1393 0.006,4.2788 0.006,6.4182 h 3.58322 c -0.006,-2.8101 0.0188,-5.6211 -0.046,-8.4305 -0.10819,-0.8702 -0.44429,-1.746 -1.08934,-2.3616 -0.7406,-0.705 -1.75477,-1.0495 -2.759,-1.1426 -0.21045,-0.019 -0.42161,-0.032 -0.63304,-0.028 z m 31.33865,0.01 -5e-4,5e-4 c -0.94629,0.075 -1.8219,0.5206 -2.55127,1.1167 l 0.65061,1.7741 c 0.0611,-0.028 0.12078,-0.06 0.18343,-0.085 0.85688,-0.3266 1.90826,-0.1653 2.5735,0.4837 0.63942,0.5974 0.93617,1.5058 0.85989,2.3694 0,2.099 0.003,4.1978 0.004,6.2968 h 3.58272 c -0.006,-2.7938 0.0169,-5.5877 -0.0403,-8.3809 -0.1546,-1.2996 -1.0586,-2.4711 -2.26084,-2.9787 -0.92845,-0.4472 -1.97546,-0.6142 -3.00138,-0.5963 z m -47.07102,0.3457 v 11.6107 h 3.58273 c 0.007,-2.4434 -0.018,-4.887 0.0434,-7.3298 0.0723,-0.4303 0.26135,-0.8533 0.55036,-1.1834 l -1.12964,-3.0975 z m 3.23803,0 h 0.3447 z m 36.61637,0 v 11.6107 h 3.58273 c 0.003,-2.322 -0.008,-4.6443 0.0336,-6.966 0.0985,-0.5321 0.36801,-1.0135 0.73639,-1.4041 l -1.18184,-3.2406 z m -49.99021,2.5993 c 1.33027,-0.015 2.6198,0.921 2.98431,2.2061 0.36203,1.1535 0.0667,2.5135 -0.81341,3.3579 -1.16199,1.0866 -3.14036,1.1279 -4.34546,0.089 -0.81084,-0.7021 -1.16938,-1.8406 -1.01648,-2.8908 0.12396,-0.932 0.65347,-1.8261 1.47847,-2.2996 0.51451,-0.3065 1.11472,-0.4611 1.71257,-0.462 z m 39.8146,0 c 1.32625,-0.027 2.62594,0.8857 3.01067,2.1617 0.37867,1.1618 0.0936,2.5417 -0.79425,3.3992 -1.03897,0.9729 -2.72619,1.1154 -3.94034,0.3907 -0.67331,-0.3957 -1.15419,-1.08 -1.34564,-1.8329 -0.30017,-1.1247 3e-5,-2.4155 0.8418,-3.234 0.58986,-0.5716 1.41163,-0.8739 2.22776,-0.8847 z m 40.15002,7.3991 v 0 h -0.24392 c -1.06807,0.07 -2.00951,1.0204 -2.03658,2.094 -0.0352,0.9552 0.61199,1.9069 1.53739,2.1755 0.92708,0.2891 2.03573,-0.1114 2.52026,-0.9632 0.48316,-0.8029 0.39429,-1.928 -0.27286,-2.6024 -0.3878,-0.415 -0.93684,-0.6759 -1.50429,-0.7059 z m -9.68314,7.215 v 0 h -0.2005 c -1.0799,0.072 -2.07949,0.6191 -2.86131,1.3482 -0.38987,0.3583 -0.73647,0.7583 -1.07487,1.1648 -0.44283,-1.1936 -1.54996,-2.0864 -2.78175,-2.3492 -0.92988,-0.2175 -1.94575,-0.2499 -2.84118,0.1178 -0.51578,0.2104 -0.98118,0.521 -1.41438,0.8708 l 0.61029,1.6645 c 0.8469,-0.2159 1.80991,-1e-4 2.42776,0.6309 0.51282,0.5583 0.70763,1.3469 0.66921,2.0914 0.006,2.1398 0.006,4.2798 0.006,6.4197 h 3.58219 c 0.009,-2.4488 -0.018,-4.898 0.0429,-7.3463 0.12192,-0.7097 0.56891,-1.391 1.24696,-1.6743 0.92223,-0.3946 2.08957,-0.2128 2.79622,0.5152 0.51205,0.5613 0.70234,1.3523 0.66402,2.0981 0.006,2.1359 0.005,4.2715 0.006,6.4073 h 3.58273 c -0.005,-2.8021 0.0177,-5.6052 -0.0419,-8.4067 -0.10904,-0.9026 -0.4604,-1.8131 -1.14567,-2.435 -0.72851,-0.6629 -1.70236,-0.9951 -2.67116,-1.0914 -0.13316,-0.013 -0.26709,-0.022 -0.401,-0.027 z m -59.75448,0 -5.3e-4,5e-4 5.3e-4,5e-4 h -0.3824 c -1.92286,0.064 -3.77603,1.2105 -4.67828,2.9146 -1.22643,2.2027 -1.07755,5.1102 0.41341,7.1525 1.18941,1.6193 3.29742,2.5027 5.28444,2.1906 1.15536,-0.1631 2.24266,-0.7423 3.04684,-1.5844 0.15441,-0.1362 0.43616,-0.118 0.53329,0.079 0.12703,0.2156 0.0364,0.4721 0.0548,0.7064 0,0.1678 -0.003,0.3356 -0.004,0.5033 h 3.53521 v -11.6111 h -3.58275 v 1.6908 c -0.90382,-1.1954 -2.35067,-1.9364 -3.838,-2.0314 -0.12726,-0.01 -0.25487,-0.011 -0.3824,-0.011 z m 32.59077,5e-4 v 5e-4 h -0.32917 c -1.88772,0.063 -3.70732,1.1617 -4.62971,2.8153 -1.25243,2.17 -1.16152,5.0552 0.26615,7.1231 1.04365,1.5092 2.87152,2.4382 4.70564,2.3792 1.28558,-0.032 2.56389,-0.5333 3.49488,-1.4289 0.14303,-0.1351 0.29231,-0.3313 0.51366,-0.3043 0.23323,0.039 0.35095,0.3078 0.308,0.5235 -0.0209,0.2841 -0.009,0.569 -0.0129,0.8536 h 3.53465 v -11.6106 h -3.58272 v 1.6908 c -0.98968,-1.3107 -2.63314,-2.0716 -4.26794,-2.0422 z m -41.84137,5e-4 c -1.22065,0.1022 -2.34516,0.8011 -3.08353,1.7648 -0.10978,0.1529 -0.23852,0.3435 -0.44752,0.3493 -0.22585,0 -0.37505,-0.237 -0.36639,-0.4465 0.009,-0.1191 0.0285,-0.2366 0.0196,-0.3571 v -0.9617 h -3.58272 v 11.6112 h 3.58272 c 0.009,-2.1587 -0.0193,-4.318 0.0439,-6.4761 0.14732,-0.8208 0.58737,-1.6202 1.30585,-2.0697 0.7335,-0.4277 1.63599,-0.4662 2.44998,-0.2826 0.38429,0.084 0.75563,0.2247 1.09863,0.417 0.49073,-0.9939 0.98156,-1.9878 1.47228,-2.9817 -0.76306,-0.3991 -1.6301,-0.5937 -2.49238,-0.5669 z m 25.29562,0 c -1.78842,0.035 -3.5461,0.9735 -4.52686,2.4789 -1.42997,2.1436 -1.43796,5.1249 -0.0481,7.2885 0.89283,1.402 2.44443,2.3628 4.09897,2.5218 1.41306,0.1549 2.90007,-0.1894 4.03024,-1.0692 0.25345,-0.1955 0.47789,-0.4248 0.71729,-0.6356 0.1152,-0.077 0.24614,0.066 0.23564,0.1819 -0.0233,0.3061 -0.005,0.6161 -0.0108,0.9239 0,2.1632 3.2e-4,4.3264 -0.003,6.4896 h 3.5817 V 149.3611 H 1.89222 c -0.005,0.4218 0.0105,0.8496 -0.009,1.2676 -0.22389,0.2018 -0.6088,0.1074 -0.75501,-0.1432 -0.98507,-0.987 -2.38924,-1.5083 -3.77547,-1.481 h -5.1e-4 z m 27.90992,0.3488 v 11.6112 h 3.58325 c 0.008,-2.4436 -0.0177,-4.8886 0.0429,-7.3319 0.077,-0.4545 0.28631,-0.8972 0.60357,-1.2345 l -1.11104,-3.0448 z m 23.535,0 v 11.6112 h 3.58273 v -11.6112 z m -66.30863,2.5993 c 1.32445,-0.014 2.61004,0.9134 2.97916,2.1916 0.37462,1.1723 0.0659,2.5614 -0.84439,3.4071 -1.016,0.9148 -2.61504,1.0585 -3.80545,0.4072 -0.86662,-0.4681 -1.43306,-1.3999 -1.53067,-2.3715 -0.11716,-1.0348 0.24011,-2.1401 1.02889,-2.838 0.59118,-0.5232 1.38546,-0.799 2.17246,-0.7964 z m 16.31373,0 c 1.15137,-0.016 2.30606,0.6497 2.80242,1.6997 0.60682,1.2303 0.37642,2.8398 -0.601,3.8137 -1.02484,1.013 -2.75887,1.1826 -3.96772,0.4036 -0.96618,-0.5983 -1.52347,-1.7598 -1.44796,-2.8867 0.039,-0.9431 0.47607,-1.8944 1.25934,-2.4442 0.56655,-0.4005 1.26735,-0.5748 1.95492,-0.5861 z m 16.29926,0 c 1.32141,-0.02 2.61292,0.8906 2.9957,2.1627 0.37562,1.1496 0.0995,2.5126 -0.7674,3.3719 -1.12559,1.0871 -3.05364,1.1704 -4.27882,0.2036 -0.70016,-0.5547 -1.10667,-1.432 -1.14048,-2.3187 -0.0545,-1.0191 0.35184,-2.0803 1.16117,-2.7218 0.57195,-0.4544 1.30197,-0.6916 2.02983,-0.6977 z" />
  </g>
</svg>
