<?xml version="1.0" encoding="UTF-8" standalone="no"?>
<!-- Created with Inkscape (http://www.inkscape.org/) -->

<svg
   xmlns:dc="http://purl.org/dc/elements/1.1/"
   xmlns:cc="http://creativecommons.org/ns#"
   xmlns:rdf="http://www.w3.org/1999/02/22-rdf-syntax-ns#"
   xmlns:svg="http://www.w3.org/2000/svg"
   xmlns="http://www.w3.org/2000/svg"
   xmlns:sodipodi="http://sodipodi.sourceforge.net/DTD/sodipodi-0.dtd"
   xmlns:inkscape="http://www.inkscape.org/namespaces/inkscape"
   width="262.79428mm"
   height="78.009392mm"
   viewBox="0 0 262.79428 78.009392"
   version="1.1"
   id="svg8"
   inkscape:version="0.92.3 (unknown)"
   sodipodi:docname="josa-logo-arabic.svg"
   inkscape:export-filename="/home/issa/JOSA/Design and Branding/Logo/josa-logo-arabic-300dpi.png"
   inkscape:export-xdpi="300.02078"
   inkscape:export-ydpi="300.02078">
  <defs
     id="defs2" />
  <sodipodi:namedview
     id="base"
     pagecolor="#ffffff"
     bordercolor="#666666"
     borderopacity="1.0"
     inkscape:pageopacity="0.0"
     inkscape:pageshadow="2"
     inkscape:zoom="1.4519531"
     inkscape:cx="570.93771"
     inkscape:cy="-19.527456"
     inkscape:document-units="mm"
     inkscape:current-layer="layer1"
     showgrid="false"
     fit-margin-top="0"
     fit-margin-left="0"
     fit-margin-right="0"
     fit-margin-bottom="0"
     inkscape:window-width="2560"
     inkscape:window-height="1392"
     inkscape:window-x="0"
     inkscape:window-y="48"
     inkscape:window-maximized="1" />
  <metadata
     id="metadata5">
    <rdf:RDF>
      <cc:Work
         rdf:about="">
        <dc:format>image/svg+xml</dc:format>
        <dc:type
           rdf:resource="http://purl.org/dc/dcmitype/StillImage" />
        <dc:title></dc:title>
      </cc:Work>
    </rdf:RDF>
  </metadata>
  <g
     inkscape:label="Layer 1"
     inkscape:groupmode="layer"
     id="layer1"
     transform="translate(49.142937,-55.817111)">
    <path
       style="fill:#333333;stroke-width:0.28222221"
       d="m -43.514439,122.73199 c -3.955505,-0.77605 -5.402516,-1.88599 -5.60249,-4.29741 -0.16069,-1.93771 0.416404,-3.09922 1.921307,-3.86696 1.532883,-0.78202 4.930922,-1.17264 8.246075,-0.94794 1.563419,0.10598 2.756975,0.0777 2.763958,-0.0655 0.0068,-0.1386 0.119423,-0.80661 0.250362,-1.48445 0.33742,-1.74676 -0.08324,-3.02862 -1.193016,-3.63544 -0.750873,-0.41057 -1.609518,-0.49126 -5.066859,-0.4762 l -4.162778,0.0181 v -1.64092 -1.6409 h 1.128889 c 0.918105,0 1.128889,0.0994 1.128889,0.53241 0,0.49114 0.305324,0.5408 3.937864,0.64055 3.417013,0.0938 4.042271,0.18449 4.727222,0.68524 1.30694,0.9555 1.838098,2.38469 1.821593,4.90137 -0.01392,2.12286 0.01503,2.22527 0.676054,2.39117 0.567324,0.14239 0.6906,0.34883 0.6906,1.15651 v 0.98318 l -5.291667,-0.18036 c -7.416304,-0.25277 -9.66611,0.3029 -9.66611,2.38739 0,2.31491 3.427311,3.19238 9.595555,2.45669 1.940278,-0.23142 3.623028,-0.42328 3.739444,-0.42636 0.116417,-0.003 0.211667,0.54823 0.211667,1.22511 v 1.2307 l -1.481667,0.17796 c -2.03683,0.24465 -6.85993,0.17326 -8.374892,-0.12397 z m 14.089892,0.0558 c -0.592284,-0.1635 -0.71968,-0.38946 -0.793538,-1.40752 -0.08262,-1.13878 -0.04988,-1.20066 0.53669,-1.01449 0.34357,0.10905 1.526162,0.20372 2.627983,0.21039 2.412545,0.0146 3.571831,-0.49914 4.223031,-1.87144 0.805834,-1.69817 0.715664,-1.79065 -1.87861,-1.92682 -4.115944,-0.21603 -6.373558,-1.95947 -6.62118,-5.11319 -0.344845,-4.39195 3.7017,-6.98896 10.118821,-6.49411 2.222619,0.1714 2.229025,0.1742 2.229025,0.97673 0,0.61668 -0.13195,0.80483 -0.564444,0.80483 -0.537566,0 -0.564445,0.18815 -0.564445,3.95111 v 3.95111 h 3.238893 3.238889 l 0.07722,-4.86833 0.07722,-4.86833 1.340555,-0.086 1.340556,-0.086 v 1.00324 c 0,0.55178 -0.127,1.00324 -0.282222,1.00324 -0.17471,0 -0.282222,1.50519 -0.282222,3.95111 v 3.95111 h 2.9863508 2.9863512 l -0.5984549,-0.96832 c -1.4056332,-2.27436 -0.9862961,-5.5097 0.9562639,-7.37793 2.75465,-2.64923 7.043251,-2.21026 9.203236,0.94203 0.596273,0.87021 0.694029,1.33379 0.694029,3.29132 0,1.95345 -0.09667,2.41401 -0.67772,3.22869 l -0.677717,0.95022 2.158408,-0.10899 c 1.87461,-0.0947 2.255734,-0.20633 2.89865,-0.84924 0.652363,-0.65236 0.746221,-0.98734 0.790584,-2.82147 0.05973,-2.46964 0.864142,-4.40832 2.234796,-5.386 0.820248,-0.58508 1.255119,-0.6443 5.337999,-0.72695 l 4.445,-0.09 v 3.66322 3.66322 l 0.917222,0.77341 c 0.504472,0.42538 1.325894,0.94466 1.82538,1.15398 1.12601,0.47185 4.081489,0.49914 4.538731,0.0419 0.246868,-0.24687 0.338667,-2.42711 0.338667,-8.04334 v -7.704655 h 2.257778 2.257777 v 0.84666 c 0,0.775905 -0.08077,0.846665 -0.966385,0.846665 h -0.966385 l -0.09195,7.12611 c -0.11846,9.18086 -0.137871,9.21923 -4.688349,9.268 -2.332062,0.025 -2.746104,-0.054 -4.268662,-0.81487 -1.634354,-0.8167 -1.70064,-0.8265 -2.159646,-0.3193 -0.825887,0.91259 -2.75356,1.27931 -6.080907,1.15684 -0.865112,-0.0318 -1.652086,-0.28603 -2.348269,-0.75847 -1.032095,-0.7004 -1.05793,-0.70315 -1.803273,-0.19232 -1.626763,1.11492 -2.613505,1.18512 -16.6585414,1.18512 H -20.100461 l -0.166954,0.77611 c -0.326799,1.51918 -1.084402,2.93239 -2.005619,3.74123 -1.56357,1.37284 -4.936007,2.05213 -7.151513,1.4405 z m 7.055556,-11.92335 v -3.98997 l -1.622778,0.18963 c -2.735007,0.31959 -5.004548,1.78613 -5.313607,3.43356 -0.179138,0.95488 0.424893,2.62538 1.174152,3.24721 0.740527,0.61457 2.514398,1.08474 4.139455,1.09715 l 1.622778,0.0124 z m 23.003994,3.58362 c 2.879471,-1.20313 2.834886,-6.18726 -0.06619,-7.39941 -4.544187,-1.89868 -7.3116609,5.09211 -2.894403,7.31142 1.193695,0.59973 1.699793,0.61477 2.960592,0.088 z m 18.05771,-0.43897 c 0.36397,-0.30207 0.428156,-0.94595 0.363002,-3.64137 l -0.07915,-3.27443 -2.501499,-0.082 c -2.871312,-0.0941 -3.643164,0.2272 -4.295408,1.78823 -0.830236,1.98704 -0.1965,4.6472 1.293574,5.42986 0.879543,0.46198 4.58588,0.30556 5.219483,-0.22028 z m 28.757117,7.78028 c -0.08501,-0.22154 -0.112779,-0.69608 -0.0617,-1.05453 0.0729,-0.51159 0.323548,-0.68901 1.165558,-0.8251 0.589975,-0.0953 1.224975,-0.3254 1.411111,-0.51122 0.237742,-0.23733 0.380411,-2.49592 0.479538,-7.59155 l 0.141111,-7.25369 h 1.834445 1.834444 l 0.08844,0.91723 c 0.07831,0.81216 0.0082,0.91722 -0.6119,0.91722 h -0.70034 l -0.09365,6.47104 c -0.0869,6.00401 -0.135586,6.5285 -0.674622,7.26722 -1.118616,1.533 -4.424047,2.67549 -4.812433,1.66337 z m 8.638955,-6.49912 c 0,-1.55045 0.0077,-1.56473 0.846666,-1.56473 0.525924,0 0.846667,0.14547 0.846667,0.38401 0,0.48848 1.990897,0.73914 5.896316,0.74242 l 2.932981,0.003 -0.182285,-1.74401 c -0.399065,-3.81804 -1.614779,-4.82258 -6.03436,-4.98618 l -2.894874,-0.10724 v -1.80243 -1.80244 h 0.846666 c 0.714962,0 0.846667,0.10976 0.846667,0.70556 0,0.38805 0.09858,0.70555 0.219069,0.70555 0.12049,0 1.276864,0.13264 2.569721,0.29474 4.817818,0.6041 6.095393,1.9144 6.660783,6.83137 l 0.186597,1.62277 h 1.108583 1.10858 v -2.96333 -2.96333 h 1.128889 1.128889 v 2.96333 c 0,2.44593 0.07391,2.96333 0.423333,2.96333 0.278799,0 0.423334,-0.27892 0.423334,-0.81693 0,-1.4511 1.122022,-4.51783 2.032205,-5.55447 1.67368,-1.90621 4.257255,-2.69253 10.077548,-3.06711 l 2.93753,-0.18905 -0.18925,4.81378 -0.18924,4.81378 h 1.95182 1.95182 l -0.56646,-1.48166 c -0.7015,-1.83489 -0.55666,-3.92884 0.38881,-5.62113 1.30654,-2.33856 2.62783,-2.73472 8.48688,-2.54458 l 2.75167,0.0893 v 3.59734 c 0,3.56329 0.007,3.60409 0.77611,4.31069 1.08075,0.99336 2.36004,1.43938 4.23591,1.47686 1.5633,0.0312 1.60962,0.0102 1.79078,-0.8146 0.10229,-0.46567 0.201,-4.05342 0.21936,-7.97278 l 0.0334,-7.126105 h 2.11667 2.11667 v 0.84666 c 0,0.779465 -0.0784,0.846665 -0.98778,0.846665 h -0.98778 v 6.1838 6.1838 l 0.8595,0.72322 c 0.99079,0.83369 2.7339,1.37391 4.02797,1.24832 1.21208,-0.11763 1.24801,-0.36608 1.28803,-8.90636 l 0.0334,-7.126105 h 2.11667 2.11666 v 0.84666 c 0,0.779465 -0.0784,0.846665 -0.98777,0.846665 h -0.98778 l -0.002,6.70278 c -0.002,7.21639 -0.18915,8.56156 -1.29396,9.28546 -0.9571,0.62711 -4.08159,0.57294 -6.09153,-0.10561 -1.5241,-0.51453 -1.56764,-0.51413 -2.28442,0.021 -1.53672,1.14733 -5.66302,0.45833 -7.41298,-1.2378 l -0.85878,-0.83237 -0.4786,0.81021 c -0.754,1.27642 -2.0445,1.72704 -4.90414,1.71247 -1.39034,-0.007 -2.87266,-0.17471 -3.34402,-0.37813 -0.68302,-0.29479 -0.95576,-0.29662 -1.41111,-0.01 -0.43156,0.2721 -4.89991,0.39729 -18.979444,0.53176 l -18.415,0.17587 v -1.56473 z m 31.044445,-4.68198 v -3.9639 l -0.91722,0.14044 c -0.50448,0.0772 -1.71378,0.21661 -2.687352,0.30973 -2.099406,0.20079 -3.673695,0.71698 -4.858659,1.59306 -0.985565,0.72866 -2.154078,2.99852 -2.429137,4.71864 l -0.186442,1.16594 h 5.539404 5.539406 z m 14.02411,3.23207 c 0.28461,-0.38923 0.36561,-1.34806 0.30729,-3.6378 l -0.0792,-3.10926 -2.5362,-0.0825 c -1.57388,-0.0512 -2.77374,0.0446 -3.16223,0.25252 -2.04741,1.09574 -1.91403,5.85825 0.1951,6.96607 1.08393,0.56934 4.7734,0.29726 5.27522,-0.38902 z m -65.388555,-6.32372 v -9.031105 h 2.275659 2.27566 l -0.08844,0.91722 c -0.07776,0.806505 -0.199148,0.927895 -1.00566,1.005655 l -0.917222,0.0884 v 8.02545 8.02545 h -1.27 -1.27 z m -52.775554,-5.4871 v -1.28623 h 1.286227 1.286228 l -0.08678,1.19945 c -0.08636,1.19361 -0.09261,1.19986 -1.286228,1.28623 l -1.199444,0.0868 z m 3.386666,-0.0162 v -1.27001 h 1.27 1.27 v 1.27001 1.27 h -1.27 -1.27 z m 12.472106,-0.49388 c 0.08636,-1.19362 0.09261,-1.19987 1.286227,-1.28623 l 1.199445,-0.0868 v 1.28623 1.28622 H 0.051447 -1.234781 Z m 6.436783,-5.656475 c 0,-0.85696 0.09473,-0.95458 1.217851,-1.25497 0.86126,-0.23035 1.315754,-0.5406 1.552222,-1.05959 0.227948,-0.50029 0.334371,-2.88543 0.334371,-7.49392 v -6.76005 h 1.834445 1.834444 v 0.84666 c 0,0.65852 -0.125431,0.84667 -0.564445,0.84667 -0.544496,0 -0.564444,0.18815 -0.564444,5.3237 0,5.9583 -0.273806,8.01191 -1.202735,9.02076 -0.809978,0.87967 -2.179249,1.45998 -3.444867,1.45998 -0.939139,0 -0.996842,-0.0538 -0.996842,-0.92924 z m -23.988889,-0.60675 v -1.28623 h 1.286228 1.286228 l -0.08678,1.19945 c -0.08636,1.19361 -0.09261,1.19986 -1.286228,1.28622 l -1.199445,0.0868 z m -3.61456,-0.22789 c 0.08636,-1.19362 0.09261,-1.19987 1.286227,-1.28623 l 1.199445,-0.0868 v 1.28623 1.28623 h -1.286228 -1.286227 z m 76.992337,-0.36901 v -1.28623 l 1.199444,0.0868 c 1.193614,0.0864 1.199865,0.0926 1.286228,1.28622 l 0.08678,1.19945 h -1.286228 -1.286227 z m 3.440994,0.0868 c 0.08636,-1.19361 0.09261,-1.19986 1.286228,-1.28622 l 1.199444,-0.0868 v 1.28623 1.28623 h -1.286228 -1.286227 z m 42.198362,1.02473 c -0.11087,-0.11087 -0.20158,-0.68841 -0.20158,-1.28343 v -1.08185 h 1.28623 1.28623 l -0.0868,1.19944 c -0.0832,1.15002 -0.1279,1.20291 -1.08465,1.28343 -0.54882,0.0462 -1.08857,-0.007 -1.19944,-0.11759 z m -137.300718,-4.57501 c -3.244707,-1.15816 -4.528791,-3.79485 -3.292111,-6.75989 1.129438,-2.70792 3.11373,-3.64353 8.02903,-3.78575 l 2.963333,-0.0857 0.141111,4.00866 c 0.09673,2.74779 0.25641,4.12371 0.507676,4.37444 0.252829,0.25229 1.544425,0.39627 4.162778,0.46403 l 3.796213,0.0982 v -4.82547 -4.82547 h 1.411111 1.411111 v 0.98778 c 0,0.54328 -0.127,0.98778 -0.282222,0.98778 -0.17421,0 -0.282222,1.45815 -0.282222,3.81 v 3.81 h 2.963333 2.963333 v -4.79778 -4.79778 h 1.411111 1.4111113 v 0.98778 c 0,0.54328 -0.127,0.98778 -0.2822222,0.98778 -0.1770801,0 -0.2822221,1.7874 -0.2822221,4.79777 v 4.79778 l -1.905,0.0309 c -7.623192,0.12356 -15.577701,-0.0958 -16.895952,-0.46601 -1.285184,-0.36089 -1.543317,-0.35617 -2.343258,0.0429 -1.418227,0.7075 -3.872845,0.77671 -5.606042,0.15806 z m 3.770076,-1.7761 c 0.692263,-0.17431 1.306566,-0.39656 1.365118,-0.49389 0.05855,-0.0973 0.199914,-1.562 0.314137,-3.25485 l 0.207678,-3.0779 -1.953126,0.16375 c -2.30765,0.19346 -4.140738,0.86233 -4.692154,1.71209 -1.163224,1.7926 -0.607007,3.85443 1.269568,4.70614 1.415551,0.64246 1.801487,0.66953 3.488779,0.24466 z m 47.251286,1.16361 c 0,-1.06618 0.04704,-1.12889 0.846667,-1.12889 h 0.846667 v -6.49111 -6.49111 h 1.693333 1.693333 v 0.87308 c 0,0.63574 -0.153444,0.91322 -0.564444,1.0207 -0.539953,0.1412 -0.564445,0.38495 -0.564445,5.61802 v 5.47042 h 1.919112 c 1.116346,0 2.060775,-0.14167 2.257777,-0.33867 0.246869,-0.24687 0.338667,-2.42711 0.338667,-8.04333 v -7.70467 H 24.78 27.05566 l -0.08844,0.91722 c -0.07712,0.79981 -0.202274,0.92828 -0.977694,1.00358 l -0.889253,0.0864 -0.09852,7.12303 c -0.111173,8.03778 -0.192179,8.37499 -2.141962,8.91647 -0.583551,0.16205 -2.807254,0.29536 -4.941559,0.29622 l -3.880556,0.002 z m 15.24,-8.05521 v -9.18409 l 2.187222,0.0824 2.187222,0.0824 0.08844,0.91722 c 0.08666,0.89884 0.06545,0.91723 -1.058334,0.91723 h -1.14677 v 8.18444 8.18444 h -1.128889 -1.128889 z m -36.9711102,7.49076 v -1.41111 h 0.9877777 c 0.6898753,0 0.9877775,0.12767 0.9877775,0.42333 0,0.35825 0.678567,0.42334 4.413755,0.42334 H 3.109629 L 2.94379,88.054205 c -0.50671,-4.27838 -2.157465,-5.93753 -5.90747,-5.93753 -0.699894,0 -1.669409,-0.0794 -2.154478,-0.17639 -0.8676842,-0.17354 -0.8819449,-0.2032 -0.8819449,-1.83444 0,-1.65178 0.00318,-1.65806 0.8412899,-1.65806 0.648561,0 0.879563,0.1525 1.008361,0.66567 0.150173,0.59834 0.412405,0.69999 2.592682,1.00499 5.116153,0.71571 6.30599,2.15142 6.509252,7.85434 l 0.123221,3.45722 h -6.384069 -6.3840702 z m 60.6074182,0.97836 c -0.581976,-0.21957 -1.428806,-0.5909 -1.881846,-0.82517 -0.730109,-0.37756 -0.937554,-0.37839 -1.825577,-0.007 -1.16781,0.48794 -3.798801,0.54507 -5.343861,0.11603 -1.399294,-0.38856 -3.176185,-2.00661 -3.594055,-3.27277 -0.623781,-1.89007 0.313027,-4.74462 1.952879,-5.95059 1.090101,-0.8017 3.658656,-1.48074 5.601002,-1.48074 1.138899,0 1.492927,-0.10039 1.492927,-0.42333 0,-0.30574 0.31358,-0.42334 1.128889,-0.42334 h 1.128889 v 4.34521 4.34521 l 0.997599,0.8759 c 0.87737,0.77034 1.200489,0.8759 2.681111,0.8759 h 1.683512 v -4.79777 -4.79778 h 1.552223 1.552222 v 0.98778 c 0,0.68987 -0.127672,0.98777 -0.423334,0.98777 -0.355391,0 -0.423333,0.61149 -0.423333,3.81 v 3.81 h 2.66722 c 2.810256,0 5.14278,-0.36953 5.920049,-0.93788 0.408511,-0.29871 0.155278,-0.66323 -2.085597,-3.0022 l -2.550561,-2.66222 v -1.49662 -1.49663 h 4.332709 c 4.044919,0 4.396404,0.0428 5.291667,0.64488 0.736718,0.49543 1.039264,0.96802 1.305475,2.0392 0.425258,1.71115 0.139395,2.96413 -1.051238,4.60776 -0.466127,0.64347 -0.847502,1.22007 -0.847502,1.28134 0,0.42667 2.189088,1.02237 3.75701,1.02237 1.705116,0 1.889811,-0.0625 2.567903,-0.86832 0.620912,-0.73791 0.730642,-1.14193 0.730642,-2.69017 0,-1.96683 0.507351,-3.52043 1.495138,-4.57836 1.212931,-1.29906 1.894018,-1.4587 6.223546,-1.4587 h 4.07781 l 0.18836,3.59833 c 0.10359,1.97909 0.23701,3.75088 0.29649,3.93732 0.0595,0.18645 0.78125,0.725 1.60395,1.1968 l 1.49582,0.85781 5.26603,0.003 5.26604,0.003 0.35137,-1.96617 c 0.74543,-4.17095 -0.0882,-4.80586 -6.31141,-4.80651 l -4.17687,-4.4e-4 0.0846,-1.62278 0.0846,-1.62277 1.05833,-0.0876 c 0.90887,-0.0752 1.05834,-0.005 1.05834,0.49389 0,0.54786 0.16096,0.58148 2.7837,0.58148 5.14894,0 6.62528,0.58805 7.54903,3.00687 0.37364,0.97835 0.42936,1.71912 0.27366,3.63804 l -0.19551,2.40954 2.34197,-0.0822 2.34197,-0.0822 0.18031,-0.84666 c 0.0992,-0.46567 0.19533,-4.05342 0.2137,-7.97278 l 0.0334,-7.12611 h 2.11667 2.11666 v 0.98778 c 0,0.94074 -0.047,0.98777 -0.98777,0.98777 h -0.98778 l -0.0159,6.70278 c -0.0181,7.63012 -0.1616,8.41455 -1.6774,9.17179 -0.87339,0.4363 -1.95269,0.4935 -9.31944,0.49388 -7.28052,2.9e-4 -8.57241,-0.0663 -10.23987,-0.52869 -1.04951,-0.29102 -2.1602,-0.75718 -2.4682,-1.03592 -0.54208,-0.49058 -0.58514,-0.4827 -1.3459,0.24616 -1.57362,1.50761 -6.360421,1.68111 -8.389598,0.30407 -0.915628,-0.62136 -1.050186,-0.64211 -1.643442,-0.25339 -2.204602,1.4445 -5.853597,1.53596 -8.621548,0.21609 -1.357861,-0.64749 -1.626514,-0.6897 -2.398888,-0.37693 -2.808715,1.13739 -3.420395,1.22453 -9.195339,1.30995 -4.468125,0.0661 -6.026503,-0.005 -6.843691,-0.31365 z m 35.576768,-2.21524 c 0.23048,-0.14245 0.33581,-1.30883 0.33581,-3.71866 v -3.51113 h -2.38051 c -3.066036,0 -3.71837,0.26124 -4.399485,1.7618 -0.669913,1.47589 -0.693812,2.40236 -0.100239,3.88585 0.647787,1.61898 1.484754,2.0067 4.074984,1.8877 1.1735,-0.0539 2.28475,-0.19141 2.46944,-0.30556 z m -40.398859,-0.47411 c 0.433807,-0.16493 0.884629,-0.45068 1.00183,-0.635 0.288163,-0.45319 0.281096,-5.76845 -0.0079,-5.94707 -0.372915,-0.23047 -4.336991,0.40276 -5.148586,0.82245 -1.479256,0.76495 -2.159412,2.93805 -1.377095,4.39982 0.762838,1.42538 3.554406,2.11159 5.531762,1.3598 z m 23.347349,-2.90189 c 0.580684,-0.71745 0.8491,-1.35984 0.8491,-2.03213 0,-1.59481 -0.478562,-1.83552 -4.020865,-2.02239 -1.749964,-0.0923 -3.147579,-0.0558 -3.147579,0.0823 0,0.39441 4.900501,5.21121 5.200147,5.11133 0.148553,-0.0495 0.652193,-0.56213 1.119197,-1.13913 z m 47.93397,-3.07767 0.0745,-9.10167 2.18722,-0.0824 2.18723,-0.0824 v 0.99965 c 0,0.9543 -0.0448,0.99964 -0.98778,0.99964 h -0.98778 v 8.18445 8.18444 h -1.27391 -1.27391 z m -154.442201,-4.86834 v -1.27 h 1.27 1.27 v 1.27 1.27 h -1.27 -1.27 z m 3.386666,0 v -1.27 h 1.128889 1.128889 v 1.27 1.27 h -1.128889 -1.128889 z m 19.191111,0.0162 v -1.28623 h 1.286228 1.2862276 l -0.086783,1.19945 c -0.08636,1.19361 -0.09261,1.19986 -1.286228,1.28622 l -1.199445,0.0868 v -1.28623 z m 58.325926,0.21896 c -0.103483,-0.10348 -0.188149,-0.67498 -0.188149,-1.27 v -1.08185 h 1.27 1.27 v 1.27 1.27 h -1.081851 c -0.595021,0 -1.166521,-0.0847 -1.27,-0.18815 z m 3.198517,-1.06563 v -1.28622 h 1.286228 1.286228 l -0.08678,1.19944 c -0.08636,1.19361 -0.09261,1.19987 -1.286227,1.28623 l -1.199445,0.0868 z m -34.585435,-2.28726 c 0.674856,-0.61851 0.819252,-0.96058 0.758819,-1.79758 -0.09984,-1.38281 0.707464,-2.13431 2.227668,-2.07369 0.607463,0.0242 1.178729,-0.0761 1.269481,-0.22293 0.374494,-0.60595 0.978357,-0.24816 0.978357,0.57968 0,0.8265 -0.03321,0.84667 -1.394455,0.84667 -1.516696,0 -1.848273,0.24859 -1.55674,1.16713 0.169356,0.53359 0.337639,0.58011 1.570437,0.4341 1.378051,-0.16321 1.380758,-0.16189 1.380758,0.66984 v 0.83337 l -2.328334,0.004 c -1.280583,0.002 -2.645833,0.0758 -3.033888,0.16364 -0.701275,0.15882 -0.700498,0.15516 0.127897,-0.60408 z"
       id="path187"
       inkscape:connector-curvature="0"
       sodipodi:nodetypes="cscccccccccssccccscssscsccccccccscscssscccccccssscccsccscccccccccccccscccsscscccccsscscccccccccccccccccscccsccccccsccccsccccccssccsccccssscscccccccssscscccccccscscccccccsscccccscccsscccccccccccsccccccccscccccccccccccccccccccccccccccccccccccccccccccccccscsscccssscssccccccccccccccccccccccccsccccccscsccccccccscccsccccccssscccccccsssccccccccsccccccscccccscscscsccccccscccccccccsccccccccssscsscssccsccccccccccsssccccscccccssscscccccscscsscsssccccccccsccccsscsccccscccsscscccccccccccccscscscccscsccccscscccccccssccccccccccccccccccccccccccccscccccscccccscccccccccccccssccsccccc"
       inkscape:export-xdpi="300.02078"
       inkscape:export-ydpi="300.02078" />
    <path
       style="fill:#2cafce;fill-opacity:1;stroke-width:0.28222221"
       d="m 156.48846,128.16253 c 0.0383,-3.20609 0.14765,-8.404 0.24295,-11.55092 l 0.17327,-5.72166 1.74221,1.78561 c 0.95822,0.98209 2.34373,2.19947 3.07893,2.7053 1.72366,1.18591 4.89723,2.67113 5.24643,2.45532 0.33926,-0.20968 2.75304,-6.31526 4.25667,-10.76708 l 1.13569,-3.36249 -0.61799,-0.42334 c -1.60455,-1.09914 -3.31577,-3.11971 -3.6306,-4.286927 -0.44368,-1.64492 -0.15756,-3.69461 0.72627,-5.202737 2.03545,-3.47324 6.85998,-3.937 9.58448,-0.9213 1.29696,1.43558 1.55757,2.146397 1.55757,4.248357 0,2.5096 -0.6281,3.578257 -3.4979,5.951357 l -0.81678,0.67542 0.63111,1.95514 c 0.99638,3.08671 3.28663,9.21457 4.01097,10.73185 0.55796,1.16876 0.7698,1.37097 1.36593,1.30384 1.35671,-0.15276 4.8881,-2.45737 7.22999,-4.71833 l 2.3386,-2.25778 0.16529,2.82223 c 0.29639,5.06053 0.70292,15.18559 0.70566,17.5752 l 0.003,2.3352 -4.86833,-4.03228 c -4.09967,-3.39563 -11.68597,-9.572 -12.81084,-10.42991 -0.34549,-0.2635 -2.35944,1.38687 -11.95416,9.79614 -3.02683,2.65285 -5.63033,4.8998 -5.78555,4.99321 -0.1854,0.11157 -0.25832,-1.83008 -0.21255,-5.65942 z m -10.65301,-19.53827 c -5.82083,-1.06616 -10.8761,-2.00972 -11.23392,-2.0968 -0.61825,-0.15045 -0.59019,-0.20904 0.56445,-1.17888 0.66826,-0.56131 4.56421,-3.63688 8.65766,-6.834597 4.09346,-3.19772 7.63581,-5.968277 7.8719,-6.156787 0.37581,-0.30008 0.2957,-0.59872 -0.64349,-2.39889 -1.19973,-2.299537 -6.38656,-12.011231 -8.45362,-15.828371 -0.73964,-1.365837 -1.29146,-2.536687 -1.22627,-2.601867 0.0652,-0.0652 5.16411,1.12895 11.33093,2.653647 6.16682,1.52469 11.26226,2.69151 11.32318,2.59293 0.0609,-0.0986 2.10062,-4.810717 4.53264,-10.471404 2.43202,-5.660687 4.50541,-10.378255 4.60753,-10.483485 0.10212,-0.10523 1.63703,2.942768 3.4109,6.773328 1.77387,3.830567 3.98889,8.525164 4.92226,10.432454 l 1.69704,3.467797 0.86329,-0.18832 c 0.47481,-0.10358 5.49081,-1.43924 11.14666,-2.968147 5.65584,-1.5289 10.33038,-2.73279 10.38785,-2.67532 0.0575,0.0575 -2.18879,4.689687 -4.99169,10.293814 -2.8029,5.604127 -5.09048,10.285244 -5.08351,10.402504 0.007,0.11726 4.18757,3.26119 9.29022,6.986527 6.92083,5.052737 9.15795,6.824427 8.80676,6.974507 -0.79363,0.33916 -21.24835,4.51532 -21.39544,4.36823 -0.0758,-0.0758 0.25052,-0.9072 0.72519,-1.84751 0.47467,-0.94032 1.20849,-2.69942 1.6307,-3.90912 0.70924,-2.03203 0.76848,-2.54315 0.77823,-6.714997 0.009,-4.027177 -0.0619,-4.729217 -0.65972,-6.491107 -2.1384,-6.302807 -5.96736,-10.833604 -11.46529,-13.566881 -3.43041,-1.70541 -5.85997,-2.18725 -10.16,-2.01496 -5.55614,0.22262 -9.43985,1.81895 -13.45724,5.531367 -4.62766,4.276357 -7.28609,10.185564 -7.28609,16.195621 0,4.450897 1.43195,9.265687 3.77505,12.693177 0.39792,0.58208 0.63207,1.04521 0.52033,1.02918 -0.11173,-0.016 -4.96566,-0.90148 -10.78649,-1.96764 z"
       id="path185"
       inkscape:connector-curvature="0"
       sodipodi:nodetypes="cscscccccscsscccscsccccscccccsccsccccccssscccssscccscccccsssccs"
       inkscape:export-xdpi="300.02078"
       inkscape:export-ydpi="300.02078" />
  </g>
</svg>
