<?xml version="1.0" encoding="UTF-8" standalone="no"?>
<svg
   width="110.94725mm"
   height="110.94747mm"
   viewBox="0 0 110.94725 110.94747"
   version="1.1"
   id="svg294"
   inkscape:version="1.1-alpha (ece1303cea, 2021-02-05)"
   sodipodi:docname="logo-arabic-full.svg"
   inkscape:export-filename="/home/yugi/Dropbox/JOSA/Design and Branding/AmanRaqami/logo-arabic-minimal.png"
   inkscape:export-xdpi="300"
   inkscape:export-ydpi="300"
   xmlns:inkscape="http://www.inkscape.org/namespaces/inkscape"
   xmlns:sodipodi="http://sodipodi.sourceforge.net/DTD/sodipodi-0.dtd"
   xmlns="http://www.w3.org/2000/svg"
   xmlns:svg="http://www.w3.org/2000/svg">
  <sodipodi:namedview
     id="namedview296"
     pagecolor="#ffffff"
     bordercolor="#666666"
     borderopacity="1.0"
     objecttolerance="10.0"
     gridtolerance="10.0"
     guidetolerance="10.0"
     inkscape:pageshadow="2"
     inkscape:pageopacity="0.0"
     inkscape:pagecheckerboard="0"
     inkscape:document-units="mm"
     showgrid="false"
     fit-margin-top="0"
     fit-margin-left="0"
     fit-margin-right="0"
     fit-margin-bottom="0"
     inkscape:zoom="0.6289422"
     inkscape:cx="-143.8924"
     inkscape:cy="279.83494"
     inkscape:window-width="1712"
     inkscape:window-height="912"
     inkscape:window-x="0"
     inkscape:window-y="27"
     inkscape:window-maximized="1"
     inkscape:current-layer="layer1" />
  <defs
     id="defs291" />
  <g
     inkscape:label="Layer 1"
     inkscape:groupmode="layer"
     id="layer1"
     transform="translate(-77.181987,-41.0999)">
    <path
       id="path33376"
       style="fill:#2bb3a5;fill-opacity:1;stroke-width:0.467056"
       d="m 138.63714,41.0999 v 6e-4 c -8.38335,0 -21.67787,0.4662 -24.90751,0.9927 -20.14305,3.2835 -27.75146,8.804 -32.57216,23.6368 -2.78919,8.582 -3.97548,17.5532 -3.97548,30.1257 -0.004,21.8324 4.46429,37.7587 12.65865,45.1188 7.49149,6.7287 24.69915,11.1048 42.92502,11.0727 1.21507,0 2.43459,-0.024 3.65612,-0.066 17.07301,-0.5861 32.05779,-4.8372 39.19503,-11.1197 7.84746,-6.9077 12.52201,-23.7232 12.51241,-45.0061 -0.004,-8.9429 -0.55388,-15.0003 -2.01332,-22.1851 -3.64784,-17.9583 -10.41868,-25.8532 -25.40722,-29.6235 -4.31819,-1.0864 -11.40481,-2.3273 -15.87966,-2.7808 -1.14834,-0.1164 -3.39741,-0.1667 -6.19188,-0.1659 z m 14.21,12.0251 c 2.5686,8e-4 4.30808,0.1593 6.37169,0.5784 5.15792,1.0477 7.42556,2.9921 8.50853,7.2972 0.31199,1.2403 0.66865,3.2758 0.79891,4.5609 0.13364,1.3192 -0.0362,7.6959 -0.2377,8.9328 -0.94303,5.7854 -2.52847,7.9703 -6.78874,9.3549 -2.46488,0.8011 -5.04166,1.1422 -8.65269,1.1422 -6.27057,0 -10.84498,-1.2824 -12.9589,-3.6362 -1.93259,-2.1516 -3.18992,-7.094 -3.18068,-12.3288 h 5e-4 c 0,-0.3489 0.008,-0.6993 0.0186,-1.0501 0.1683,-4.9035 1.38919,-9.2072 3.19363,-11.2572 1.98405,-2.254 6.81402,-3.5968 12.92685,-3.5941 z m -0.0414,3.4369 c -0.13604,0.281 -0.27217,0.5623 -0.40822,0.843 -0.89292,1.9497 -1.68651,3.9439 -2.5523,5.9065 -2.43187,-0.6138 -4.8685,-1.2078 -7.30396,-1.8071 1.18015,2.2053 2.38601,4.3964 3.54812,6.6109 -1.67476,1.3682 -3.47914,2.5884 -5.08651,4.0315 -0.64003,0.5498 -0.36031,0.7479 0.37568,0.7715 2.05819,0.377 4.11715,0.748 6.17791,1.111 -0.0412,2.5172 -0.0873,5.0342 -0.13229,7.5515 1.86693,-1.6796 3.76039,-3.3301 5.67098,-4.9594 1.89243,1.5229 3.75062,3.0869 5.62393,4.6334 0.2191,-2.2442 -0.0923,-4.4985 -0.13589,-6.7461 -0.23456,-0.6511 0.22166,-0.7625 0.77255,-0.7988 2.15419,-0.4474 4.31186,-0.8866 6.45957,-1.3679 -1.92228,-1.5615 -3.99077,-2.93 -5.96916,-4.4182 1.09035,-2.2162 2.22673,-4.448 3.3352,-6.6726 -2.41652,0.6046 -4.8387,1.3298 -7.22386,1.9363 -1.08725,-2.1911 -1.99456,-4.4694 -3.15175,-6.6255 z m 0.25787,7.243 c 3.17084,-0.093 5.94217,2.9263 5.7268,6.0613 0.0113,1.7786 -0.86051,3.5301 -2.28463,4.5919 -0.36589,0.282 -0.76316,0.5244 -1.18649,0.7101 -0.43617,-1.1049 -0.89453,-2.2471 -1.21748,-3.3684 1.23473,-0.6773 1.63009,-2.4958 0.68521,-3.5676 -0.87701,-1.1634 -2.8277,-1.0928 -3.60754,0.141 -0.7417,1.0184 -0.47484,2.5352 0.54624,3.2639 0.52794,0.2442 -0.0902,0.8588 -0.12042,1.2795 -0.27855,0.735 -0.52318,1.5788 -0.88418,2.2458 -2.89695,-1.2438 -4.30358,-4.9993 -2.97035,-7.8502 0.88535,-2.078 3.02581,-3.5756 5.31284,-3.5063 z m 2.24483,26.3483 h 0.001 v 1.0853 c -0.4795,0 -0.86678,0.3807 -0.86662,0.8464 0,0.051 0.007,0.1021 0.0176,0.1524 h 1.10122 v 1.1477 h -2.95227 v -1.1477 h 0.73485 c -0.003,-0.027 -0.003,-0.054 -0.003,-0.081 0,-1.0925 0.87498,-1.9838 1.96731,-2.0031 z m 9.96167,0.5929 h 3.14864 v 15.3044 h -3.14864 z m -2.59623,0.011 v 9.883 h -0.0217 c -0.14944,2.9933 -2.47568,5.3897 -5.363,5.4649 v 0.012 h -1.4981 -3.14915 -3.24011 l 1.11828,-3.1475 h 2.12183 V 94.557 h 3.14915 v 8.4125 h 1.4981 v 0.01 c 1.26455,-0.029 2.1972,-1.0554 2.24433,-2.3363 h -0.008 v -9.8838 z m -36.03656,0.1524 h 3.14864 v 8.9554 h 0.0481 c -0.0413,0.1812 -0.015,0.3659 -0.015,0.5511 5e-5,1.2758 1.04576,2.3297 2.31666,2.5046 l -0.047,0.1333 h 0.006 l -0.14314,0.4051 v -0.019 l -0.90176,2.5518 c -2.41485,-0.6517 -4.21806,-2.7905 -4.39406,-5.3755 h -0.0186 z m -12.90154,4.4675 c 0.87882,0 1.59134,0.7118 1.59163,1.5904 1.6e-4,0.8792 -0.71252,1.5923 -1.59163,1.5923 -0.87892,0 -1.59128,-0.7133 -1.59112,-1.5923 0,-0.8786 0.71252,-1.5901 1.59112,-1.5904 z m 10.63347,1.8283 v 4.2003 h -0.0351 c -0.29753,2.6439 -2.51357,4.7324 -5.27669,4.9071 v 0.011 h -0.23564 -0.0362 -13.86221 l 1.11826,-3.1487 h 13.01576 v 0.011 c 1.12498,-0.1085 2.01678,-0.8451 2.16318,-1.8841 v -0.6072 c -0.01,-0.068 -0.0198,-0.1355 -0.0357,-0.2025 h 0.0357 v -3.2826 z m 17.57257,0.077 h 0.0222 c 3.03426,0 5.49415,2.4593 5.49423,5.4935 5e-5,3.0345 -2.45986,5.494 -5.49423,5.4939 -1.65926,-0.01 -3.22506,-0.7693 -4.26022,-2.0661 h -5.4741 l 0.006,-0.016 h -0.007 l 0.26046,-0.7328 v 0.02 l 0.85939,-2.4191 h 3.14915 c -0.0116,-0.093 -0.0206,-0.1854 -0.0274,-0.2786 5e-5,-3.0255 2.4461,-5.4811 5.4715,-5.4935 z m 0.0982,3.3676 c -1.31702,0 -2.38207,1.0432 -2.38178,2.322 1.8e-4,1.2814 1.07011,2.3199 2.39003,2.3201 1.32014,1e-4 2.39038,-1.0385 2.39057,-2.3201 0,-1.2822 -1.07011,-2.322 -2.39057,-2.322 h -0.008 z m -37.35639,2.5254 h 0.13126 l -0.13126,0.4238 z m 35.37614,6.6173 c 0.87887,1e-4 1.59123,0.7127 1.59112,1.5916 -1.8e-4,0.8787 -0.71244,1.5909 -1.59112,1.5911 -0.87887,10e-5 -1.59144,-0.7123 -1.59163,-1.5911 -1e-4,-0.8791 0.71255,-1.5918 1.59163,-1.5916 z m 4.1584,0 c 0.87908,-2e-4 1.59174,0.7125 1.59163,1.5916 -1.8e-4,0.8788 -0.71276,1.5912 -1.59163,1.5911 -0.87886,10e-5 -1.59144,-0.7123 -1.59162,-1.5911 -1.1e-4,-0.8791 0.71255,-1.5918 1.59162,-1.5916 z m 20.94394,0.4113 h 3.14865 v 15.3045 h -3.14865 z m -5.6193,0.1199 h 3.14865 v 9.8826 h -0.0217 c -0.14943,2.9932 -2.47618,5.3882 -5.3635,5.4632 v 0.013 h -2.16162 l 1.1188,-3.1482 h 1.04282 v 0.01 c 1.26455,-0.029 2.19774,-1.0554 2.24483,-2.3363 h -0.008 z m -17.34724,4.3522 c 0.008,-1e-4 0.015,-1e-4 0.0227,0 3.03406,1e-4 5.4936,2.4596 5.49373,5.4937 0,3.018 -2.43554,5.4704 -5.45343,5.4927 v 0.023 h -7.03831 l 1.07227,-3.0174 h 1.06093 c -0.40481,-0.771 -0.62055,-1.6272 -0.62942,-2.498 1.1e-4,-3.0254 2.44615,-5.4814 5.47151,-5.4937 z m -27.66034,0.2098 h 0.001 c 0.008,0 0.0151,0 0.0227,0 2.87512,0.013 5.25415,2.2402 5.456,5.1082 h 0.0243 v 0.2491 c 0.005,0.045 0.009,0.091 0.0134,0.1364 0,0.028 5e-5,0.055 -0.003,0.083 h -0.0113 v 1.7198 l -1.32705,3.7569 h -1.68881 v -5.5077 c -0.0782,-1.2221 -1.12064,-2.175 -2.38175,-2.1771 h -0.008 c -1.26762,0.01 -2.30955,0.9727 -2.37453,2.2019 h 0.003 v 5.4612 h -2.94658 v 0.013 H 96.5619 l 1.1188,-3.1486 h 11.38123 v -2.326 h 0.005 c 0,-0.026 -0.003,-0.051 -0.004,-0.077 1.3e-4,-3.0254 2.44612,-5.4937 5.4715,-5.4937 z m 13.50616,0.9069 c 0.008,0 0.015,0 0.0227,0 3.03405,1e-4 5.49359,2.4597 5.49373,5.4937 0,0.4227 -0.0507,0.844 -0.14833,1.2553 h 1.6769 v 0 l -1.11103,3.145 h -2.6298 c -0.94795,0.7072 -2.09881,1.0896 -3.28147,1.0904 -1.10546,0 -2.18461,-0.3373 -3.09645,-0.9623 v 0.095 h -4.92786 v 0.026 h -0.0806 l 0.009,-0.026 h -0.0367 v -0.109 l 1.08003,-3.0391 h 1.78697 c -0.1434,-0.4802 -0.22042,-0.9779 -0.22891,-1.479 1e-4,-3.0254 2.44615,-5.4813 5.4715,-5.4937 z m 22.05445,1.7224 h 3.14865 v 4.4917 h 0.0475 v 0.5178 h 1.73789 v 0.03 l -1.10122,3.1181 h -0.63667 v 0.5344 h -0.0351 c -0.003,0.026 -0.009,0.051 -0.0124,0.077 v 0.1969 h -0.0315 c -0.41534,2.512 -2.56659,4.4643 -5.23277,4.6328 v 0.011 h -0.23563 -0.0362 -0.87281 v -3.1481 h 1.14461 v 0.01 c 1.03945,-0.1002 1.87836,-0.7374 2.11564,-1.6531 z m -7.80158,0.5291 c -1.31736,0 -2.38297,1.0423 -2.38279,2.3214 0.008,1.2213 0.98923,2.2277 2.24481,2.3021 h 0.10231 v 0.013 c 0.0145,0 0.0289,0 0.0434,0.01 1.32019,10e-5 2.39046,-1.0389 2.39056,-2.3207 1.9e-4,-1.282 -1.07019,-2.3214 -2.39056,-2.3214 z m -14.15418,1.1168 c -1.31736,0 -2.38297,1.0422 -2.38279,2.3213 1.1e-4,1.2818 1.07038,2.3208 2.39054,2.3208 1.32019,0 2.39046,-1.039 2.39056,-2.3208 1.9e-4,-1.282 -1.07018,-2.3214 -2.39056,-2.3213 z m 6.93809,3.5067 h 0.007 l -0.007,0.024 z m -34.01809,5.2933 c 0.87868,1e-4 1.59094,0.7124 1.59113,1.5911 10e-5,0.8789 -0.71226,1.5914 -1.59113,1.5916 -0.87908,1e-4 -1.59173,-0.7125 -1.59163,-1.5916 1.9e-4,-0.8789 0.71276,-1.5912 1.59163,-1.5911 z m 4.1584,0 c 0.87887,-1e-4 1.59145,0.7122 1.59163,1.5911 1.1e-4,0.8791 -0.71255,1.5917 -1.59163,1.5916 -0.87907,1e-4 -1.59173,-0.7125 -1.59162,-1.5916 1.8e-4,-0.8789 0.71276,-1.5912 1.59162,-1.5911 z" />
  </g>
</svg>
